<svg width="530" height="319" viewBox="0 0 530 319" fill="none" xmlns="http://www.w3.org/2000/svg">
<g filter="url(#filter0_d_446_4)">
<rect x="23" y="23.937" width="484" height="272" rx="10" fill="#218994"/>
</g>
<path fill-rule="evenodd" clip-rule="evenodd" d="M48.1726 207.75C46.4476 207.75 45.0492 209.149 45.0492 210.875V229.625C45.0492 231.351 46.4476 232.75 48.1726 232.75H73.1595C74.8846 232.75 76.2829 231.351 76.2829 229.625V210.875C76.2829 209.149 74.8846 207.75 73.1595 207.75H48.1726ZM51.2959 226.5V214H70.0362V226.5H51.2959Z" fill="#012C3D"/>
<path fill-rule="evenodd" clip-rule="evenodd" d="M82.5297 232.75C82.5297 231.024 83.928 229.625 85.653 229.625H98.1465C99.8716 229.625 101.27 231.024 101.27 232.75V242.125C101.27 243.851 99.8716 245.25 98.1465 245.25H85.653C83.928 245.25 82.5297 243.851 82.5297 242.125V232.75ZM88.7764 235.875V239H95.0232V235.875H88.7764Z" fill="#012C3D"/>
<path d="M85.653 217.125C83.928 217.125 82.5297 218.524 82.5297 220.25C82.5297 221.976 83.928 223.375 85.653 223.375H98.1465C99.8716 223.375 101.27 221.976 101.27 220.25C101.27 218.524 99.8716 217.125 98.1465 217.125H85.653Z" fill="#012C3D"/>
<path d="M82.5297 210.875C82.5297 209.149 83.928 207.75 85.653 207.75H98.1465C99.8716 207.75 101.27 209.149 101.27 210.875C101.27 212.601 99.8716 214 98.1465 214H85.653C83.928 214 82.5297 212.601 82.5297 210.875Z" fill="#012C3D"/>
<path d="M48.1726 239C46.4476 239 45.0492 240.399 45.0492 242.125C45.0492 243.851 46.4476 245.25 48.1726 245.25H73.1595C74.8846 245.25 76.2829 243.851 76.2829 242.125C76.2829 240.399 74.8846 239 73.1595 239H48.1726Z" fill="#012C3D"/>
<path d="M45.0492 251.5C45.0492 249.774 46.4476 248.375 48.1726 248.375H73.1595C74.8846 248.375 76.2829 249.774 76.2829 251.5C76.2829 253.226 74.8846 254.625 73.1595 254.625H48.1726C46.4476 254.625 45.0492 253.226 45.0492 251.5Z" fill="#012C3D"/>
<path d="M48.1726 257.75C46.4476 257.75 45.0492 259.149 45.0492 260.875C45.0492 262.601 46.4476 264 48.1726 264H73.1595C74.8846 264 76.2829 262.601 76.2829 260.875C76.2829 259.149 74.8846 257.75 73.1595 257.75H48.1726Z" fill="#012C3D"/>
<path d="M45.0492 270.25C45.0492 268.524 46.4476 267.125 48.1726 267.125H73.1595C74.8846 267.125 76.2829 268.524 76.2829 270.25C76.2829 271.976 74.8846 273.375 73.1595 273.375H48.1726C46.4476 273.375 45.0492 271.976 45.0492 270.25Z" fill="#012C3D"/>
<path d="M104.393 264C102.668 264 101.27 265.399 101.27 267.125C101.27 268.851 102.668 270.25 104.393 270.25H107.517V273.375C107.517 275.101 108.915 276.5 110.64 276.5C112.365 276.5 113.763 275.101 113.763 273.375V270.25H116.887C118.612 270.25 120.01 268.851 120.01 267.125C120.01 265.399 118.612 264 116.887 264H113.763V260.875C113.763 259.149 112.365 257.75 110.64 257.75C108.915 257.75 107.517 259.149 107.517 260.875V264H104.393Z" fill="#012C3D"/>
<path fill-rule="evenodd" clip-rule="evenodd" d="M32.5557 198.375C32.5557 193.197 36.7509 189 41.9258 189H104.393C109.568 189 113.763 193.197 113.763 198.375V245.472C124.359 246.988 132.504 256.105 132.504 267.125C132.504 279.206 122.715 289 110.64 289C110.557 289 110.473 288.999 110.39 288.999L41.9258 289C36.7509 289 32.5557 284.803 32.5557 279.625V198.375ZM104.393 195.25H97.4035C97.1318 195.25 96.8613 195.285 96.5986 195.356L86.4679 198.058C85.6802 198.269 84.8688 198.375 84.0536 198.375H62.2655C61.4504 198.375 60.6388 198.269 59.8512 198.058L49.7205 195.356C49.4579 195.285 49.1874 195.25 48.9157 195.25H41.9258C40.2009 195.25 38.8025 196.649 38.8025 198.375V279.625C38.8025 281.351 40.2009 282.75 41.9258 282.75H95.3386C91.2892 278.78 88.7764 273.246 88.7764 267.125C88.7764 256.105 96.9212 246.988 107.517 245.472V198.375C107.517 196.649 106.118 195.25 104.393 195.25ZM110.64 251.5C102.015 251.5 95.0232 258.496 95.0232 267.125C95.0232 275.754 102.015 282.75 110.64 282.75C119.265 282.75 126.257 275.754 126.257 267.125C126.257 258.496 119.265 251.5 110.64 251.5Z" fill="#012C3D"/>
<path opacity="0.2" d="M157.838 210.914H298.59L307.85 19.5464H172.078L157.838 210.914Z" fill="black"/>
<path d="M153.514 210.914H297.279L306.547 19.5464H172.078L153.514 210.914Z" fill="#E6E6E6"/>
<path opacity="0.1" d="M159.615 207.36H291.251L300.111 25.9787L175.776 25.9714L159.615 207.36Z" fill="black"/>
<path d="M300.111 25.9714C298.59 85.7487 293.333 145.373 284.372 204.496H189.477C178.994 204.184 159.462 203.733 159.462 203.733C159.462 203.733 174.422 78.7665 175.776 25.9714H300.111Z" fill="#FAFAFA"/>
<path d="M263.726 40.064C263.449 47.8844 263.109 55.7024 262.707 63.5179H286.206C286.614 55.6975 286.954 47.8795 287.226 40.064H263.726ZM284.263 61.4756H264.861C265.192 55.0119 265.473 48.5555 265.706 42.1063H285.107C284.869 48.5603 284.588 55.0167 284.263 61.4756Z" fill="#E0E0E0"/>
<path d="M259.802 78.0251C259.53 85.8456 259.19 93.666 258.783 101.486H282.275C282.683 93.6611 283.025 85.8407 283.302 78.0251H259.802ZM280.339 99.4441H260.938C261.258 92.9852 261.539 86.5263 261.782 80.0675H281.183C280.941 86.5312 280.659 92.99 280.339 99.4441Z" fill="#E0E0E0"/>
<path d="M256.409 114.721C256.138 122.537 255.798 130.355 255.39 138.175H278.897C279.3 130.355 279.64 122.537 279.917 114.721H256.409ZM276.946 136.133H257.545C257.865 129.669 258.147 123.213 258.39 116.764H277.791C277.553 123.213 277.271 129.669 276.946 136.133Z" fill="#E0E0E0"/>
<path d="M251.204 153.802C250.932 161.622 250.593 169.442 250.185 177.263H273.685C274.088 169.438 274.427 161.617 274.704 153.802H251.204ZM271.741 175.22H252.34C252.66 168.762 252.942 162.303 253.184 155.844H272.586C272.343 162.298 272.061 168.757 271.741 175.22Z" fill="#E0E0E0"/>
<path d="M184.963 53.8516H251.408C251.355 55.3052 251.299 56.7588 251.241 58.2124H184.789L184.963 53.8516Z" fill="#E6E6E6"/>
<path d="M200.077 46.8816H252.063C252.005 48.3352 251.932 49.7888 251.867 51.2424H199.866C199.938 49.7888 200.004 48.3352 200.077 46.8816Z" fill="#E6E6E6"/>
<path d="M178.87 93.0698H245.307C245.256 94.5234 245.198 95.977 245.14 97.4306H178.695C178.754 95.9916 178.819 94.5234 178.87 93.0698Z" fill="#E6E6E6"/>
<path d="M193.983 86.0781H245.977C245.912 87.5317 245.839 88.9853 245.773 90.439H193.78C193.845 88.9926 193.896 87.5317 193.983 86.0781Z" fill="#E6E6E6"/>
<path d="M174.24 166.237H240.677C240.619 167.691 240.568 169.145 240.503 170.598H174.058C174.126 169.154 174.187 167.701 174.24 166.237Z" fill="#E6E6E6"/>
<path d="M189.353 159.245H241.34C241.282 160.699 241.209 162.153 241.143 163.606H189.142C189.215 162.16 189.281 160.706 189.353 159.245Z" fill="#E6E6E6"/>
<path d="M178.542 127.753H244.98C244.922 129.207 244.871 130.66 244.805 132.114H178.36C178.428 130.67 178.489 129.216 178.542 127.753Z" fill="#E6E6E6"/>
<path d="M193.648 120.761H245.642C245.584 122.215 245.511 123.668 245.438 125.122H193.445C193.51 123.675 193.583 122.222 193.648 120.761Z" fill="#E6E6E6"/>
<path d="M204.336 29.38H273.976L273.364 27.1996C271.792 21.734 271.064 18.1146 265.968 18.1146C265.968 18.1146 248.889 17.1479 248.416 15.6725C247.844 13.9244 246.729 12.4037 245.233 11.3308C243.736 10.2579 241.937 9.68859 240.095 9.70544C238.191 9.72822 236.336 10.3049 234.756 11.3648C233.176 12.4246 231.939 13.9217 231.199 15.6725C230.587 17.1261 211.987 18.1146 211.987 18.1146C206.854 18.1146 207.218 21.7486 205.151 27.1996L204.336 29.38Z" fill="#E0E0E0"/>
<path d="M266.478 53.5318C266.45 53.9151 266.501 54.3 266.626 54.6634C266.751 55.0268 266.948 55.3613 267.206 55.6468C267.799 56.0662 268.535 56.2335 269.251 56.112C272.163 55.8721 274.762 54.215 277.099 52.4779C281.589 49.0963 285.626 45.154 289.111 40.7473C284.68 43.7321 280.137 46.5472 275.483 49.1928C274.067 50.0611 272.552 50.7565 270.969 51.2642C270.329 51.4459 269.455 51.4604 269.2 50.8499C268.887 50.1231 269.826 49.0256 269.2 48.5314C268.574 48.0372 267.249 49.1564 266.951 49.6579C266.368 50.6028 266.441 52.4489 266.478 53.5318Z" fill="#E0E0E0"/>
<path d="M261.272 91.2166C261.245 91.5999 261.295 91.9848 261.42 92.3482C261.546 92.7116 261.743 93.0461 262 93.3316C262.594 93.751 263.329 93.9183 264.046 93.7968C266.958 93.5497 269.557 91.8998 271.894 90.1627C276.382 86.7791 280.419 82.837 283.906 78.4321C279.47 81.4169 274.927 84.2296 270.278 86.8703C268.863 87.7439 267.348 88.4419 265.764 88.949C265.124 89.1307 264.25 89.1452 263.995 88.5274C263.682 87.8006 264.621 86.7104 263.995 86.2162C263.369 85.722 262.044 86.8413 261.746 87.3355C261.163 88.2513 261.236 90.0901 261.272 91.2166Z" fill="#E0E0E0"/>
<path d="M258.855 128.821C258.83 129.206 258.881 129.591 259.006 129.955C259.131 130.32 259.327 130.656 259.583 130.944C259.876 131.151 260.206 131.3 260.556 131.379C260.906 131.459 261.268 131.469 261.622 131.409C264.534 131.162 267.133 129.512 269.47 127.775C273.958 124.391 277.994 120.449 281.482 116.044C277.055 119.034 272.513 121.847 267.854 124.482C266.441 125.355 264.928 126.052 263.347 126.561C262.707 126.743 261.826 126.757 261.571 126.139C261.258 125.413 262.197 124.315 261.571 123.828C260.945 123.341 259.62 124.446 259.321 124.948C258.746 125.892 258.819 127.738 258.855 128.821Z" fill="#E0E0E0"/>
<path d="M381.764 196.145C382.492 197.039 383.22 198.1 382.987 199.227C382.822 199.843 382.43 200.374 381.891 200.714C381.351 201.055 380.703 201.18 380.075 201.066C379.454 200.928 378.879 200.634 378.402 200.214C377.926 199.793 377.565 199.258 377.352 198.66C377.061 197.933 376.959 197.134 376.675 196.4C375.852 194.277 373.763 192.976 371.783 191.828C371.659 194.008 372.911 196.094 374.389 197.737C375.867 199.379 377.636 200.782 378.917 202.592C380.198 204.402 380.941 206.8 380.06 208.835C379.998 209.009 379.89 209.162 379.747 209.279C379.526 209.403 379.266 209.439 379.019 209.38C376.704 209.068 375.124 206.902 374.105 204.794C373.086 202.686 372.241 200.353 370.37 198.98C371.193 201.756 373.428 203.893 374.607 206.538C375.348 208.253 375.638 210.128 375.451 211.986C375.264 213.844 374.605 215.624 373.537 217.157C373.461 217.294 373.357 217.415 373.231 217.51C373.106 217.605 372.962 217.673 372.809 217.709C372.358 217.76 372.03 217.302 371.841 216.888C369.948 212.767 371.339 207.193 368.063 204.053C367.553 205.158 367.051 206.233 366.541 207.352C366.281 208.047 365.876 208.678 365.355 209.206C365.085 209.46 364.743 209.625 364.375 209.679C364.008 209.732 363.633 209.671 363.302 209.504C362.326 208.879 362.574 207.411 363.01 206.335C364.091 203.542 365.426 200.853 367 198.304C365.901 197.788 364.816 198.914 363.993 199.83C363.171 200.746 361.656 201.553 360.914 200.557C360.696 200.229 360.591 199.838 360.615 199.445C360.615 197.526 361.933 195.869 363.331 194.546C364.728 193.223 366.316 192.046 367.247 190.374C366.199 190.69 365.085 190.718 364.022 190.454C362.996 190.098 362.173 188.928 362.566 187.925C363.806 186.524 365.176 185.244 366.658 184.102C368.325 183.579 369.956 185.112 371.215 186.035C375.176 188.91 378.725 192.311 381.764 196.145Z" fill="#EBEBEB"/>
<path d="M372.562 212.382C372.562 211.822 372.562 211.277 372.562 210.732C372.38 195.077 369.65 189.233 368.922 189.066L368.849 188.339C368.969 188.327 369.091 188.343 369.204 188.384C369.318 188.426 369.42 188.492 369.504 188.579C370.96 189.829 373.144 196.756 373.326 210.718C373.326 211.263 373.326 211.808 373.326 212.36L372.562 212.382Z" fill="#E0E0E0"/>
<path d="M372.547 220.457C372.547 219.999 372.547 213.334 372.547 210.819V209.838C372.547 194.851 374.833 187.409 376.369 186.064C376.455 185.976 376.56 185.907 376.676 185.863C376.792 185.819 376.916 185.801 377.039 185.81L376.944 186.537C376.18 186.711 373.304 192.991 373.304 209.838V210.819C373.304 213.327 373.304 219.992 373.304 220.449L372.547 220.457Z" fill="#E0E0E0"/>
<path d="M382.841 244.667H363.171L361.249 221.06H384.763L382.841 244.667Z" fill="#F0F0F0"/>
<path d="M386.285 222.274H359.531L359.05 219.134H386.772L386.285 222.274Z" fill="#FAFAFA"/>
<path d="M346.674 183.041C345.32 183.041 343.762 183.085 342.874 184.08C342.412 184.674 342.187 185.419 342.245 186.169C342.303 186.918 342.639 187.62 343.187 188.136C343.763 188.623 344.452 188.956 345.192 189.106C345.931 189.256 346.696 189.217 347.417 188.994C348.319 188.739 349.149 188.267 350.045 188.02C352.651 187.293 355.388 188.339 357.885 189.386C355.876 191.079 353.022 191.363 350.401 191.138C347.781 190.912 345.196 190.236 342.568 190.309C339.94 190.382 337.123 191.407 335.82 193.689C335.701 193.871 335.634 194.082 335.623 194.299C335.661 194.599 335.809 194.873 336.038 195.07C337.996 197.039 341.185 196.981 343.908 196.451C346.63 195.92 349.455 194.997 352.12 195.811C348.895 197.01 345.269 196.421 341.928 197.199C339.771 197.72 337.783 198.783 336.154 200.286C334.524 201.79 333.306 203.684 332.616 205.79C332.541 205.959 332.502 206.143 332.502 206.328C332.502 206.513 332.541 206.696 332.616 206.866C332.893 207.324 333.563 207.309 334.072 207.193C339.336 206.044 343.631 200.753 348.953 201.611L346.9 205.405C346.429 206.148 346.121 206.983 345.997 207.854C345.939 208.295 346.022 208.743 346.233 209.135C346.445 209.526 346.775 209.841 347.176 210.035C348.458 210.514 349.673 209.213 350.394 208.05C352.274 205.034 353.872 201.852 355.17 198.544C356.444 199.212 356.167 201.073 355.898 202.483C355.629 203.893 355.898 205.921 357.354 205.935C357.822 205.91 358.268 205.728 358.621 205.419C360.426 204.038 361.074 201.625 361.329 199.365C361.584 197.105 361.576 194.757 362.508 192.678C362.944 193.89 363.698 194.962 364.692 195.782C365.77 196.509 367.466 196.451 368.121 195.339C368.577 193.168 368.821 190.957 368.849 188.739C368.157 186.784 365.537 186.341 363.753 185.796C358.211 184.111 352.466 183.184 346.674 183.041Z" fill="#F5F5F5"/>
<path d="M381.116 208.232C381.727 209.438 382.506 210.747 383.824 211.095C384.566 211.225 385.33 211.073 385.965 210.67C386.601 210.267 387.063 209.641 387.26 208.915C387.423 208.18 387.396 207.415 387.182 206.693C386.968 205.971 386.574 205.315 386.037 204.787C385.389 204.111 384.581 203.595 383.94 202.919C382.062 200.964 381.72 198.057 381.473 195.367C383.919 196.349 385.506 198.725 386.532 201.146C387.559 203.566 388.177 206.16 389.481 208.414C390.784 210.667 392.997 212.702 395.625 212.774C395.843 212.792 396.061 212.752 396.258 212.658C396.505 212.484 396.679 212.225 396.746 211.931C397.569 209.286 396.018 206.502 394.278 204.351C392.538 202.199 390.427 200.121 389.866 197.402C392.444 199.685 393.616 203.159 395.88 205.761C397.354 207.417 399.226 208.67 401.32 209.403C403.415 210.135 405.661 210.322 407.848 209.947C408.032 209.934 408.212 209.883 408.376 209.798C408.54 209.713 408.685 209.596 408.802 209.453C409.086 208.988 408.758 208.406 408.409 207.999C404.921 203.9 398.217 202.592 396.484 197.497H400.808C401.685 197.565 402.566 197.446 403.393 197.148C403.804 196.99 404.155 196.707 404.398 196.34C404.641 195.972 404.763 195.538 404.747 195.098C404.565 193.739 402.854 193.281 401.478 193.187C397.93 192.946 394.367 193.028 390.835 193.434C390.835 191.981 392.604 191.37 393.987 190.978C395.37 190.585 397.008 189.335 396.353 188.07C396.11 187.671 395.741 187.365 395.305 187.198C393.23 186.253 390.791 186.813 388.672 187.649C386.554 188.485 384.479 189.597 382.208 189.749C383.073 188.784 383.661 187.604 383.911 186.333C384.042 185.054 383.183 183.579 381.909 183.521C379.777 184.146 377.71 184.973 375.736 185.992C374.331 187.511 375.168 190.033 375.525 191.857C376.639 197.542 378.52 203.051 381.116 208.232Z" fill="#F0F0F0"/>
<path opacity="0.2" d="M386.736 38.1599C386.736 38.407 386.736 38.6493 386.736 38.8867V57.7836H360.848L359.472 56.4753L360.848 38.1599C360.848 34.7326 362.212 31.4457 364.639 29.0222C367.067 26.5988 370.359 25.2373 373.792 25.2373C377.225 25.2373 380.517 26.5988 382.945 29.0222C385.372 31.4457 386.736 34.7326 386.736 38.1599Z" fill="black"/>
<path d="M385.36 36.8806C385.36 37.135 385.36 37.3821 385.36 37.6074V56.4171H359.472V36.8806C359.472 33.4533 360.836 30.1664 363.263 27.7429C365.691 25.3195 368.983 23.958 372.416 23.958C375.849 23.958 379.141 25.3195 381.569 27.7429C383.996 30.1664 385.36 33.4533 385.36 36.8806Z" fill="#F5F5F5"/>
<path d="M381.827 38.633C382.63 33.6961 379.272 29.0443 374.327 28.243C369.382 27.4416 364.722 30.7941 363.92 35.7309C363.117 40.6678 366.475 45.3196 371.42 46.1209C376.365 46.9223 381.024 43.5698 381.827 38.633Z" fill="#E0E0E0"/>
<path d="M371.812 46.0746C376.822 46.0746 380.883 42.0201 380.883 37.0186C380.883 32.0171 376.822 27.9626 371.812 27.9626C366.802 27.9626 362.741 32.0171 362.741 37.0186C362.741 42.0201 366.802 46.0746 371.812 46.0746Z" fill="white"/>
<path d="M372.416 37.6221C372.416 37.7658 372.374 37.9063 372.294 38.0259C372.214 38.1454 372.1 38.2385 371.967 38.2935C371.834 38.3486 371.687 38.3629 371.546 38.3349C371.405 38.3069 371.275 38.2376 371.173 38.136C371.072 38.0344 371.002 37.9048 370.974 37.7639C370.946 37.6229 370.961 37.4767 371.016 37.3439C371.071 37.2111 371.164 37.0976 371.284 37.0177C371.403 36.9379 371.544 36.8953 371.688 36.8953C371.881 36.8953 372.066 36.9718 372.203 37.1081C372.339 37.2444 372.416 37.4293 372.416 37.6221Z" fill="#E0E0E0"/>
<path d="M371.594 37.8909L368.463 34.9473L368.769 34.6202L371.608 37.2876L376.697 32.8032L376.988 33.1376L371.594 37.8909Z" fill="#E0E0E0"/>
<path d="M298 275.832C375.956 275.832 439.152 272.149 439.152 267.605C439.152 263.061 375.956 259.377 298 259.377C220.044 259.377 156.848 263.061 156.848 267.605C156.848 272.149 220.044 275.832 298 275.832Z" fill="#F5F5F5"/>
<path d="M295.401 158.722V247.639H297.716L300.628 158.722H295.401Z" fill="#F7444E"/>
<path d="M322.73 161.629V244.005H325.045L327.957 161.629H322.73Z" fill="#F7444E"/>
<path opacity="0.5" d="M322.73 161.629V244.005H325.045L327.957 161.629H322.73Z" fill="black"/>
<path d="M434.223 158.722V244.005H431.908L428.996 158.722H434.223Z" fill="#F7444E"/>
<path opacity="0.5" d="M434.223 158.722V244.005H431.908L428.996 158.722H434.223Z" fill="black"/>
<path d="M406.894 161.629V247.094H404.579L401.667 161.629H406.894Z" fill="#F7444E"/>
<path d="M450.218 156.047H277.725V159.776H450.218V156.047Z" fill="#F7444E"/>
<path d="M438.875 163.759H289.941L283.899 159.776H444.918L438.875 163.759Z" fill="#F7444E"/>
<path opacity="0.5" d="M438.875 163.759H289.941L283.899 159.776H444.918L438.875 163.759Z" fill="black"/>
<path d="M307.231 146.824H343.602V137.797H307.231V146.824Z" fill="#F7444E"/>
<path opacity="0.6" d="M307.348 146.861H343.718V137.834H307.348V146.861Z" fill="white"/>
<path opacity="0.6" d="M307.238 146.861H335.15V137.834H307.238V146.861Z" fill="white"/>
<path d="M307.413 145.676L343.602 146.802L343.566 145.887L307.391 145.414L307.413 145.676Z" fill="#F7444E"/>
<path d="M343.602 141.504L307.471 139.476V139.774L343.602 142.187V141.504Z" fill="#F7444E"/>
<path d="M343.602 138.779L307.471 139.6V139.898L343.602 139.462V138.779Z" fill="#F7444E"/>
<path d="M343.704 143.278L307.566 145.036V144.768L343.704 142.674V143.278Z" fill="#F7444E"/>
<path d="M309.764 156.207H346.135V147.18H309.764V156.207Z" fill="#F7444E"/>
<path opacity="0.6" d="M309.888 156.251H346.259V147.224H309.888V156.251Z" fill="white"/>
<path opacity="0.6" d="M337.763 147.217H309.852V156.244H337.763V147.217Z" fill="white"/>
<path d="M345.983 154.797L309.815 155.263L309.772 156.178L345.961 155.059L345.983 154.797Z" fill="#F7444E"/>
<path d="M310.005 147.297L346.143 147.326V147.624H310.005V147.297Z" fill="#F7444E"/>
<path d="M309.772 151.57L345.91 149.157V148.852L309.772 150.88V151.57Z" fill="#F7444E"/>
<path d="M346.143 148.154L310.005 148.983V149.281L346.143 148.845V148.154Z" fill="#F7444E"/>
<path d="M346.245 152.661L310.099 154.412V154.151L346.245 152.057V152.661Z" fill="#F7444E"/>
<path d="M340.552 102.802L304.203 102.983L304.144 111.829H340.552V102.802Z" fill="#F7444E"/>
<path opacity="0.6" d="M304.181 111.829H340.552V102.802H304.181V111.829Z" fill="white"/>
<path opacity="0.6" d="M332.056 102.802H304.144V111.829H332.056V102.802Z" fill="white"/>
<path d="M333.155 102.983H304.203V103.899H332.536L333.155 102.983Z" fill="#F7444E"/>
<path d="M340.341 106.683L304.203 107.017V107.286H340.341V106.683Z" fill="#F7444E"/>
<path d="M304.203 110.862L340.341 109.103V109.365L304.203 111.458V110.862Z" fill="#F7444E"/>
<path d="M304.203 107.468L340.341 108.187V108.442L304.203 108.064V107.468Z" fill="#F7444E"/>
<path d="M340.399 135.806H304.261V137.994H340.399V135.806Z" fill="#F7444E"/>
<path opacity="0.6" d="M340.399 135.828H304.261V138.001H340.399V135.828Z" fill="white"/>
<path opacity="0.6" d="M333.06 135.69H304.261V138.001H333.06V135.69Z" fill="white"/>
<path d="M304.283 136.794L340.428 137.238L340.421 137.376L304.275 137.107L304.283 136.794Z" fill="#F7444E"/>
<path d="M304.283 136.373L340.421 136.743V136.882L304.283 136.685V136.373Z" fill="#F7444E"/>
<path d="M340.763 112.294V118.036C340.909 118.036 341.05 118.094 341.154 118.197C341.258 118.301 341.316 118.441 341.316 118.588C341.316 118.734 341.258 118.875 341.154 118.979C341.05 119.082 340.909 119.14 340.763 119.14C338.579 119.14 336.395 119.14 334.211 119.14V111.146H340.763C340.915 111.146 341.062 111.206 341.169 111.314C341.277 111.421 341.338 111.567 341.338 111.72C341.338 111.872 341.277 112.018 341.169 112.126C341.062 112.233 340.915 112.294 340.763 112.294Z" fill="#F7444E"/>
<path opacity="0.3" d="M340.763 112.294V118.036C340.909 118.036 341.05 118.094 341.154 118.197C341.258 118.301 341.316 118.441 341.316 118.588C341.316 118.734 341.258 118.875 341.154 118.979C341.05 119.082 340.909 119.14 340.763 119.14C338.579 119.14 336.395 119.14 334.211 119.14V111.146H340.763C340.915 111.146 341.062 111.206 341.169 111.314C341.277 111.421 341.338 111.567 341.338 111.72C341.338 111.872 341.277 112.018 341.169 112.126C341.062 112.233 340.915 112.294 340.763 112.294Z" fill="white"/>
<path d="M340.763 112.316H335.652V118.05H340.763V112.316Z" fill="#F7444E"/>
<path opacity="0.6" d="M340.763 112.316H335.652V118.05H340.763V112.316Z" fill="white"/>
<path d="M336.722 111.756H308.498C307.275 111.756 306.314 113.289 306.314 115.179C306.314 117.069 307.297 118.602 308.498 118.602H336.722V111.756Z" fill="#F7444E"/>
<path opacity="0.9" d="M336.722 111.756H308.498C307.275 111.756 306.314 113.289 306.314 115.179C306.314 117.069 307.297 118.602 308.498 118.602H336.722V111.756Z" fill="white"/>
<path d="M336.722 119.155C330.898 119.155 314.606 119.257 308.804 119.155C304.829 119.082 304.618 111.473 308.512 111.211C311.235 111.022 314.031 111.211 316.753 111.211H336.722C336.857 111.226 336.982 111.291 337.072 111.392C337.162 111.493 337.212 111.624 337.212 111.76C337.212 111.895 337.162 112.026 337.072 112.127C336.982 112.228 336.857 112.293 336.722 112.308H309.721C308.447 112.308 307.537 112.308 307.049 113.82C306.62 115.121 306.758 117.767 308.505 118.05C308.704 118.068 308.903 118.068 309.102 118.05H336.73C336.876 118.05 337.017 118.108 337.121 118.212C337.225 118.316 337.283 118.456 337.283 118.603C337.283 118.749 337.225 118.89 337.121 118.993C337.017 119.097 336.876 119.155 336.73 119.155H336.722Z" fill="#F7444E"/>
<g opacity="0.2">
<path d="M336.722 119.155C330.898 119.155 314.606 119.257 308.804 119.155C304.829 119.082 304.618 111.473 308.512 111.211C311.235 111.022 314.031 111.211 316.753 111.211H336.722C336.857 111.226 336.982 111.291 337.072 111.392C337.162 111.493 337.212 111.624 337.212 111.76C337.212 111.895 337.162 112.026 337.072 112.127C336.982 112.228 336.857 112.293 336.722 112.308H309.721C308.447 112.308 307.537 112.308 307.049 113.82C306.62 115.121 306.758 117.767 308.505 118.05C308.704 118.068 308.903 118.068 309.102 118.05H336.73C336.876 118.05 337.017 118.108 337.121 118.212C337.225 118.316 337.283 118.456 337.283 118.603C337.283 118.749 337.225 118.89 337.121 118.993C337.017 119.097 336.876 119.155 336.73 119.155H336.722Z" fill="white"/>
</g>
<path d="M334.684 120.063V125.376C334.819 125.376 334.949 125.43 335.044 125.525C335.14 125.621 335.194 125.75 335.194 125.885C335.194 126.02 335.14 126.149 335.044 126.245C334.949 126.34 334.819 126.394 334.684 126.394C332.653 126.394 330.622 126.394 328.591 126.394V119.046H334.684C334.819 119.046 334.949 119.1 335.044 119.195C335.14 119.29 335.194 119.42 335.194 119.555C335.194 119.69 335.14 119.819 335.044 119.914C334.949 120.01 334.819 120.063 334.684 120.063Z" fill="#F7444E"/>
<path opacity="0.3" d="M334.684 120.063V125.376C334.819 125.376 334.949 125.43 335.044 125.525C335.14 125.621 335.194 125.75 335.194 125.885C335.194 126.02 335.14 126.149 335.044 126.245C334.949 126.34 334.819 126.394 334.684 126.394C332.653 126.394 330.622 126.394 328.591 126.394V119.046H334.684C334.819 119.046 334.949 119.1 335.044 119.195C335.14 119.29 335.194 119.42 335.194 119.555C335.194 119.69 335.14 119.819 335.044 119.914C334.949 120.01 334.819 120.063 334.684 120.063Z" fill="white"/>
<path d="M334.684 120.071H329.952V125.383H334.684V120.071Z" fill="#F7444E"/>
<path opacity="0.6" d="M334.684 120.071H329.952V125.383H334.684V120.071Z" fill="white"/>
<path d="M330.942 119.562H304.807C303.678 119.562 302.761 120.979 302.761 122.731C302.761 124.482 303.678 125.9 304.807 125.9H330.942V119.562Z" fill="#F7444E"/>
<path opacity="0.9" d="M330.942 119.562H304.807C303.678 119.562 302.761 120.979 302.761 122.731C302.761 124.482 303.678 125.9 304.807 125.9H330.942V119.562Z" fill="white"/>
<path d="M330.942 126.401C325.569 126.401 310.463 126.496 305.091 126.401C301.407 126.336 301.21 119.293 304.821 119.046C307.34 118.871 309.917 119.046 312.451 119.046H330.942C331.077 119.046 331.207 119.099 331.302 119.195C331.398 119.29 331.452 119.42 331.452 119.555C331.452 119.689 331.398 119.819 331.302 119.914C331.207 120.01 331.077 120.063 330.942 120.063H305.935C304.756 120.063 303.919 120.063 303.46 121.466C303.067 122.665 303.191 125.1 304.807 125.384C304.988 125.398 305.171 125.398 305.353 125.384H330.942C331.077 125.384 331.207 125.437 331.302 125.533C331.398 125.628 331.452 125.757 331.452 125.892C331.452 126.027 331.398 126.157 331.302 126.252C331.207 126.347 331.077 126.401 330.942 126.401Z" fill="#F7444E"/>
<path d="M342.823 127.557V133.887C342.973 133.904 343.111 133.975 343.212 134.087C343.312 134.199 343.368 134.344 343.368 134.494C343.368 134.644 343.312 134.79 343.212 134.902C343.111 135.014 342.973 135.085 342.823 135.101C340.406 135.101 337.989 135.101 335.543 135.101V126.307H342.823C342.989 126.307 343.148 126.372 343.266 126.49C343.383 126.607 343.449 126.766 343.449 126.932C343.449 127.097 343.383 127.256 343.266 127.374C343.148 127.491 342.989 127.557 342.823 127.557Z" fill="#F7444E"/>
<path opacity="0.3" d="M342.823 127.557V133.887C342.973 133.904 343.111 133.975 343.212 134.087C343.312 134.199 343.368 134.344 343.368 134.494C343.368 134.644 343.312 134.79 343.212 134.902C343.111 135.014 342.973 135.085 342.823 135.101C340.406 135.101 337.989 135.101 335.543 135.101V126.307H342.823C342.989 126.307 343.148 126.372 343.266 126.49C343.383 126.607 343.449 126.766 343.449 126.932C343.449 127.097 343.383 127.256 343.266 127.374C343.148 127.491 342.989 127.557 342.823 127.557Z" fill="white"/>
<path d="M342.823 127.528H337.188V133.851H342.823V127.528Z" fill="#F7444E"/>
<path opacity="0.6" d="M342.823 127.528H337.188V133.851H342.823V127.528Z" fill="white"/>
<path d="M338.368 126.917H307.26C305.913 126.917 304.829 128.603 304.829 130.689C304.829 132.775 305.913 134.461 307.26 134.461H338.368V126.917Z" fill="#F7444E"/>
<path opacity="0.9" d="M338.368 126.917H307.26C305.913 126.917 304.829 128.603 304.829 130.689C304.829 132.775 305.913 134.461 307.26 134.461H338.368V126.917Z" fill="white"/>
<path d="M338.368 135.065C331.969 135.065 313.994 135.181 307.595 135.065C303.227 134.985 302.98 126.605 307.275 126.307C310.274 126.103 313.354 126.307 316.353 126.307H338.368C338.517 126.323 338.656 126.394 338.756 126.506C338.857 126.618 338.913 126.763 338.913 126.913C338.913 127.064 338.857 127.209 338.756 127.321C338.656 127.433 338.517 127.504 338.368 127.52H308.607C307.202 127.52 306.205 127.52 305.659 129.192C305.193 130.646 305.338 133.553 307.26 133.851C307.478 133.869 307.697 133.869 307.915 133.851H338.368C338.517 133.867 338.656 133.938 338.756 134.05C338.857 134.162 338.913 134.307 338.913 134.458C338.913 134.608 338.857 134.753 338.756 134.865C338.656 134.977 338.517 135.048 338.368 135.065Z" fill="#F7444E"/>
<g opacity="0.2">
<path d="M338.368 135.065C331.969 135.065 313.994 135.181 307.595 135.065C303.227 134.985 302.98 126.605 307.275 126.307C310.274 126.103 313.354 126.307 316.353 126.307H338.368C338.517 126.323 338.656 126.394 338.756 126.506C338.857 126.618 338.913 126.763 338.913 126.913C338.913 127.064 338.857 127.209 338.756 127.321C338.656 127.433 338.517 127.504 338.368 127.52H308.607C307.202 127.52 306.205 127.52 305.659 129.192C305.193 130.646 305.338 133.553 307.26 133.851C307.478 133.869 307.697 133.869 307.915 133.851H338.368C338.517 133.867 338.656 133.938 338.756 134.05C338.857 134.162 338.913 134.307 338.913 134.458C338.913 134.608 338.857 134.753 338.756 134.865C338.656 134.977 338.517 135.048 338.368 135.065Z" fill="black"/>
</g>
<path d="M391.359 154.056L349.076 154.245C348.797 154.251 348.519 154.197 348.262 154.087C348.005 153.977 347.774 153.813 347.586 153.606C347.398 153.4 347.256 153.155 347.17 152.889C347.084 152.623 347.057 152.342 347.089 152.065L349.331 125.071C349.388 124.483 349.659 123.937 350.092 123.535C350.526 123.133 351.091 122.904 351.683 122.891L393.965 122.702C394.245 122.696 394.522 122.749 394.78 122.86C395.037 122.97 395.267 123.134 395.456 123.34C395.644 123.547 395.786 123.792 395.871 124.057C395.957 124.323 395.985 124.605 395.952 124.882L393.71 151.876C393.653 152.463 393.383 153.01 392.949 153.412C392.516 153.813 391.95 154.043 391.359 154.056Z" fill="#263238"/>
<path d="M391.25 151.927L348.341 152.123L350.598 124.955L393.506 124.766L391.25 151.927Z" fill="#F7444E"/>
<path d="M390.667 154.056L348.385 154.245C348.105 154.252 347.826 154.199 347.569 154.09C347.311 153.98 347.08 153.816 346.891 153.609C346.703 153.402 346.561 153.157 346.476 152.891C346.391 152.624 346.364 152.342 346.397 152.065L348.64 125.071C348.697 124.484 348.967 123.937 349.401 123.535C349.834 123.133 350.4 122.904 350.991 122.891L393.273 122.702C393.553 122.696 393.831 122.75 394.088 122.86C394.345 122.97 394.576 123.134 394.764 123.341C394.952 123.547 395.094 123.792 395.18 124.058C395.265 124.324 395.293 124.605 395.261 124.882L393.019 151.876C392.962 152.463 392.691 153.01 392.258 153.412C391.824 153.814 391.258 154.043 390.667 154.056Z" fill="#F7444E"/>
<g opacity="0.7">
<path d="M390.929 151.614L348.028 151.803L350.285 124.642L393.193 124.453L390.929 151.614Z" fill="#F7444E"/>
<path opacity="0.9" d="M389 151.621L350.329 151.796C350.036 151.797 349.746 151.737 349.478 151.62C349.21 151.504 348.969 151.333 348.77 151.118C348.572 150.903 348.42 150.65 348.325 150.374C348.23 150.097 348.193 149.805 348.217 149.513L350.125 126.568C350.169 126.042 350.408 125.552 350.796 125.194C351.185 124.836 351.693 124.637 352.221 124.635L390.886 124.461C391.178 124.458 391.469 124.517 391.737 124.634C392.006 124.75 392.248 124.921 392.446 125.136C392.645 125.351 392.797 125.605 392.891 125.881C392.986 126.158 393.022 126.451 392.997 126.743L391.089 149.695C391.046 150.219 390.807 150.707 390.42 151.064C390.033 151.421 389.526 151.619 389 151.621Z" fill="white"/>
</g>
<path opacity="0.1" d="M384.101 122.724L375.86 154.049L378.677 154.034L386.831 122.709L384.101 122.724Z" fill="white"/>
<path opacity="0.1" d="M388.454 122.702L380.213 154.027L385.804 154.005L393.95 122.673L388.454 122.702Z" fill="white"/>
<path d="M377.25 153.903L391.519 154.027C391.708 155.684 390.973 156.28 390.063 156.273L337.829 156.193C337.278 156.191 336.75 155.971 336.361 155.581C335.972 155.192 335.754 154.664 335.754 154.114L377.25 153.903Z" fill="#F7444E"/>
<path opacity="0.2" d="M377.25 153.903L391.519 154.027C391.708 155.684 390.973 156.28 390.063 156.273L337.829 156.193C337.278 156.191 336.75 155.971 336.361 155.581C335.972 155.192 335.754 154.664 335.754 154.114L377.25 153.903Z" fill="white"/>
<path opacity="0.2" d="M391.519 154.027C391.708 155.684 390.973 156.28 390.063 156.273H375.576C376.762 156.273 378.277 155.124 378.277 153.932L391.519 154.027Z" fill="white"/>
<path d="M394.387 128.378C395.451 127.524 396.787 127.083 398.151 127.135C399.506 127.188 400.832 127.551 402.024 128.196C402.136 126.452 402.24 124.708 402.337 122.963C402.417 121.691 396.426 121.56 395.69 121.851C393.754 122.6 394.708 126.575 394.387 128.378Z" fill="#F7444E"/>
<path opacity="0.9" d="M394.387 128.378C395.451 127.524 396.787 127.083 398.151 127.135C399.506 127.188 400.832 127.551 402.024 128.196C402.136 126.452 402.24 124.708 402.337 122.963C402.417 121.691 396.426 121.56 395.69 121.851C393.754 122.6 394.708 126.575 394.387 128.378Z" fill="white"/>
<path d="M393.659 132.317C394.858 131.855 396.138 131.635 397.423 131.67C398.732 131.693 400.033 131.879 401.296 132.223C401.405 131.321 401.507 130.413 401.609 129.504C401.689 128.843 395.698 128.778 394.962 128.923C393.026 129.315 393.979 131.38 393.659 132.317Z" fill="#F7444E"/>
<path opacity="0.9" d="M393.659 132.317C394.858 131.855 396.138 131.635 397.423 131.67C398.732 131.693 400.033 131.879 401.296 132.223C401.405 131.321 401.507 130.413 401.609 129.504C401.689 128.843 395.698 128.778 394.962 128.923C393.026 129.315 393.979 131.38 393.659 132.317Z" fill="white"/>
<path d="M393.368 137.042C394.569 136.575 395.851 136.355 397.139 136.395C398.448 136.418 399.749 136.604 401.012 136.947C401.114 136.039 401.216 135.137 401.325 134.229C401.398 133.567 395.414 133.502 394.671 133.647C392.742 134.04 393.696 136.104 393.368 137.042Z" fill="#F7444E"/>
<path opacity="0.9" d="M393.368 137.042C394.569 136.575 395.851 136.355 397.139 136.395C398.448 136.418 399.749 136.604 401.012 136.947C401.114 136.039 401.216 135.137 401.325 134.229C401.398 133.567 395.414 133.502 394.671 133.647C392.742 134.04 393.696 136.104 393.368 137.042Z" fill="white"/>
<path d="M386.598 117.527C386.626 117.454 386.668 117.387 386.721 117.33C386.826 117.254 386.956 117.221 387.085 117.236L391.854 117.163C390.848 119.346 390.319 121.717 390.303 124.119C389.131 124.068 385.061 124.119 385.061 124.119C384.275 122.869 386.088 118.748 386.598 117.527Z" fill="#F7444E"/>
<path opacity="0.9" d="M386.598 117.527C386.626 117.454 386.668 117.387 386.721 117.33C386.826 117.254 386.956 117.221 387.085 117.236L391.854 117.163C390.848 119.346 390.319 121.717 390.303 124.119C389.131 124.068 385.061 124.119 385.061 124.119C384.275 122.869 386.088 118.748 386.598 117.527Z" fill="white"/>
<path d="M378.451 116.945C378.477 116.869 378.519 116.799 378.575 116.742C378.68 116.671 378.806 116.637 378.932 116.647L383.708 116.575C382.702 118.757 382.173 121.128 382.157 123.53C380.985 123.479 376.915 123.53 376.915 123.53C376.129 122.287 377.942 118.166 378.451 116.945Z" fill="#F7444E"/>
<path opacity="0.9" d="M378.451 116.945C378.477 116.869 378.519 116.799 378.575 116.742C378.68 116.671 378.806 116.637 378.932 116.647L383.708 116.575C382.702 118.757 382.173 121.128 382.157 123.53C380.985 123.479 376.915 123.53 376.915 123.53C376.129 122.287 377.942 118.166 378.451 116.945Z" fill="white"/>
<path d="M371.754 116.924C371.771 116.855 371.798 116.788 371.834 116.727C371.862 116.694 371.898 116.669 371.939 116.652C371.979 116.636 372.023 116.629 372.067 116.633H375.073C374.389 118.883 374.019 121.216 373.974 123.567C373.246 123.501 370.669 123.567 370.669 123.567C370.196 122.237 371.412 118.108 371.754 116.924Z" fill="#F7444E"/>
<path opacity="0.9" d="M371.754 116.924C371.771 116.855 371.798 116.788 371.834 116.727C371.862 116.694 371.898 116.669 371.939 116.652C371.979 116.636 372.023 116.629 372.067 116.633H375.073C374.389 118.883 374.019 121.216 373.974 123.567C373.246 123.501 370.669 123.567 370.669 123.567C370.196 122.237 371.412 118.108 371.754 116.924Z" fill="white"/>
<g opacity="0.2">
<path d="M350.765 123.065C350.677 124.048 350.395 125.004 349.936 125.878C349.415 126.976 348.796 128.024 348.086 129.01C351.668 129.083 354.376 129.25 355.723 129.054C357.126 127.099 357.701 124.67 357.325 122.295C355.206 122.92 352.629 122.426 350.438 122.956L350.765 123.065Z" fill="black"/>
</g>
<path d="M350.809 122.251C350.574 123.232 350.159 124.161 349.586 124.991C348.912 126.047 348.148 127.041 347.3 127.964C349.851 128.209 352.417 128.241 354.973 128.058C356.677 126.227 357.427 124.424 357.325 122.295C354.784 122.295 350.809 122.251 350.809 122.251Z" fill="#F7444E"/>
<g opacity="0.9">
<path d="M350.809 122.251C350.574 123.232 350.159 124.161 349.586 124.991C348.912 126.047 348.148 127.041 347.3 127.964C349.851 128.209 352.417 128.241 354.973 128.058C356.677 126.227 357.427 124.424 357.325 122.295C354.784 122.295 350.809 122.251 350.809 122.251Z" fill="white"/>
</g>
<g opacity="0.2">
<path d="M360.608 122.411C360.521 123.501 360.24 124.567 359.778 125.558C359.262 126.778 358.643 127.952 357.929 129.069C361.518 129.141 364.219 129.33 365.566 129.112C366.982 126.86 367.549 124.178 367.167 121.546C365.049 122.273 362.472 121.692 360.288 122.273L360.608 122.411Z" fill="black"/>
</g>
<path d="M360.608 121.502C360.381 122.586 359.967 123.621 359.385 124.562C358.718 125.735 357.956 126.85 357.106 127.898C359.653 128.168 362.219 128.202 364.772 128C366.378 126.243 367.224 123.923 367.124 121.546C364.597 121.546 360.608 121.502 360.608 121.502Z" fill="#F7444E"/>
<g opacity="0.9">
<path d="M360.608 121.502C360.381 122.586 359.967 123.621 359.385 124.562C358.718 125.735 357.956 126.85 357.106 127.898C359.653 128.168 362.219 128.202 364.772 128C366.378 126.243 367.224 123.923 367.124 121.546C364.597 121.546 360.608 121.502 360.608 121.502Z" fill="white"/>
</g>
<path d="M429.608 156.186H417.749L421.469 144.237L422.008 142.485H424.694L429.608 156.186Z" fill="#F7444E"/>
<path opacity="0.2" d="M429.608 156.186H417.749L421.469 144.237L422.008 142.485H424.694L429.608 156.186Z" fill="black"/>
<path d="M422.008 142.485L421.469 144.237L417.749 156.186L406.785 156.026L403.262 144.237L402.716 142.485H422.008Z" fill="#E0E0E0"/>
<path d="M422.008 142.485L421.469 144.237L417.749 156.186L395.232 155.859L400.029 142.485H422.008Z" fill="#F7444E"/>
<path opacity="0.8" d="M422.008 142.485L421.469 144.237L417.749 156.186L395.232 155.859L400.029 142.485H422.008Z" fill="white"/>
<path d="M422.008 142.485L421.469 144.237H399.41L400.029 142.485H422.008Z" fill="#F7444E"/>
<path d="M402.832 149.913H397.889L399.614 145.051L404.346 145.102L402.832 149.913ZM398.464 149.513H402.541L403.8 145.501L399.898 145.458L398.464 149.513Z" fill="#F7444E"/>
<path d="M408.328 149.913H403.385L405.111 145.051L409.843 145.102L408.328 149.913ZM403.96 149.513H408.037L409.289 145.501L405.395 145.458L403.96 149.513Z" fill="#F7444E"/>
<path d="M413.861 149.913H408.918L410.643 145.051L415.368 145.102L413.861 149.913ZM409.493 149.513H413.57L414.829 145.501L410.935 145.458L409.493 149.513Z" fill="#F7444E"/>
<path d="M419.394 149.913H414.48L416.205 145.051L420.93 145.102L419.394 149.913ZM415.026 149.513H419.103L420.362 145.501L416.467 145.458L415.026 149.513Z" fill="#F7444E"/>
<path d="M401.078 155.073H396.127L397.853 150.211L402.585 150.262L401.078 155.073ZM396.71 154.674H400.786L402.046 150.662L398.144 150.618L396.71 154.674Z" fill="#F7444E"/>
<path d="M406.603 155.073H401.66L403.385 150.211L408.117 150.262L406.603 155.073ZM402.235 154.674H406.312L407.564 150.662L403.669 150.618L402.235 154.674Z" fill="#F7444E"/>
<path d="M412.136 155.073H407.2L408.925 150.211L413.65 150.262L412.136 155.073ZM407.768 154.674H411.845L413.104 150.662L409.209 150.618L407.768 154.674Z" fill="#F7444E"/>
<path d="M417.669 155.073H412.726L414.451 150.211L419.176 150.262L417.669 155.073ZM413.301 154.674H417.392L418.652 150.662L414.757 150.618L413.301 154.674Z" fill="#F7444E"/>
<path d="M402.461 149.673C402.332 148.83 402.125 148 401.842 147.195C401.682 146.781 400.051 144.237 399.731 145.792C399.636 146.25 400.604 147.362 400.866 147.733C401.349 148.418 401.882 149.067 402.461 149.673Z" fill="#F7444E"/>
<path d="M398.908 148.634C398.857 148.787 398.872 149.019 399.032 149.026C399.09 149.025 399.146 149.004 399.192 148.968C400.189 148.314 400.939 147.311 402.002 146.788C402.518 146.624 402.978 146.322 403.334 145.916C403.041 145.882 402.743 145.929 402.475 146.054C401.107 146.563 399.44 147.122 398.908 148.634Z" fill="#F7444E"/>
<path d="M413.497 149.79C413.372 148.946 413.165 148.115 412.878 147.311C412.718 146.897 411.095 144.353 410.767 145.909C410.673 146.366 411.641 147.478 411.903 147.849C412.386 148.534 412.919 149.183 413.497 149.79Z" fill="#F7444E"/>
<path d="M409.945 148.779C409.894 148.932 409.945 149.164 410.068 149.172C410.127 149.17 410.183 149.15 410.229 149.114C411.226 148.459 411.976 147.456 413.039 146.933C413.553 146.766 414.013 146.465 414.371 146.061C414.077 146.023 413.779 146.071 413.512 146.199C412.143 146.679 410.476 147.238 409.945 148.779Z" fill="#F7444E"/>
<path d="M405.853 147.253C406.848 147.767 407.664 148.567 408.197 149.55C407.949 148.257 407.455 147.023 406.741 145.916C405.649 144.273 404.426 146.454 405.853 147.253Z" fill="#F7444E"/>
<path d="M416.293 147.253C417.287 147.767 418.104 148.567 418.637 149.55C418.389 148.257 417.894 147.023 417.181 145.916C416.089 144.273 414.866 146.454 416.293 147.253Z" fill="#F7444E"/>
<path d="M406.581 146.693C405.877 146.982 405.286 147.492 404.899 148.147C404.768 148.372 404.696 148.699 404.899 148.874C405.103 149.048 405.475 148.83 405.693 148.612C406.188 148.118 408.314 146.897 408.299 146.279C407.699 146.257 407.105 146.4 406.581 146.693Z" fill="#F7444E"/>
<path d="M417.792 146.694C417.088 146.982 416.497 147.492 416.111 148.147C415.987 148.372 415.907 148.7 416.111 148.874C416.315 149.048 416.679 148.83 416.897 148.612C417.392 148.118 419.518 146.897 419.503 146.279C418.906 146.259 418.314 146.402 417.792 146.694Z" fill="#F7444E"/>
<path d="M401.733 152.137C401.347 149.71 398.449 149.579 397.241 151.468C396.953 151.945 396.781 152.483 396.739 153.038C396.691 153.392 396.721 153.751 396.826 154.092C396.994 154.484 397.284 154.811 397.652 155.027C398.02 155.243 398.447 155.335 398.872 155.291C399.723 155.185 400.503 154.762 401.056 154.107C401.39 153.781 401.62 153.364 401.718 152.908C401.77 152.654 401.775 152.393 401.733 152.137ZM400.852 153.823C400.666 154.103 400.416 154.334 400.124 154.499C399.875 154.678 399.593 154.805 399.294 154.873C398.995 154.942 398.686 154.951 398.384 154.899C398.049 154.825 397.742 154.66 397.496 154.421C397.25 154.182 397.076 153.879 396.993 153.547C396.841 152.457 397.809 150.742 399.243 150.742C401.267 150.742 401.624 152.544 400.852 153.823Z" fill="#263238"/>
<path d="M303.431 136.278L321.631 191.683H281.831L274.952 133.306H299.325C300.236 133.305 301.124 133.593 301.861 134.127C302.599 134.66 303.148 135.414 303.431 136.278Z" fill="#263238"/>
<path d="M309.648 184.792H349.069C350.889 184.792 352.36 186.675 352.36 189.001V191.908C352.36 194.234 350.904 196.116 349.069 196.116H288.536L285.369 185.141L309.648 184.792Z" fill="#263238"/>
<g opacity="0.2">
<path d="M309.648 184.792H349.069C350.889 184.792 352.36 186.675 352.36 189.001V191.908C352.36 194.234 350.904 196.116 349.069 196.116H288.536L285.369 185.141L309.648 184.792Z" fill="white"/>
</g>
<path d="M278.271 136.562L283.367 181.071C283.565 182.775 284.384 184.347 285.667 185.487C286.951 186.628 288.609 187.257 290.327 187.257H317.787C318.662 187.257 319.501 187.603 320.119 188.221C320.737 188.838 321.085 189.676 321.085 190.549V192.846C321.085 193.719 320.737 194.556 320.119 195.174C319.501 195.791 318.662 196.138 317.787 196.138H284.568C282.831 196.138 281.156 195.492 279.869 194.328C278.581 193.163 277.773 191.563 277.601 189.837L272.265 135.93C272.232 135.6 272.268 135.266 272.371 134.951C272.475 134.636 272.644 134.346 272.867 134.1C273.09 133.854 273.362 133.657 273.666 133.523C273.97 133.389 274.299 133.32 274.631 133.32C275.532 133.315 276.403 133.644 277.076 134.242C277.748 134.841 278.174 135.668 278.271 136.562Z" fill="#263238"/>
<path opacity="0.3" d="M278.271 136.562L283.367 181.071C283.565 182.775 284.384 184.347 285.667 185.487C286.951 186.628 288.609 187.257 290.327 187.257H317.787C318.662 187.257 319.501 187.603 320.119 188.221C320.737 188.838 321.085 189.676 321.085 190.549V192.846C321.085 193.719 320.737 194.556 320.119 195.174C319.501 195.791 318.662 196.138 317.787 196.138H284.568C282.831 196.138 281.156 195.492 279.869 194.328C278.581 193.163 277.773 191.563 277.601 189.837L272.265 135.93C272.232 135.6 272.268 135.266 272.371 134.951C272.475 134.636 272.644 134.346 272.867 134.1C273.09 133.854 273.362 133.657 273.666 133.523C273.97 133.389 274.299 133.32 274.631 133.32C275.532 133.315 276.403 133.644 277.076 134.242C277.748 134.841 278.174 135.668 278.271 136.562Z" fill="white"/>
<path d="M288.536 249.02C288.536 249.646 288.35 250.257 288.002 250.777C287.654 251.297 287.16 251.702 286.581 251.941C286.002 252.18 285.366 252.243 284.751 252.121C284.137 251.999 283.573 251.698 283.13 251.256C282.687 250.814 282.385 250.25 282.263 249.637C282.141 249.024 282.204 248.388 282.444 247.81C282.683 247.233 283.089 246.739 283.61 246.391C284.131 246.044 284.743 245.859 285.369 245.859C286.209 245.859 287.015 246.192 287.609 246.785C288.202 247.378 288.536 248.182 288.536 249.02Z" fill="#F7444E"/>
<path d="M335.776 249.02C335.776 249.646 335.962 250.257 336.31 250.777C336.658 251.297 337.152 251.702 337.731 251.941C338.309 252.18 338.946 252.243 339.561 252.121C340.175 251.999 340.739 251.698 341.182 251.256C341.625 250.814 341.926 250.25 342.049 249.637C342.171 249.024 342.108 248.388 341.868 247.81C341.629 247.233 341.223 246.739 340.702 246.391C340.181 246.044 339.569 245.859 338.943 245.859C338.103 245.859 337.297 246.192 336.703 246.785C336.11 247.378 335.776 248.182 335.776 249.02Z" fill="#F7444E"/>
<path d="M309.073 248.01C309.073 248.635 309.259 249.247 309.607 249.766C309.955 250.286 310.449 250.692 311.028 250.931C311.607 251.17 312.243 251.233 312.858 251.111C313.472 250.989 314.036 250.688 314.479 250.246C314.922 249.803 315.224 249.24 315.346 248.627C315.468 248.013 315.405 247.378 315.165 246.8C314.926 246.222 314.52 245.729 313.999 245.381C313.478 245.034 312.866 244.848 312.24 244.848C311.4 244.848 310.594 245.181 310 245.774C309.407 246.367 309.073 247.171 309.073 248.01Z" fill="#F7444E"/>
<path d="M342.692 243.605C342.648 243.951 342.482 244.27 342.223 244.503C341.963 244.737 341.629 244.87 341.28 244.877L311.286 244.412L283.207 245.139C282.858 245.131 282.523 244.998 282.264 244.765C282.005 244.532 281.838 244.213 281.795 243.867C281.709 243.476 281.774 243.068 281.978 242.724C282.182 242.38 282.51 242.126 282.894 242.014L298.233 238.634C299.817 238.298 301.433 238.128 303.052 238.125H319.534C321.154 238.128 322.769 238.298 324.354 238.634L341.585 241.759C341.969 241.871 342.295 242.124 342.501 242.466C342.706 242.808 342.774 243.215 342.692 243.605Z" fill="#263238"/>
<g opacity="0.3">
<path d="M342.692 243.605C342.648 243.951 342.482 244.27 342.223 244.503C341.963 244.737 341.629 244.87 341.28 244.877L311.286 244.412L283.207 245.139C282.858 245.131 282.523 244.998 282.264 244.765C282.005 244.532 281.838 244.213 281.795 243.867C281.709 243.476 281.774 243.068 281.978 242.724C282.182 242.38 282.51 242.126 282.894 242.014L298.233 238.634C299.817 238.298 301.433 238.128 303.052 238.125H319.534C321.154 238.128 322.769 238.298 324.354 238.634L341.585 241.759C341.969 241.871 342.295 242.124 342.501 242.466C342.706 242.808 342.774 243.215 342.692 243.605Z" fill="white"/>
</g>
<path d="M316.382 209.3H306.183V238.125H316.382V209.3Z" fill="#263238"/>
<path d="M314.926 195.884H307.653V209.293H314.926V195.884Z" fill="#263238"/>
<path opacity="0.3" d="M307.653 199.823L314.926 201.894V195.884H307.653V199.823Z" fill="black"/>
<path d="M288.536 249.02C288.536 249.646 288.35 250.257 288.002 250.777C287.654 251.297 287.16 251.702 286.581 251.941C286.002 252.18 285.366 252.243 284.751 252.121C284.137 251.999 283.573 251.698 283.13 251.256C282.687 250.814 282.385 250.25 282.263 249.637C282.141 249.024 282.204 248.388 282.444 247.81C282.683 247.233 283.089 246.739 283.61 246.391C284.131 246.044 284.743 245.859 285.369 245.859C286.209 245.859 287.015 246.192 287.609 246.785C288.202 247.378 288.536 248.182 288.536 249.02Z" fill="#263238"/>
<path d="M335.776 249.02C335.776 249.646 335.962 250.257 336.31 250.777C336.658 251.297 337.152 251.702 337.731 251.941C338.309 252.18 338.946 252.243 339.561 252.121C340.175 251.999 340.739 251.698 341.182 251.256C341.625 250.814 341.926 250.25 342.049 249.637C342.171 249.024 342.108 248.388 341.868 247.81C341.629 247.233 341.223 246.739 340.702 246.391C340.181 246.044 339.569 245.859 338.943 245.859C338.103 245.859 337.297 246.192 336.703 246.785C336.11 247.378 335.776 248.182 335.776 249.02Z" fill="#263238"/>
<path d="M309.073 248.01C309.073 248.635 309.259 249.247 309.607 249.766C309.955 250.286 310.449 250.692 311.028 250.931C311.607 251.17 312.243 251.233 312.858 251.111C313.472 250.989 314.036 250.688 314.479 250.246C314.922 249.803 315.224 249.24 315.346 248.627C315.468 248.013 315.405 247.378 315.165 246.8C314.926 246.222 314.52 245.729 313.999 245.381C313.478 245.034 312.866 244.848 312.24 244.848C311.4 244.848 310.594 245.181 310 245.774C309.407 246.367 309.073 247.171 309.073 248.01Z" fill="#263238"/>
<path d="M184.432 143.801C184.432 143.801 178.695 151.069 179.62 163.49C180.545 175.911 205.231 168.876 205.231 168.876C205.231 168.876 215.962 153.329 222.623 151.614L216.704 145.48C212.577 145.727 209.512 141.286 184.432 143.801Z" fill="#F7444E"/>
<path d="M207.852 97.2637C209.504 101.159 211.23 104.924 213.072 108.711C214.913 112.498 216.792 116.233 218.896 119.991L219.74 121.444C220.271 122.359 220.979 123.16 221.822 123.799C223.169 124.793 224.738 125.444 226.394 125.696C228.857 126.061 231.364 126.015 233.812 125.558C238.168 124.781 242.406 123.448 246.421 121.59L244.965 117.229L241.988 117.701C240.983 117.854 239.978 117.941 238.988 118.087C237.044 118.329 235.087 118.47 233.128 118.508C231.426 118.583 229.722 118.412 228.068 117.999C227.658 117.912 227.278 117.716 226.969 117.433C226.969 117.382 227.035 117.433 227.035 117.433L226.423 116.146C224.749 112.468 223.074 108.638 221.414 104.881C219.755 101.123 218.044 97.2928 216.318 93.5425L207.852 97.2637Z" fill="#FFB573"/>
<path d="M251.626 120.972C252.15 120.856 252.645 120.636 253.082 120.325C254.648 118.872 253.723 116.415 252.253 114.86C252.194 114.794 250.549 113.283 250.484 113.217C248.904 111.764 248.03 113.326 246.581 114.903L243.669 118.05L245.453 121.823C247.086 121.817 248.713 121.639 250.309 121.292C250.68 121.219 251.139 121.11 251.626 120.972Z" fill="#FFB573"/>
<path d="M219.929 95.7447C223.293 100.927 222.71 107.788 222.71 107.788L214.615 109.539C214.615 109.539 205.602 100.149 207.248 95.5775C209.075 90.5335 216.369 90.25 219.929 95.7447Z" fill="#263238"/>
<path opacity="0.2" d="M214.615 109.539L219.762 108.427C218.544 104.873 216.904 101.476 214.877 98.3103C211.827 93.7968 209.643 92.4958 207.218 93.775C206.454 100.04 214.615 109.539 214.615 109.539Z" fill="black"/>
<path d="M192.156 90.9041C191.326 90.9841 182.969 93.0119 185.073 100.905C193.809 131.852 188.21 129.25 184.439 143.786L216.712 145.465C216.712 145.465 214.528 123.247 215.94 119.3C218.357 112.665 218.087 107.824 215.627 101.167C212.911 93.8186 211.863 91.8272 211.863 91.8272C208.791 91.1513 198.461 88.542 192.156 90.9041Z" fill="#263238"/>
<path opacity="0.2" d="M193.539 114.831C193.088 110.92 186.572 96.1008 187.861 94.2911C188.866 93.7605 193.423 94.3565 195.964 97.1983C201.751 110.731 193.539 114.831 193.539 114.831Z" fill="black"/>
<path d="M177.654 241.215L161.078 253.643C160.401 253.323 155.501 247.952 155.501 247.952L169.872 235.785L177.654 241.215Z" fill="#E29471"/>
<path d="M162.155 255.198C162.134 255.163 162.123 255.123 162.123 255.082C162.123 255.041 162.134 255.001 162.155 254.966C162.183 254.933 162.22 254.909 162.262 254.898C162.303 254.886 162.347 254.887 162.388 254.9C162.527 254.944 165.846 256.049 166.516 257.393C166.585 257.516 166.629 257.651 166.644 257.791C166.659 257.931 166.645 258.073 166.603 258.207C166.57 258.365 166.488 258.508 166.37 258.618C166.251 258.727 166.101 258.797 165.941 258.818C165.344 258.905 164.485 258.207 163.757 257.364C163.158 256.692 162.622 255.967 162.155 255.198ZM165.97 257.262C165.064 256.469 164.01 255.862 162.869 255.474C163.771 256.819 165.257 258.454 165.948 258.382C166.043 258.382 166.167 258.323 166.261 258.04C166.286 257.96 166.294 257.875 166.285 257.791C166.276 257.708 166.251 257.627 166.21 257.553C166.143 257.437 166.065 257.327 165.977 257.226L165.97 257.262Z" fill="#F7444E"/>
<path d="M162.155 255.06C162.158 255.024 162.171 254.988 162.191 254.958C162.211 254.927 162.239 254.903 162.272 254.886C162.359 254.835 164.252 253.432 165.679 253.657C165.879 253.697 166.07 253.775 166.24 253.889C166.41 254.002 166.556 254.148 166.669 254.319C166.798 254.443 166.877 254.61 166.89 254.788C166.904 254.966 166.851 255.143 166.742 255.285C166.123 256.063 163.335 255.772 162.279 255.285L162.206 255.234L162.155 255.06ZM165.591 254.093C164.595 254.11 163.628 254.435 162.825 255.024C164.034 255.387 166.123 255.482 166.465 255.024C166.465 254.98 166.589 254.871 166.378 254.573L166.268 254.5C166.105 254.282 165.862 254.136 165.591 254.093Z" fill="#F7444E"/>
<path d="M162.461 253.127L161.005 252.444C160.212 252.068 159.509 251.527 158.943 250.857C158.377 250.188 157.96 249.406 157.722 248.562L157.154 246.571C157.046 246.434 156.893 246.341 156.722 246.308C156.551 246.274 156.373 246.303 156.222 246.389L149.743 249.478C149.117 249.827 149.328 251.39 149.379 251.448C152.225 255.765 159.003 264.53 161.362 267.329C163.72 270.127 166.793 268.172 166.079 266.813C162.891 260.736 162.818 257.495 162.92 254.624C162.958 254.085 162.794 253.552 162.461 253.127Z" fill="#263238"/>
<path d="M179.627 163.49C179.411 165.004 179.377 166.539 179.525 168.062C180.151 176.115 185.262 202.578 186.645 212.796C186.75 213.821 186.591 214.856 186.183 215.802C185.775 216.748 185.133 217.575 184.316 218.204C179.642 222.223 171.372 227.652 162.002 240.946C162.119 246.76 162.687 247.487 167.972 249.587C167.972 249.587 194.537 229.578 198.664 223.713C204.743 215.064 204.882 178.426 205.216 168.876C205.413 163.454 205.58 156.992 201.475 153.504C199.189 151.541 181.171 148.634 179.627 163.49Z" fill="#F7444E"/>
<path d="M279.611 223.015L287.022 242.392C286.527 242.937 280.739 247.872 279.953 246.026C277.536 240.451 266.791 222.216 266.791 222.216L279.611 223.015Z" fill="#E29471"/>
<path d="M288.056 241.505C288.019 241.526 287.978 241.537 287.936 241.537C287.893 241.537 287.852 241.526 287.815 241.505C287.787 241.473 287.766 241.434 287.756 241.393C287.746 241.351 287.746 241.307 287.757 241.265C287.815 241.127 289.017 237.849 290.385 237.224C290.51 237.159 290.647 237.121 290.787 237.111C290.927 237.101 291.068 237.12 291.201 237.166C291.358 237.202 291.499 237.287 291.605 237.409C291.711 237.53 291.776 237.682 291.79 237.842C291.863 238.438 291.135 239.252 290.269 239.964C289.581 240.547 288.84 241.062 288.056 241.505ZM290.24 237.769C289.426 238.65 288.795 239.682 288.383 240.808C289.752 239.943 291.441 238.511 291.39 237.82C291.39 237.733 291.332 237.602 291.055 237.501C290.975 237.474 290.891 237.464 290.807 237.47C290.724 237.476 290.642 237.499 290.567 237.537C290.446 237.601 290.332 237.676 290.225 237.762L290.24 237.769Z" fill="#F7444E"/>
<path d="M287.917 241.505C287.88 241.502 287.844 241.489 287.813 241.467C287.782 241.446 287.758 241.416 287.743 241.382C287.692 241.294 286.359 239.361 286.621 237.944C286.666 237.745 286.751 237.557 286.87 237.391C286.988 237.225 287.139 237.084 287.313 236.977C287.441 236.853 287.61 236.779 287.789 236.771C287.967 236.763 288.143 236.821 288.281 236.934C289.009 237.573 288.66 240.35 288.157 241.389L288.107 241.462L287.917 241.505ZM287.08 238.031C287.063 239.024 287.358 239.998 287.925 240.815C288.325 239.63 288.485 237.544 288.012 237.181C287.968 237.181 287.859 237.057 287.553 237.253L287.48 237.362C287.264 237.524 287.12 237.764 287.08 238.031Z" fill="#F7444E"/>
<path d="M286.934 240.938L279.108 244.071C278.947 244.134 278.813 244.253 278.732 244.407C278.65 244.56 278.626 244.737 278.664 244.907L279.727 251.993C279.88 252.72 281.438 252.945 281.511 252.916C286.483 251.462 296.857 247.545 300.228 246.12C303.598 244.696 302.616 241.178 301.109 241.462C294.353 242.726 291.23 241.854 288.507 240.916C288 240.72 287.436 240.728 286.934 240.938Z" fill="#263238"/>
<path d="M236.12 190.84C238.013 192.155 239.804 193.42 241.427 194.605C256.089 205.332 264.439 224.723 270.387 235.306C275.796 237.944 283.316 232.704 285.602 231.09C285.602 231.09 269.586 197.17 264.221 189.793C251.219 172.016 238.297 160.358 218.357 149.201C215.759 147.742 212.817 147.001 209.837 147.056C206.856 147.111 203.944 147.959 201.402 149.514C199.357 150.695 197.463 152.117 195.76 153.751C195.032 154.536 193.707 159.035 199.837 165.155C205.333 170.649 223.213 181.929 236.091 190.862" fill="#F7444E"/>
<path opacity="0.1" d="M205.238 168.876C203.957 166.601 205.828 158.911 205.828 158.911C205.828 158.911 230.827 183.056 232.036 187.983L210.56 173.447L205.238 168.876Z" fill="black"/>
<path d="M255.514 215.115C255.454 215.114 255.395 215.1 255.342 215.072C255.289 215.044 255.243 215.004 255.208 214.955C254.48 213.807 253.709 212.695 252.966 211.648C252.938 211.609 252.919 211.565 252.908 211.518C252.897 211.471 252.896 211.423 252.904 211.376C252.912 211.328 252.93 211.283 252.955 211.243C252.981 211.202 253.014 211.167 253.053 211.139C253.093 211.112 253.137 211.092 253.184 211.081C253.23 211.071 253.279 211.069 253.326 211.078C253.374 211.086 253.419 211.103 253.459 211.128C253.5 211.154 253.535 211.187 253.563 211.226C254.291 212.288 255.07 213.407 255.82 214.555C255.846 214.595 255.865 214.64 255.874 214.687C255.883 214.734 255.882 214.782 255.872 214.829C255.862 214.876 255.842 214.92 255.815 214.959C255.787 214.999 255.751 215.032 255.711 215.057C255.653 215.098 255.584 215.118 255.514 215.115Z" fill="#F7444E"/>
<path d="M250.877 208.581C250.821 208.582 250.765 208.57 250.715 208.546C250.664 208.522 250.62 208.487 250.585 208.443C247.266 204.042 243.345 200.128 238.937 196.814C237.416 195.702 235.683 194.474 233.638 193.056C233.564 192.999 233.515 192.916 233.501 192.824C233.487 192.732 233.508 192.638 233.562 192.562C233.615 192.485 233.696 192.432 233.787 192.413C233.878 192.394 233.973 192.411 234.053 192.46C236.105 193.914 237.838 195.113 239.367 196.233C243.823 199.574 247.788 203.523 251.146 207.963C251.191 208.016 251.221 208.08 251.23 208.149C251.239 208.218 251.228 208.288 251.197 208.35C251.167 208.413 251.119 208.465 251.06 208.501C251 208.537 250.932 208.555 250.862 208.552L250.877 208.581Z" fill="#F7444E"/>
<path d="M203.848 221.867H203.739C203.647 221.837 203.57 221.772 203.525 221.687C203.48 221.601 203.471 221.502 203.498 221.409C203.709 220.762 203.906 220.043 204.103 219.28C204.114 219.233 204.135 219.19 204.164 219.152C204.193 219.113 204.229 219.081 204.27 219.057C204.311 219.032 204.357 219.017 204.405 219.01C204.452 219.003 204.5 219.006 204.547 219.018C204.593 219.029 204.636 219.049 204.675 219.077C204.713 219.105 204.745 219.141 204.769 219.181C204.794 219.222 204.81 219.267 204.817 219.314C204.823 219.361 204.821 219.408 204.809 219.454C204.612 220.232 204.408 220.966 204.197 221.635C204.169 221.704 204.121 221.763 204.059 221.805C203.996 221.846 203.923 221.868 203.848 221.867Z" fill="#F7444E"/>
<path d="M190.467 236.992C190.413 236.992 190.36 236.981 190.31 236.958C190.261 236.936 190.218 236.902 190.183 236.861C190.122 236.785 190.094 236.689 190.103 236.592C190.113 236.496 190.16 236.407 190.234 236.345C196.408 231.221 200.201 227.667 201.525 225.792C201.795 225.419 202.038 225.028 202.253 224.621C202.3 224.537 202.377 224.473 202.47 224.445C202.562 224.416 202.662 224.425 202.749 224.469C202.833 224.514 202.896 224.59 202.925 224.681C202.954 224.772 202.945 224.871 202.901 224.956C202.688 225.391 202.445 225.811 202.173 226.213C200.819 228.139 196.975 231.737 190.758 236.904C190.719 236.939 190.672 236.964 190.622 236.979C190.572 236.994 190.519 236.999 190.467 236.992Z" fill="#F7444E"/>
<path d="M201.307 83.7597C201.875 86.0927 204.001 87.6917 206.046 88.9491C207.641 89.923 209.395 90.8533 211.259 90.7879C211.995 90.7265 212.712 90.5162 213.364 90.1699C214.017 89.8237 214.592 89.3486 215.055 88.7735C215.518 88.1984 215.859 87.5354 216.057 86.8247C216.256 86.114 216.308 85.3704 216.209 84.6391C216.482 85.0348 216.835 85.3687 217.246 85.6191C217.657 85.8695 218.116 86.0308 218.593 86.0925C219.07 86.1542 219.555 86.1149 220.016 85.9772C220.477 85.8395 220.904 85.6065 221.269 85.2933C222.652 83.9559 222.616 81.7464 222.266 79.8568C221.118 73.8358 217.99 68.3697 213.377 64.325C212.314 65.7131 210.203 65.4515 209.242 65.1971C208.901 65.1167 208.571 64.9946 208.26 64.8337C207.314 64.6529 206.336 64.783 205.471 65.2044C204.124 66.956 203.637 69.2382 203.193 71.4258C202.649 74.1005 202.105 76.7775 201.562 79.457C201.174 80.8572 201.087 82.3236 201.307 83.7597Z" fill="#263238"/>
<path d="M199.72 79.4861C199.866 83.3527 199.72 88.9345 196.721 91.0713C196.721 91.0713 196.262 94.9379 206.279 100.738C210.975 95.8319 208.463 92.9029 208.463 92.9029C204.401 91.2458 204.823 89.5523 205.966 86.7396L199.72 79.4861Z" fill="#FFB573"/>
<path opacity="0.2" d="M202.283 82.4077L205.923 86.7685C205.634 87.4201 205.405 88.0963 205.238 88.7891C203.659 88.3094 201.343 86.5505 201.271 84.7553C201.402 83.8996 201.751 83.0915 202.283 82.4077Z" fill="black"/>
<path d="M195.825 72.2689C196.553 78.6938 196.728 81.4266 200.193 84.5592C205.362 89.2834 213.108 86.9721 214.316 80.46C215.394 74.5947 214.011 65.0372 207.553 62.8423C206.13 62.3403 204.602 62.2108 203.115 62.4661C201.628 62.7214 200.231 63.353 199.058 64.3006C197.884 65.2482 196.974 66.4801 196.413 67.8789C195.852 69.2777 195.66 70.7966 195.854 72.2907L195.825 72.2689Z" fill="#FFB573"/>
<path d="M209.497 80.2273C209.497 80.7651 209.759 81.2012 210.109 81.2158C210.458 81.2303 210.749 80.7869 210.764 80.2564C210.778 79.7258 210.502 79.2752 210.152 79.2679C209.803 79.2606 209.497 79.6895 209.497 80.2273Z" fill="#263238"/>
<path d="M206.199 73.4173C206.199 73.9406 206.534 74.3549 206.876 74.3403C207.218 74.3258 207.473 73.8752 207.451 73.3519C207.43 72.8286 207.117 72.4143 206.782 72.4288C206.447 72.4434 206.207 72.9158 206.199 73.4173Z" fill="#263238"/>
<path d="M212.14 73.1192C212.14 73.6498 212.475 74.0568 212.81 74.0423C213.144 74.0277 213.414 73.5771 213.392 73.0538C213.37 72.5305 213.057 72.1162 212.715 72.138C212.373 72.1598 212.096 72.5959 212.14 73.1192Z" fill="#263238"/>
<path d="M212.569 72.1744L213.807 71.7456C213.807 71.7456 213.217 72.7704 212.569 72.1744Z" fill="#263238"/>
<path d="M210.356 74.1658C210.895 75.3378 211.588 76.4329 212.416 77.4219C212.156 77.6247 211.854 77.7692 211.533 77.8457C211.211 77.9222 210.877 77.9289 210.553 77.8652L210.356 74.1658Z" fill="#ED893E"/>
<path d="M204.27 70.9825C204.324 71.0193 204.387 71.0391 204.452 71.0391C204.517 71.0391 204.581 71.0193 204.634 70.9825C205.046 70.6939 205.514 70.4939 206.008 70.395C206.502 70.2962 207.011 70.3007 207.502 70.4083C207.582 70.4257 207.666 70.4112 207.736 70.3677C207.805 70.3242 207.855 70.2553 207.874 70.1757C207.883 70.1366 207.885 70.0959 207.879 70.056C207.873 70.0161 207.859 69.9779 207.838 69.9434C207.817 69.9089 207.79 69.8789 207.757 69.8552C207.724 69.8315 207.687 69.8144 207.648 69.805C207.058 69.671 206.446 69.6666 205.854 69.7921C205.261 69.9176 204.704 70.17 204.219 70.5318C204.163 70.589 204.131 70.666 204.131 70.7462C204.131 70.8265 204.163 70.9035 204.219 70.9607L204.27 70.9825Z" fill="#263238"/>
<path d="M213.778 70.292C213.834 70.2975 213.89 70.2884 213.941 70.2654C213.992 70.2424 214.036 70.2065 214.069 70.1612C214.093 70.1288 214.11 70.092 214.12 70.0528C214.13 70.0137 214.132 69.973 214.126 69.9331C214.12 69.8933 214.106 69.855 214.085 69.8205C214.064 69.7861 214.036 69.7561 214.003 69.7324C213.614 69.4216 213.153 69.2124 212.663 69.1236C212.172 69.0348 211.667 69.0692 211.193 69.2236C211.156 69.235 211.122 69.2538 211.093 69.279C211.063 69.3041 211.039 69.335 211.022 69.3697C211.005 69.4044 210.995 69.4422 210.993 69.4809C210.992 69.5195 210.998 69.5581 211.011 69.5943C211.024 69.6317 211.045 69.6662 211.071 69.6958C211.098 69.7253 211.13 69.7492 211.166 69.7661C211.202 69.783 211.241 69.7926 211.281 69.7943C211.32 69.796 211.36 69.7898 211.397 69.776C211.77 69.6727 212.162 69.6583 212.541 69.734C212.921 69.8098 213.277 69.9735 213.581 70.2121C213.638 70.2562 213.706 70.2838 213.778 70.292Z" fill="#263238"/>
<path d="M206.622 72.5232L207.866 72.0872C207.866 72.0872 207.277 73.0465 206.622 72.5232Z" fill="#263238"/>
<path d="M214.819 65.7784C214.761 65.8583 212.3 66.9485 209.242 65.1606C208.929 64.9789 208.565 64.9498 208.267 64.7899C207.319 64.6086 206.338 64.7386 205.471 65.1606C205.253 65.2841 202.639 66.3453 202.312 70.975C201.78 78.4175 198.41 76.5714 197.944 76.4115C196.808 75.9972 196.204 75.1033 195.032 75.2559C194.82 75.2922 194.603 75.2922 194.391 75.2559C195.119 77.3927 195.898 79.4278 196.83 79.8856C203.622 83.1635 201.613 88.9707 199.815 89.8937C198.526 90.5624 193.117 91.093 189.128 86.6813C187.905 87.7933 185.917 87.5316 184.425 86.7612C183.287 86.1569 182.408 85.1602 181.951 83.9569C181.494 82.7535 181.491 81.4254 181.942 80.22C182.804 77.8248 184.382 75.7519 186.463 74.282C187.919 73.2863 189.601 72.5595 190.649 71.1495C190.952 70.7363 191.197 70.2839 191.377 69.8049C191.661 69.0781 192.003 68.3149 192.338 67.5808C192.384 67.4682 192.418 67.3513 192.44 67.232C192.972 65.5906 193.908 64.1087 195.163 62.922C197.026 61.105 201.074 59.695 204.416 59.6151C208.259 59.4843 213.305 62.2316 214.819 65.7784Z" fill="#263238"/>
<path d="M192.011 70.8151C192.062 70.2845 192.083 69.8267 192.091 69.6377C192.039 70.0281 192.012 70.4213 192.011 70.8151Z" fill="#263238"/>
<path d="M194.326 77.32C194.792 78.4528 195.686 79.3564 196.815 79.8348C198.33 80.4453 199.276 79.108 198.999 77.6108C198.752 76.2371 197.682 74.2602 196.087 74.2747C195.812 74.285 195.541 74.3497 195.29 74.4651C195.04 74.5804 194.814 74.7442 194.628 74.9469C194.441 75.1496 194.296 75.3873 194.202 75.6462C194.107 75.905 194.065 76.18 194.078 76.4552C194.093 76.7586 194.178 77.0545 194.326 77.32Z" fill="#FFB573"/>
<path d="M213.982 89.7629C215.838 89.4286 217.694 88.6582 218.706 87.081C221.618 82.5458 216.763 70.8152 210.88 64.7463L210.64 65.0516C216.464 71.0259 221.262 82.4949 218.422 86.9357C216.464 89.981 210.953 89.8429 209.177 89.5085L209.111 89.8647C210.73 90.0909 212.374 90.0565 213.982 89.7629Z" fill="#263238"/>
<path d="M192.243 71.5057L192.6 71.4403C192.156 69.0345 192.993 66.3962 194.944 64.0051C197.056 61.4249 200.12 59.6442 202.567 59.6442C205.377 59.5934 209.41 60.6036 211.637 62.9439L211.899 62.6968C209.599 60.2693 205.449 59.23 202.559 59.2808C200.011 59.3244 196.837 61.1415 194.668 63.7943C192.637 66.2436 191.778 68.9909 192.243 71.5057Z" fill="#263238"/>
<path d="M181.709 83.2219C183.538 84.7655 185.485 86.1628 187.533 87.401C189.402 88.6663 191.571 89.4183 193.823 89.5814C194.348 89.598 194.872 89.5591 195.388 89.4651C196.257 89.3363 197.088 89.0232 197.825 88.5468C198.562 88.0704 199.189 87.4417 199.662 86.7032C199.972 86.1563 200.169 85.5533 200.243 84.9294C200.316 84.3054 200.265 83.6731 200.091 83.0692C199.965 82.5669 199.736 82.096 199.419 81.6859C199.102 81.2757 198.704 80.9351 198.25 80.6853L198.089 80.9978C198.501 81.2289 198.861 81.5415 199.148 81.9164C199.435 82.2913 199.642 82.7207 199.756 83.1782C199.917 83.7364 199.964 84.3209 199.896 84.8975C199.827 85.4741 199.643 86.0312 199.356 86.5361C198.76 87.4231 197.944 88.1401 196.986 88.6166C196.029 89.0932 194.964 89.313 193.896 89.2543C191.707 89.093 189.598 88.3612 187.781 87.1321C185.682 85.8719 183.688 84.4452 181.819 82.8657L181.709 83.2219Z" fill="#263238"/>
<path d="M186.179 96.1662C186.82 100.97 192.149 121.546 193.234 123.894C193.386 124.214 193.539 124.541 193.721 124.868C193.903 125.195 194.078 125.529 194.304 125.878L194.639 126.416C194.799 126.641 194.959 126.881 195.126 127.077C195.443 127.471 195.783 127.845 196.146 128.196C197.365 129.307 198.763 130.207 200.281 130.857C202.735 131.913 205.313 132.658 207.954 133.073C212.807 133.874 217.736 134.118 222.645 133.8L222.9 128.713L219.573 127.986C218.459 127.739 217.352 127.455 216.253 127.201C214.069 126.656 211.885 126.081 209.832 125.391C207.881 124.802 204.772 123.937 202.989 122.978C202.376 122.636 201.825 122.193 201.358 121.67C201.308 121.606 201.264 121.538 201.227 121.466C201.224 121.447 201.224 121.427 201.227 121.408L201.118 121.197C201.03 121.023 200.95 120.841 200.878 120.66C200.805 120.478 195.425 98.6446 194.69 94.2039L186.179 96.1662Z" fill="#FFB573"/>
<path d="M222.011 129.156C223.049 127.853 224.236 126.678 225.549 125.653C226.14 125.17 226.849 124.854 227.602 124.737C229.961 124.373 232.451 124.01 232.538 128.334C232.538 128.443 233.092 130.275 233.099 130.377C233.303 132.753 231.017 133.117 228.636 133.32L222.281 133.756L222.011 129.156Z" fill="#FFB573"/>
<path d="M198.351 96.1225C200.594 103.427 197.893 103.34 198.162 107.795L189.215 110.019C189.215 110.019 184.301 105.891 183.558 100.665C183.397 99.3658 183.544 98.0469 183.989 96.8153C184.434 95.5837 185.163 94.474 186.117 93.5763C187.072 92.6786 188.225 92.0182 189.483 91.6486C190.74 91.279 192.068 91.2107 193.357 91.4491C194.554 91.6609 195.663 92.2154 196.55 93.0451C197.436 93.8749 198.062 94.944 198.351 96.1225Z" fill="#263238"/>
<path d="M196.846 105.884L194.112 106.501L194.291 107.288L197.025 106.671L196.846 105.884Z" fill="#F7444E"/>
<path d="M192.576 106.953L189.704 107.911L189.96 108.676L192.832 107.718L192.576 106.953Z" fill="#F7444E"/>
<path d="M223.25 106.676L220.791 107.218L220.948 107.928L223.408 107.385L223.25 106.676Z" fill="#F7444E"/>
<path d="M250.877 118.581C249.927 119.678 249.39 121.071 249.356 122.52C249.323 123.97 249.796 125.385 250.695 126.525L250.877 126.757V128.022H210.211V117.12H250.877V118.581Z" fill="#F7444E"/>
<path opacity="0.1" d="M250.877 118.581C249.927 119.678 249.39 121.071 249.356 122.52C249.323 123.97 249.796 125.385 250.695 126.525L250.877 126.757V128.022H233.048V117.12H250.877V118.581Z" fill="black"/>
<path d="M250.68 126.525L250.862 126.757H234.977V118.581H250.877C249.927 119.678 249.39 121.071 249.356 122.52C249.323 123.97 249.796 125.386 250.695 126.525H250.68Z" fill="#263238"/>
<path opacity="0.9" d="M250.68 126.525L250.862 126.757H234.977V118.581H250.877C249.927 119.678 249.39 121.071 249.356 122.52C249.323 123.97 249.796 125.386 250.695 126.525H250.68Z" fill="white"/>
<path d="M231.614 122.854C231.614 123.286 231.486 123.707 231.246 124.066C231.006 124.424 230.665 124.704 230.266 124.869C229.866 125.034 229.427 125.077 229.004 124.993C228.58 124.909 228.191 124.701 227.885 124.396C227.58 124.091 227.372 123.703 227.288 123.28C227.203 122.857 227.247 122.418 227.412 122.02C227.577 121.622 227.857 121.281 228.216 121.042C228.576 120.802 228.998 120.674 229.43 120.674C230.009 120.674 230.564 120.904 230.974 121.313C231.384 121.722 231.614 122.276 231.614 122.854Z" fill="white"/>
<path d="M231.119 122.854C231.119 123.192 231.018 123.523 230.83 123.803C230.642 124.084 230.375 124.303 230.063 124.432C229.75 124.562 229.406 124.596 229.074 124.53C228.742 124.464 228.437 124.301 228.198 124.062C227.959 123.823 227.796 123.519 227.73 123.188C227.664 122.856 227.698 122.513 227.827 122.201C227.957 121.889 228.176 121.622 228.457 121.434C228.739 121.247 229.07 121.146 229.408 121.146C229.862 121.146 230.297 121.326 230.618 121.647C230.938 121.967 231.119 122.401 231.119 122.854Z" fill="#263238"/>
<path d="M220.796 119.526H211.31V125.565H220.796V119.526Z" fill="white"/>
<path d="M225.324 119.526H221.24V125.565H225.324V119.526Z" fill="white"/>
<path d="M234.977 125.74V125.013C235.287 125.057 235.602 125.034 235.902 124.946C236.203 124.858 236.48 124.706 236.716 124.501C236.953 124.297 237.142 124.044 237.272 123.76C237.402 123.475 237.469 123.167 237.469 122.854C237.469 122.542 237.402 122.233 237.272 121.949C237.142 121.665 236.953 121.412 236.716 121.208C236.48 121.003 236.203 120.851 235.902 120.763C235.602 120.675 235.287 120.652 234.977 120.696V119.969C235.386 119.919 235.802 119.956 236.196 120.078C236.59 120.2 236.953 120.404 237.262 120.677C237.571 120.95 237.819 121.285 237.988 121.66C238.157 122.036 238.245 122.443 238.245 122.854C238.245 123.266 238.157 123.673 237.988 124.049C237.819 124.424 237.571 124.759 237.262 125.032C236.953 125.305 236.59 125.509 236.196 125.631C235.802 125.753 235.386 125.79 234.977 125.74Z" fill="#263238"/>
<path d="M249.544 120.965H234.977V121.328H249.544V120.965Z" fill="white"/>
<path d="M249.544 121.394H234.977V121.757H249.544V121.394Z" fill="white"/>
<path d="M249.544 121.815H234.977V122.179H249.544V121.815Z" fill="white"/>
<path d="M249.544 122.244H234.977V122.607H249.544V122.244Z" fill="white"/>
<path d="M249.544 122.673H234.977V123.036H249.544V122.673Z" fill="white"/>
<path d="M249.544 123.102H234.977V123.465H249.544V123.102Z" fill="white"/>
<path d="M249.544 123.53H234.977V123.894H249.544V123.53Z" fill="white"/>
<path d="M249.544 123.959H234.977V124.323H249.544V123.959Z" fill="white"/>
<path d="M249.544 124.381H234.977V124.744H249.544V124.381Z" fill="white"/>
<path d="M255.31 107.483C254.361 108.58 253.823 109.972 253.79 111.422C253.757 112.871 254.23 114.287 255.128 115.427L255.31 115.659V116.924H214.644V105.985H255.31V107.483Z" fill="#F7444E"/>
<path opacity="0.1" d="M255.31 107.483C254.361 108.58 253.823 109.972 253.79 111.422C253.757 112.871 254.23 114.287 255.128 115.427L255.31 115.659V116.924H237.481V105.985H255.31V107.483Z" fill="black"/>
<path d="M255.128 115.426L255.31 115.659H239.411V107.482H255.31C254.361 108.579 253.823 109.972 253.79 111.422C253.757 112.871 254.23 114.287 255.128 115.426Z" fill="#263238"/>
<path opacity="0.9" d="M255.128 115.426L255.31 115.659H239.411V107.482H255.31C254.361 108.579 253.823 109.972 253.79 111.422C253.757 112.871 254.23 114.287 255.128 115.426Z" fill="white"/>
<path d="M236.047 111.756C236.047 112.187 235.919 112.609 235.679 112.967C235.439 113.326 235.098 113.606 234.699 113.771C234.3 113.936 233.861 113.979 233.437 113.895C233.014 113.81 232.624 113.603 232.319 113.298C232.014 112.993 231.805 112.604 231.721 112.181C231.637 111.759 231.68 111.32 231.846 110.922C232.011 110.523 232.291 110.183 232.65 109.943C233.009 109.704 233.431 109.576 233.863 109.576C234.442 109.576 234.998 109.805 235.408 110.214C235.817 110.623 236.047 111.178 236.047 111.756Z" fill="white"/>
<path d="M235.552 111.756C235.552 112.094 235.452 112.424 235.264 112.705C235.076 112.986 234.809 113.205 234.496 113.334C234.184 113.463 233.84 113.497 233.508 113.431C233.176 113.365 232.871 113.203 232.632 112.964C232.392 112.725 232.23 112.421 232.163 112.089C232.097 111.758 232.131 111.415 232.261 111.102C232.39 110.79 232.61 110.524 232.891 110.336C233.172 110.148 233.503 110.048 233.841 110.048C234.295 110.048 234.73 110.228 235.051 110.548C235.372 110.869 235.552 111.303 235.552 111.756Z" fill="#263238"/>
<path d="M225.229 108.42H215.743V114.46H225.229V108.42Z" fill="white"/>
<path d="M229.757 108.42H225.673V114.46H229.757V108.42Z" fill="white"/>
<path d="M239.411 114.641V113.915C239.931 113.841 240.408 113.581 240.752 113.185C241.097 112.788 241.287 112.281 241.287 111.756C241.287 111.231 241.097 110.724 240.752 110.327C240.408 109.931 239.931 109.671 239.411 109.597V108.871C240.116 108.957 240.765 109.299 241.236 109.83C241.707 110.362 241.967 111.047 241.967 111.756C241.967 112.466 241.707 113.151 241.236 113.682C240.765 114.213 240.116 114.555 239.411 114.641Z" fill="#263238"/>
<path d="M253.978 109.866H239.411V110.23H253.978V109.866Z" fill="white"/>
<path d="M253.978 110.295H239.411V110.659H253.978V110.295Z" fill="white"/>
<path d="M253.978 110.717H239.411V111.08H253.978V110.717Z" fill="white"/>
<path d="M253.978 111.146H239.411V111.509H253.978V111.146Z" fill="white"/>
<path d="M253.978 111.574H239.411V111.938H253.978V111.574Z" fill="white"/>
<path d="M253.978 112.003H239.411V112.367H253.978V112.003Z" fill="white"/>
<path d="M253.978 112.432H239.411V112.796H253.978V112.432Z" fill="white"/>
<path d="M253.978 112.854H239.411V113.217H253.978V112.854Z" fill="white"/>
<path d="M253.978 113.282H239.411V113.646H253.978V113.282Z" fill="white"/>
<path d="M235.021 55.3706C243.357 56.5102 251.814 56.4613 260.137 55.2253C260.382 55.2215 260.623 55.165 260.844 55.0596C261.065 54.9543 261.261 54.8025 261.418 54.6148C261.797 53.9897 261.265 53.2338 260.828 52.6524C260.035 51.5819 259.474 50.3585 259.179 49.0597C258.884 47.761 258.864 46.4154 259.118 45.1082C252.908 50.7544 245.081 54.3134 236.739 55.2834L235.021 55.3706Z" fill="#F7444E"/>
<path opacity="0.4" d="M235.021 55.3706C243.357 56.5102 251.814 56.4613 260.137 55.2253C260.382 55.2215 260.623 55.165 260.844 55.0596C261.065 54.9543 261.261 54.8025 261.418 54.6148C261.797 53.9897 261.265 53.2338 260.828 52.6524C260.035 51.5819 259.474 50.3585 259.179 49.0597C258.884 47.761 258.864 46.4154 259.118 45.1082C252.908 50.7544 245.081 54.3134 236.739 55.2834L235.021 55.3706Z" fill="white"/>
<path d="M216.18 106.022H252.551V96.9948H216.18V106.022Z" fill="#F7444E"/>
<path opacity="0.6" d="M216.304 106.058H252.675V97.031H216.304V106.058Z" fill="white"/>
<path opacity="0.6" d="M216.187 106.058H244.099V97.031H216.187V106.058Z" fill="white"/>
<path d="M216.362 104.866L252.558 105.992L252.515 105.077L216.348 104.604L216.362 104.866Z" fill="#F7444E"/>
<path d="M252.558 100.694L216.42 98.6663V98.9715L252.558 101.385V100.694Z" fill="#F7444E"/>
<path d="M252.558 97.9685L216.42 98.7971V99.0878L252.558 98.6517V97.9685Z" fill="#F7444E"/>
<path d="M252.66 102.468L216.515 104.226V103.957L252.66 101.864V102.468Z" fill="#F7444E"/>
<path d="M216.275 97.1111L252.413 97.1402V97.4381H216.275V97.1111Z" fill="#F7444E"/>
<path d="M218.794 79.1299H255.165V70.103H218.794V79.1299Z" fill="#F7444E"/>
<path opacity="0.6" d="M218.91 79.1733H255.281V70.1464H218.91V79.1733Z" fill="white"/>
<path opacity="0.6" d="M218.801 79.1733H246.712V70.1464H218.801V79.1733Z" fill="white"/>
<path d="M218.968 77.9816L255.165 79.1009L255.121 78.1851L218.954 77.72L218.968 77.9816Z" fill="#F7444E"/>
<path d="M255.165 73.8097L219.027 71.7747V72.0799L255.165 74.4929V73.8097Z" fill="#F7444E"/>
<path d="M255.165 71.0769L219.027 71.9055V72.2035L255.165 71.7674V71.0769Z" fill="#F7444E"/>
<path d="M255.266 75.583L219.121 77.3346V77.0729L255.266 74.9797V75.583Z" fill="#F7444E"/>
<path d="M218.342 96.8638H254.713V87.8369H218.342V96.8638Z" fill="#F7444E"/>
<path opacity="0.6" d="M218.459 96.9001H254.83V87.8732H218.459V96.9001Z" fill="white"/>
<path opacity="0.6" d="M246.334 87.8806H218.422V96.9075H246.334V87.8806Z" fill="white"/>
<path d="M254.553 95.4539L218.386 95.9263L218.342 96.8421L254.531 95.7155L254.553 95.4539Z" fill="#F7444E"/>
<path d="M218.575 87.9534L254.713 87.9824V88.2804H218.575V87.9534Z" fill="#F7444E"/>
<path d="M218.342 92.2268L254.48 89.8139V89.5159L218.342 91.5436V92.2268Z" fill="#F7444E"/>
<path d="M254.713 88.8181L218.575 89.6394V89.9374L254.713 89.5013V88.8181Z" fill="#F7444E"/>
<path d="M254.815 93.3171L218.67 95.076V94.8071L254.815 92.7139V93.3171Z" fill="#F7444E"/>
<path d="M253.454 79.3262L217.097 79.5079L217.046 88.3531H253.454V79.3262Z" fill="#F7444E"/>
<path opacity="0.6" d="M217.083 88.353H253.454V79.3261H217.083V88.353Z" fill="white"/>
<path opacity="0.6" d="M244.958 79.3262H217.046V88.3531H244.958V79.3262Z" fill="white"/>
<path d="M246.057 79.5078H217.097V80.4309H245.431L246.057 79.5078Z" fill="#F7444E"/>
<path d="M253.243 83.2073L217.097 83.5416V83.8105H253.243V83.2073Z" fill="#F7444E"/>
<path d="M217.097 87.3863L253.243 85.6274V85.8891L217.097 87.9896V87.3863Z" fill="#F7444E"/>
<path d="M217.097 83.9922L253.243 84.7117V84.9661L217.097 84.5882V83.9922Z" fill="#F7444E"/>
<path d="M262.736 59.6877H226.598V64.2303H262.736V59.6877Z" fill="#F7444E"/>
<path opacity="0.6" d="M262.736 59.6877H226.598V64.2303H262.736V59.6877Z" fill="white"/>
<path opacity="0.6" d="M255.39 59.6877H226.598V64.2303H255.39V59.6877Z" fill="white"/>
<path d="M262.758 62.9148L226.62 63.0892V63.2273H262.758V62.9148Z" fill="#F7444E"/>
<path d="M226.62 61.2141L262.758 60.2983V60.4364L226.62 61.5266V61.2141Z" fill="#F7444E"/>
<path d="M226.503 60.967L262.641 61.3377V61.4758L226.503 61.2723V60.967Z" fill="#F7444E"/>
<path d="M257.683 57.6892H221.545V59.8769H257.683V57.6892Z" fill="#F7444E"/>
<path opacity="0.6" d="M257.683 57.7036H221.545V59.8768H257.683V57.7036Z" fill="white"/>
<path opacity="0.6" d="M250.345 57.5728H221.545V59.884H250.345V57.5728Z" fill="white"/>
<path d="M221.56 59.3535L257.698 58.4377V58.5758L221.56 59.666V59.3535Z" fill="#F7444E"/>
<path d="M221.56 58.2561L257.698 58.6268V58.7649L221.56 58.5686V58.2561Z" fill="#F7444E"/>
<path d="M261.047 55.4507H224.909V57.6384H261.047V55.4507Z" fill="#F7444E"/>
<path opacity="0.6" d="M261.047 55.4651H224.909V57.6382H261.047V55.4651Z" fill="white"/>
<path opacity="0.6" d="M253.701 55.3342H224.909V57.6455H253.701V55.3342Z" fill="white"/>
<path d="M224.931 56.439L261.076 56.875L261.069 57.0204L224.916 56.7515L224.931 56.439Z" fill="#F7444E"/>
<path d="M224.931 56.0176L261.061 56.3882V56.5263L224.931 56.3301V56.0176Z" fill="#F7444E"/>
<path d="M260.297 64.2375H224.159V70.0883H260.297V64.2375Z" fill="#F7444E"/>
<path opacity="0.6" d="M260.297 64.2375H224.159V70.0883H260.297V64.2375Z" fill="white"/>
<path opacity="0.6" d="M252.041 64.2375H224.159V70.0883H252.041V64.2375Z" fill="white"/>
<path d="M260.064 66.0546L223.926 65.8511V65.6912H260.064V66.0546Z" fill="#F7444E"/>
<path d="M224.174 66.905L260.312 67.9588V67.7989L224.174 66.5488V66.905Z" fill="#F7444E"/>
<path d="M260.312 64.2375H226.227L226.984 64.9644H260.312V64.2375Z" fill="#F7444E"/>
<path d="M224.297 69.1871L260.435 68.751V68.5984L224.297 68.8237V69.1871Z" fill="#F7444E"/>
<defs>
<filter id="filter0_d_446_4" x="0" y="0.937012" width="530" height="318" filterUnits="userSpaceOnUse" color-interpolation-filters="sRGB">
<feFlood flood-opacity="0" result="BackgroundImageFix"/>
<feColorMatrix in="SourceAlpha" type="matrix" values="0 0 0 0 0 0 0 0 0 0 0 0 0 0 0 0 0 0 127 0" result="hardAlpha"/>
<feMorphology radius="3" operator="dilate" in="SourceAlpha" result="effect1_dropShadow_446_4"/>
<feOffset/>
<feGaussianBlur stdDeviation="10"/>
<feComposite in2="hardAlpha" operator="out"/>
<feColorMatrix type="matrix" values="0 0 0 0 0 0 0 0 0 0 0 0 0 0 0 0 0 0 0.25 0"/>
<feBlend mode="normal" in2="BackgroundImageFix" result="effect1_dropShadow_446_4"/>
<feBlend mode="normal" in="SourceGraphic" in2="effect1_dropShadow_446_4" result="shape"/>
</filter>
</defs>
</svg>
