<svg width="530" height="319" viewBox="0 0 530 319" fill="none" xmlns="http://www.w3.org/2000/svg">
<g filter="url(#filter0_d_446_657)">
<rect x="23" y="23.937" width="484" height="272" rx="10" fill="#218994"/>
</g>
<path d="M375.333 291.907C392.678 291.907 406.739 283.787 406.739 273.77C406.739 263.753 392.678 255.632 375.333 255.632C357.989 255.632 343.928 263.753 343.928 273.77C343.928 283.787 357.989 291.907 375.333 291.907Z" fill="#EBEBEB"/>
<path d="M174.637 177.232C191.132 177.232 204.503 169.51 204.503 159.984C204.503 150.458 191.132 142.735 174.637 142.735C158.142 142.735 144.771 150.458 144.771 159.984C144.771 169.51 158.142 177.232 174.637 177.232Z" fill="#EBEBEB"/>
<path d="M221.765 204.686C238.259 204.686 251.631 196.964 251.631 187.438C251.631 177.912 238.259 170.19 221.765 170.19C205.27 170.19 191.898 177.912 191.898 187.438C191.898 196.964 205.27 204.686 221.765 204.686Z" fill="#EBEBEB"/>
<path d="M269.491 232.592C285.986 232.592 299.357 224.869 299.357 215.343C299.357 205.817 285.986 198.095 269.491 198.095C252.997 198.095 239.625 205.817 239.625 215.343C239.625 224.869 252.997 232.592 269.491 232.592Z" fill="#EBEBEB"/>
<path d="M318.017 260.207C334.511 260.207 347.883 252.485 347.883 242.959C347.883 233.433 334.511 225.71 318.017 225.71C301.522 225.71 288.15 233.433 288.15 242.959C288.15 252.485 301.522 260.207 318.017 260.207Z" fill="#EBEBEB"/>
<path d="M348.829 24.7932L354.581 28.1179C354.581 27.8602 354.536 27.6025 354.536 27.3576V25.7017C354.536 22.7314 356.616 21.5266 359.186 23.0085C360.295 23.6948 361.243 24.6137 361.962 25.7017C362.381 21.9647 365.312 20.5472 368.867 22.6283C372.731 24.8512 375.829 30.2506 375.829 34.6899V37.1899C375.853 38.186 375.653 39.1747 375.243 40.0829L380.022 42.8405C380.772 43.3318 381.396 43.9925 381.843 44.7692C382.291 45.5459 382.55 46.4169 382.599 47.3121C382.599 48.9615 381.439 49.6316 380.022 48.8069L348.829 30.766C348.078 30.277 347.452 29.6169 347.005 28.8397C346.557 28.0625 346.299 27.1903 346.253 26.2945C346.247 24.6386 347.393 23.9685 348.829 24.7932Z" fill="#EBEBEB"/>
<path d="M324.206 41.5713L328.547 44.0841C328.547 43.8844 328.515 43.6975 328.515 43.5042V42.2478C328.515 40.0056 330.087 39.0971 332.025 40.2182C332.861 40.7304 333.575 41.4186 334.119 42.2349C334.434 39.4128 336.643 38.369 339.329 39.9154C342.234 41.5906 344.585 45.6691 344.585 49.0196V50.901C344.604 51.6533 344.452 52.4002 344.141 53.0852L347.747 55.1728C348.311 55.5436 348.78 56.0418 349.115 56.6272C349.451 57.2125 349.644 57.8686 349.68 58.5425C349.68 59.7861 348.804 60.2951 347.747 59.6701L324.206 46.075C323.642 45.7028 323.174 45.2034 322.838 44.617C322.503 44.0306 322.309 43.3736 322.274 42.6988C322.274 41.4553 323.118 40.9527 324.206 41.5713Z" fill="#EBEBEB"/>
<path d="M386.714 265.142C388.273 263.3 392.473 261.631 397.728 261.277C402.984 260.922 408.311 260.284 407.563 257.153C406.758 253.777 402.044 252.939 397.129 254.17C391.764 255.51 387.275 260.117 386.74 263.338L386.714 265.142Z" fill="#37474F"/>
<path d="M386.785 264.021C386.855 264.031 386.925 264.021 386.989 263.992C387.053 263.964 387.107 263.918 387.146 263.86C392.209 256.367 401.438 256.367 404.227 257.204C404.274 257.219 404.323 257.225 404.371 257.22C404.42 257.216 404.467 257.202 404.51 257.179C404.554 257.157 404.592 257.125 404.623 257.088C404.654 257.05 404.677 257.006 404.691 256.959C404.719 256.865 404.709 256.764 404.664 256.677C404.618 256.591 404.54 256.525 404.446 256.496C401.496 255.6 391.835 255.587 386.528 263.454C386.475 263.537 386.457 263.637 386.476 263.733C386.495 263.829 386.551 263.914 386.631 263.97C386.678 263.997 386.731 264.014 386.785 264.021Z" fill="white"/>
<path d="M386.714 265.142C386.714 265.142 390.547 255.839 397.471 251.541C399.525 250.252 401.76 248.616 403.319 247.482C406.662 245.046 405.895 241.76 401.818 241.225C395.764 240.439 390.611 244.892 387.739 251.27C384.866 257.649 386.714 265.142 386.714 265.142Z" fill="#455A64"/>
<path d="M386.773 260.716C386.862 260.73 386.953 260.71 387.028 260.66C387.103 260.61 387.157 260.533 387.178 260.446C389.903 249.048 399.564 244.512 402.05 244.241C402.098 244.236 402.144 244.222 402.186 244.199C402.228 244.177 402.265 244.146 402.295 244.109C402.325 244.071 402.347 244.029 402.36 243.983C402.374 243.937 402.378 243.889 402.372 243.842C402.361 243.747 402.313 243.66 402.238 243.601C402.163 243.542 402.068 243.515 401.973 243.526C398.959 243.848 389.278 248.603 386.476 260.278C386.465 260.324 386.462 260.372 386.469 260.419C386.476 260.466 386.493 260.511 386.517 260.552C386.542 260.593 386.574 260.628 386.612 260.656C386.651 260.684 386.694 260.705 386.74 260.716H386.773Z" fill="white"/>
<path d="M388.698 153.921C391.783 153.193 393.786 155.796 395.783 160.647C397.78 165.499 401.316 177.316 402.14 180.557C402.514 182.006 393.323 195.002 393.716 194.809C393.838 194.751 390.128 188.546 390.128 188.546L394.637 179.912L391.416 172.065L388.698 153.921Z" fill="#FFA8A7"/>
<path d="M393.084 263.454C393.503 263.615 393.606 264.408 393.67 265.993C393.716 267.198 393.973 269.292 392.569 269.71C391.165 270.129 389.11 269.91 388.209 268.783C387.081 267.372 386.321 266.128 384.724 264.408C383.333 262.913 381.826 261.515 381.265 259.421C380.757 257.526 381.182 256.708 382.47 256.154C384.248 255.4 387.036 257.874 388.428 258.261C389.626 258.564 392.666 263.261 393.084 263.454Z" fill="#263238"/>
<path d="M393.084 260.877V263.918C392.354 264.387 391.51 264.648 390.643 264.672C389.776 264.695 388.918 264.482 388.164 264.053C388.08 263.867 387.835 260.877 387.835 260.877H393.084Z" fill="#FFA8A7"/>
<path d="M378.605 273.763C378.605 273.763 379.159 275.451 379.462 276.933C379.7 278.112 380.042 280.077 379.629 280.96C379.217 281.843 377.613 282.416 375.121 282.397C373.511 282.397 370.992 283.486 369.273 284.446C367.553 285.406 365.563 285.445 363.682 285.219C361.466 284.961 359.173 283.673 358.813 282.758C358.452 281.843 358.916 281.398 364.139 279.169C364.184 279.169 369.646 276.682 372.171 273.892L378.605 273.763Z" fill="#263238"/>
<path d="M378.605 271.663C378.605 271.663 378.605 273.106 378.605 273.931C378.605 274.756 377.633 275.986 375.114 275.896C373.343 275.832 372.1 275.355 372.171 273.899V271.792L378.605 271.663Z" fill="#FFA8A7"/>
<path d="M396.343 238.384C396.182 231.941 394.862 229.144 394.862 229.144C394.862 229.144 395.351 221.213 396.421 211.51C398.044 196.722 397.297 193.862 394.379 187.206C394.379 187.206 369.504 184.687 368.751 195.028C367.804 207.914 367.688 230.742 368.036 235.291C368.384 239.84 368.371 238.996 369.472 248.178C370.348 255.458 372.152 271.766 372.152 271.766C373.153 272.275 374.265 272.53 375.388 272.507C376.511 272.485 377.612 272.186 378.592 271.637C378.592 271.637 380.621 250.929 380.409 245.684C380.151 239.273 379.765 237.643 379.765 237.643C379.765 237.643 382.676 218.707 383.127 215.363C383.127 215.363 383.533 221.342 383.874 225.891C384.215 230.44 384.183 232.295 385.162 241.702C385.916 249.08 387.738 261.676 387.738 261.676C388.613 262.032 389.558 262.181 390.5 262.111C391.442 262.042 392.355 261.756 393.168 261.276C393.168 261.276 396.498 243.577 396.343 238.384Z" fill="#F7444E"/>
<path d="M375.958 150.57L377.124 160.183L385.574 159.423L384.608 148.747L375.958 150.57Z" fill="#FFA8A7"/>
<path d="M393.819 158.566C392.891 156.04 390.759 153.412 387.513 153.991C386.663 154.152 385.922 154.275 385.123 154.436C385.053 156.646 380.879 157.793 376.718 156.453C375.469 156.813 374.322 157.174 373.285 157.548C370.31 158.611 369.118 163.553 369.047 171.82C368.976 180.086 368.107 200.711 368.107 200.711L371.585 201.806L373.208 195.769L373.852 202.998C377.803 203.919 381.916 203.9 385.858 202.94C394.798 201.007 397.574 196.162 397.574 196.162C396.1 190.328 393.701 184.768 390.469 179.693C394.952 167.793 395.197 162.297 393.819 158.566Z" fill="#37474F"/>
<path d="M369.678 138.354C369.172 137.206 368.966 135.948 369.078 134.698C369.191 133.448 369.619 132.247 370.322 131.208C373.156 126.756 378.625 125.996 385.136 127.729C387.398 128.424 389.39 129.8 390.842 131.669C392.293 133.538 393.132 135.809 393.245 138.173C393.555 142.928 380.299 146.434 380.602 149.687L369.678 138.354Z" fill="#263238"/>
<path d="M369.396 140.164C369.396 140.164 367.591 143.044 367.849 143.341C368.295 143.617 368.786 143.813 369.299 143.921L369.396 140.164Z" fill="#F28F8F"/>
<path d="M374.876 131.022C373.079 132.014 369.981 133.844 369.35 140.577C368.706 147.49 370.303 149.848 371.282 150.725C371.926 151.317 375.211 151.453 376.899 150.873C379.018 150.151 383.584 147.741 385.658 144.127C388.093 139.868 388.473 134.275 385.465 132.168C381.227 129.205 376.377 130.184 374.876 131.022Z" fill="#FFA8A7"/>
<path d="M374.87 131.84C373.82 134.37 373.168 137.048 372.937 139.778C372.109 139.786 371.286 139.654 370.503 139.385C370.503 139.385 370.471 136.485 371.25 134.836C370.502 136.165 370.021 137.627 369.833 139.14C368.999 139.072 368.201 138.773 367.527 138.277C366.883 135.177 368.815 128.786 374.322 127.768L374.87 131.84Z" fill="#263238"/>
<path d="M374.348 131.324C374.348 131.324 372.931 137.658 374.94 141.582C374.94 141.582 375.984 139.095 378.116 139.746C380.248 140.396 380.138 143.231 378.509 144.726C378.092 145.151 377.564 145.45 376.986 145.59C376.407 145.729 375.801 145.702 375.237 145.512C375.955 147.301 377.028 148.925 378.393 150.287C378.393 150.287 384.692 153.096 390.147 146.936C395.1 141.35 394.179 131.601 386.598 129.308C379.018 127.014 374.348 131.324 374.348 131.324Z" fill="#263238"/>
<path d="M395.319 145.596C396.814 147.181 396.53 149.874 394.675 151.614C392.82 153.353 390.128 153.482 388.634 151.904C387.14 150.325 387.423 147.619 389.278 145.879C391.133 144.14 393.819 144.011 395.319 145.596Z" fill="#263238"/>
<path d="M392.73 142.825C392.356 142.946 392.044 143.211 391.864 143.561C391.685 143.911 391.651 144.319 391.77 144.694L394.598 143.785C394.477 143.411 394.212 143.099 393.862 142.919C393.512 142.739 393.105 142.706 392.73 142.825Z" fill="#263238"/>
<path d="M351.902 172.773C350.671 171.375 350.472 168.263 348.836 166.15C347.2 164.036 347.496 161.872 346.472 162.825C345.448 163.779 346.214 167.277 346.214 167.277C346.214 167.277 344.314 170.808 344.147 172.612C343.979 174.416 348.771 178.959 348.771 178.959L351.902 172.773Z" fill="#FFA8A7"/>
<path d="M346.472 167.032C346.472 167.032 344.54 169.738 335.819 166.201C333.41 165.228 335.033 170.409 337.989 172.554C340.72 174.539 344.14 175.131 346.878 177.006C346.884 176.742 346.472 167.032 346.472 167.032Z" fill="#FFA8A7"/>
<path d="M374.026 157.29C371.54 158.154 369.369 159.159 367.05 163.514C364.068 169.12 358.677 180.086 358.677 180.086L351.902 172.773C351.902 172.773 350.916 171.388 349.087 174.41C347.258 177.432 348.069 178.276 348.069 178.276C348.069 178.276 355.927 188.797 357.363 190.137C358.8 191.478 361.176 190.434 362.722 188.333C364.268 186.233 372.261 171.742 372.261 171.742C372.261 171.742 377.536 162.587 374.026 157.29Z" fill="#FFA8A7"/>
<path opacity="0.2" d="M383.159 215.388L383.629 210.362C386.327 209.959 388.906 208.979 391.191 207.489C391.191 207.489 389.574 210.066 385.143 211.258L384.138 216.155L383.88 225.916L383.159 215.388Z" fill="black"/>
<path d="M368.938 177.528C368.938 177.528 372.062 172.058 372.261 171.729L368.687 185.602L368.938 177.528Z" fill="#263238"/>
<path d="M331.871 144.713C332.785 145.674 334.956 146.414 349.01 147.439C351.055 147.638 353.12 147.367 355.045 146.646C356.941 145.898 358.57 144.599 359.721 142.916C359.992 142.545 360.193 142.128 360.313 141.685C360.423 141.248 360.356 140.785 360.127 140.397C359.85 140.031 359.453 139.775 359.006 139.675C358.121 139.474 357.194 139.574 356.372 139.958C355.083 140.461 354.079 140.635 354.175 140.371C354.272 140.107 355.058 139.868 355.863 138.96C356.668 138.051 356.874 136.775 356.352 136.382C355.831 135.989 355.921 136.073 354.993 136.846C354.066 137.62 352.997 138.013 351.773 139.198C350.999 140.08 350.022 140.759 348.926 141.176C347.515 141.737 346.182 141.569 342.266 140.944C338.885 140.403 337.584 140.21 335.961 139.308C334.215 136.653 330.003 125.436 328.174 122.362C326.241 119.108 322.312 119.012 322.312 119.012C322.347 123.018 323.017 126.993 324.296 130.79C325.649 134.591 330.962 143.766 331.871 144.713Z" fill="#B16668"/>
<path d="M321.25 118.645C322.868 118.376 324.53 118.669 325.958 119.476C328.09 120.816 329.481 123.297 330.827 126.402C332.476 130.178 334.46 135.229 334.46 135.229C332.544 137.093 330.039 138.232 327.375 138.451L321.031 127.903L321.25 118.645Z" fill="#455A64"/>
<path d="M306.249 239.634H311.724V230.259H306.249V239.634Z" fill="#B16668"/>
<path d="M321.398 232.618L326.873 232.804L327.143 222.888L321.398 222.695V232.618Z" fill="#B16668"/>
<path d="M303.917 160.255C303.917 165.486 304.845 195.905 304.845 195.905C304.716 197.406 303.267 200.08 303.157 205.505C302.99 213.365 306.017 234.944 306.017 234.944C306.962 235.408 307.997 235.66 309.05 235.681C310.103 235.703 311.147 235.493 312.11 235.066C312.11 235.066 314.596 205.808 315.575 198.031C316.432 191.24 317.881 172.793 317.881 172.793L320.457 194.957C319.823 197.813 319.593 200.743 319.775 203.662C320.032 207.264 321.063 229.544 321.063 229.544C322.017 230.084 323.078 230.408 324.171 230.491C325.265 230.575 326.363 230.416 327.388 230.027C327.388 230.027 331.252 198.263 331.31 194.957C331.381 191.195 329.88 152.768 329.88 152.768L303.917 160.255Z" fill="#37474F"/>
<path d="M307.518 121.782C306.314 122.318 305.366 123.303 304.877 124.527C304.317 126.042 304.046 127.648 304.078 129.263V139.991L303.917 160.254C311.775 164.397 321.765 164.674 330.151 158.547C330.151 158.547 329.681 132.472 329.681 128.206C329.681 128.013 329.681 127.82 329.681 127.62C329.372 121.525 323.375 117.311 317.443 118.864L312.484 120.152L307.505 121.795L307.518 121.782Z" fill="#F0F0F0"/>
<path d="M326.896 107.15C329.833 104.211 329.833 99.4461 326.896 96.5072C323.958 93.5683 319.194 93.5683 316.257 96.5072C313.319 99.4461 313.319 104.211 316.257 107.15C319.194 110.089 323.958 110.089 326.896 107.15Z" fill="#263238"/>
<path d="M308.568 107.176C308.568 107.176 309.785 112.904 310.274 113.851C310.6 114.431 311.138 114.863 311.775 115.056L311.691 111.029L308.568 107.176Z" fill="#263238"/>
<path d="M310.094 98.9672C309.668 98.9175 309.237 98.966 308.833 99.1089C308.429 99.2519 308.062 99.4855 307.763 99.7919C306.758 100.816 307.318 104.031 308.568 107.176L310.861 107.44L310.094 98.9672Z" fill="#263238"/>
<path d="M311.55 107.44C311.092 107.717 310.435 106.834 309.869 106.235C309.302 105.636 307.447 104.83 306.519 106.783C305.592 108.735 307.337 111.389 308.793 111.847C311.311 112.639 311.691 111.029 311.691 111.029L311.872 120.378C315.002 124.392 323.678 124.05 320.064 119.862V117.098C321.184 117.278 322.32 117.337 323.452 117.272C325.301 116.989 326.467 115.526 327.027 113.522C327.929 110.301 328.27 107.723 327.51 101.383C326.666 94.4504 318.609 94.3731 314.255 97.1179C309.901 99.8627 311.55 107.44 311.55 107.44Z" fill="#B16668"/>
<path d="M311.55 108.22C311.318 108.22 310.442 106.757 309.869 106.235C309.07 105.513 310.094 98.9672 310.094 98.9672C309.886 98.4004 309.848 97.7852 309.984 97.197C310.12 96.6089 310.425 96.0731 310.861 95.6554C311.949 94.4569 313.134 93.7224 316.271 93.5356C318.422 93.5255 320.571 93.6266 322.712 93.8384C325.81 94.0446 326.95 93.2843 328.734 92.7817C330.093 92.4016 330.248 97.2919 326.802 98.9478C326.802 98.9478 325.681 99.6695 322.738 100.03C320.016 100.231 317.282 100.179 314.571 99.8756C313.72 99.7597 313.54 100.584 313.076 102.846C312.664 104.837 312.329 108.174 311.55 108.22Z" fill="#263238"/>
<path d="M310.101 99.4762L307.318 97.9814C307.407 97.794 307.533 97.6266 307.688 97.4893C307.844 97.352 308.025 97.2476 308.222 97.1826C308.419 97.1175 308.627 97.0931 308.834 97.1108C309.04 97.1285 309.241 97.188 309.424 97.2855C309.797 97.494 310.074 97.8378 310.2 98.2456C310.326 98.6534 310.291 99.094 310.101 99.4762Z" fill="#263238"/>
<path d="M320.058 117.098C320.058 117.098 315.929 116.267 314.487 115.501C313.637 115.058 312.941 114.368 312.49 113.522C312.707 114.368 313.093 115.162 313.624 115.855C314.68 117.202 320.065 118.2 320.065 118.2L320.058 117.098Z" fill="#9A4A4D"/>
<path d="M319.853 106.409C319.845 106.57 319.791 106.726 319.695 106.856C319.6 106.987 319.469 107.086 319.318 107.143C319.167 107.199 319.002 107.21 318.845 107.174C318.687 107.138 318.544 107.057 318.432 106.94C318.321 106.823 318.246 106.676 318.217 106.518C318.188 106.359 318.207 106.195 318.27 106.046C318.334 105.898 318.439 105.771 318.574 105.682C318.709 105.593 318.866 105.546 319.028 105.546C319.139 105.547 319.249 105.571 319.351 105.616C319.452 105.66 319.544 105.724 319.621 105.805C319.698 105.885 319.758 105.98 319.798 106.084C319.838 106.187 319.856 106.298 319.853 106.409Z" fill="#263238"/>
<path d="M318.977 103.284L317.205 104.264C317.08 104.02 317.054 103.738 317.13 103.476C317.207 103.214 317.381 102.99 317.617 102.853C317.734 102.788 317.863 102.749 317.996 102.736C318.128 102.723 318.262 102.737 318.39 102.777C318.517 102.818 318.634 102.884 318.735 102.971C318.836 103.058 318.919 103.164 318.977 103.284Z" fill="#263238"/>
<path d="M319.697 112.124L321.585 112.839C321.545 112.968 321.48 113.088 321.394 113.191C321.307 113.294 321.2 113.378 321.079 113.439C320.959 113.499 320.827 113.534 320.692 113.542C320.558 113.55 320.423 113.53 320.296 113.484C320.039 113.38 319.832 113.18 319.72 112.926C319.608 112.672 319.6 112.384 319.697 112.124Z" fill="#9A4A4D"/>
<path d="M326.996 103.973L325.378 102.73C325.454 102.62 325.551 102.527 325.664 102.456C325.777 102.386 325.903 102.339 326.034 102.319C326.166 102.299 326.301 102.306 326.429 102.341C326.558 102.375 326.678 102.435 326.783 102.517C326.998 102.687 327.14 102.932 327.18 103.203C327.219 103.474 327.153 103.75 326.996 103.973Z" fill="#263238"/>
<path d="M326.5 106.17C326.51 106.285 326.496 106.401 326.459 106.51C326.422 106.619 326.363 106.72 326.285 106.805C326.207 106.89 326.112 106.958 326.007 107.004C325.901 107.051 325.787 107.075 325.672 107.075C325.556 107.075 325.442 107.051 325.337 107.004C325.231 106.958 325.137 106.89 325.059 106.805C324.981 106.72 324.921 106.619 324.884 106.51C324.847 106.401 324.834 106.285 324.844 106.17C324.84 106.06 324.859 105.949 324.899 105.846C324.939 105.743 324.999 105.648 325.076 105.568C325.152 105.488 325.245 105.425 325.346 105.381C325.448 105.337 325.558 105.314 325.669 105.313C325.779 105.315 325.889 105.339 325.991 105.383C326.092 105.427 326.185 105.49 326.262 105.57C326.339 105.649 326.4 105.743 326.441 105.846C326.481 105.949 326.502 106.06 326.5 106.17Z" fill="#263238"/>
<path d="M322.28 105.391L322.551 110.365L325.153 109.483L322.28 105.391Z" fill="#9A4A4D"/>
<path d="M311.724 236.928V236.148C312.245 236.374 313.463 241.019 315.64 243.004C317.366 244.576 319.723 246.4 320.322 248.158C320.921 249.917 317.037 250.993 315.427 250.736C313.553 250.401 310.274 249.08 309.489 247.856C308.703 246.631 308.291 244.827 307.627 243.932C306.964 243.036 305.437 242.031 305.051 240.994C304.858 240.427 305.09 239.177 305.366 238.12C305.643 237.063 305.895 236.09 306.223 236.187V236.78C307.001 237.396 307.968 237.723 308.96 237.708C309.785 237.682 311.73 237.54 311.724 236.928Z" fill="#263238"/>
<path d="M326.93 231.116C327.214 231.116 327.446 231.529 328.071 232.205C329.007 233.153 330.095 233.937 331.291 234.525C333.339 235.549 337.326 237.102 339.129 237.946C340.257 238.455 340.205 239.815 339.039 240.588C337.873 241.361 335.065 241.921 331.684 241.168C329.848 240.755 327.452 239.054 325.939 239.144C324.425 239.235 321.585 239.215 320.464 238.442C319.343 237.669 319.82 236.026 320.11 234.608C320.457 233.069 320.889 230.659 321.398 230.743V231.277C322.042 232.27 325.456 232.676 326.898 231.922L326.93 231.116Z" fill="#263238"/>
<path d="M317.881 172.793C320.709 171.91 323.308 170.417 325.494 168.418C325.494 168.418 324.026 171.176 319.646 173.74L320.232 193.069L317.881 172.793Z" fill="#263238"/>
<path d="M295.003 149.005C298.514 128.451 302.088 122.201 307.995 121.989C309.811 123.954 309.643 130.178 307.119 134.069C307.119 134.069 301.708 147.13 300.968 151.717C300.323 155.744 299.609 160.802 299.834 164.23C299.884 164.834 300.152 165.4 300.588 165.821C301.753 166.968 301.805 167.928 302.584 169.217C303.196 170.228 303.827 170.583 303.666 170.828C303.448 171.086 303.141 171.252 302.805 171.294C302.47 171.336 302.131 171.25 301.856 171.053C301.32 170.705 300.837 170.282 300.42 169.797C300.677 171.058 301.111 172.277 301.708 173.418C303.087 176.15 302.861 177.593 299.029 176.788C296.633 176.279 295.048 174.378 294.411 168.708C294.138 166.621 294.013 164.517 294.037 162.413C294.256 156.988 294.449 152.239 295.003 149.005Z" fill="#B16668"/>
<path d="M309.431 121.151C307.64 121.48 303.048 121.641 300.691 126.389C299.145 129.514 297.586 134.411 295.918 140.274C295.918 140.274 299.364 143.844 304.446 143.335L307.292 135.126C309.991 131.634 310.68 123.78 309.431 121.151Z" fill="#455A64"/>
<path d="M276.827 119.772C271.823 99.6114 266.103 94.9336 271.449 92.2146C276.943 91.6798 279.777 94.9272 280.73 100.713C281.201 103.548 282.218 115.172 283.494 119.727C284.621 123.728 286.128 128.715 287.803 131.776C288.104 132.317 288.595 132.728 289.181 132.929C290.746 133.489 291.21 134.359 292.479 135.216C293.477 135.861 294.211 135.944 294.166 136.234C294.078 136.567 293.866 136.854 293.575 137.037C293.283 137.22 292.933 137.285 292.595 137.22C291.95 137.126 291.322 136.944 290.727 136.679C291.497 137.734 292.412 138.676 293.445 139.475C295.892 141.408 296.298 142.851 292.414 143.741C289.98 144.295 287.706 143.219 284.685 138.251C283.538 136.438 282.522 134.546 281.645 132.587C279.545 127.504 277.632 123.045 276.827 119.772Z" fill="#FFA8A7"/>
<path d="M259.559 209.687V208.907C259.869 209.822 261.298 213.772 263.469 215.75C265.195 217.328 267.546 219.145 268.145 220.904C268.744 222.663 264.873 223.34 263.256 223.056C261.389 222.728 258.967 221.664 257.647 220.041C256.719 218.9 256.126 217.554 255.463 216.658C254.8 215.763 253.28 214.757 252.887 213.72C252.694 213.153 252.925 211.903 253.202 210.853C253.479 209.803 253.73 208.817 254.059 208.92V209.513C254.84 210.124 255.805 210.451 256.796 210.44C257.627 210.453 259.566 210.299 259.559 209.687Z" fill="#263238"/>
<path d="M265.028 217.134C264.493 216.658 263.959 216.194 263.469 215.743C261.955 214.364 260.796 212.019 260.133 210.414C259.754 209.504 259.559 208.527 259.559 207.541V204.422H254.091V209.493V209.628C254.355 210.762 256.867 213.784 258.291 215.756C259.244 217.076 261.06 218.758 263.231 219.048C265.318 219.344 266.367 218.694 265.028 217.134Z" fill="#FFA8A7"/>
<path d="M280.891 204.293V203.533C281.194 204.448 282.63 208.398 284.795 210.376C286.521 211.954 288.878 213.771 289.471 215.53C290.063 217.289 286.199 217.966 284.588 217.682C282.714 217.354 280.292 216.291 278.972 214.667C278.045 213.527 277.458 212.18 276.795 211.284C276.132 210.389 274.605 209.384 274.251 208.346C274.051 207.779 274.283 206.529 274.56 205.479C274.837 204.429 275.088 203.449 275.423 203.546V204.139C276.201 204.75 277.165 205.078 278.154 205.067C278.953 205.06 280.898 204.906 280.891 204.293Z" fill="#263238"/>
<path d="M286.36 211.742C285.825 211.265 285.284 210.801 284.795 210.356C283.281 208.971 282.128 206.626 281.465 205.022C281.085 204.111 280.89 203.134 280.891 202.148V199.023H275.423V204.094V204.229C275.687 205.363 278.193 208.385 279.623 210.356C280.576 211.677 282.392 213.359 284.563 213.649C286.643 213.952 287.693 213.301 286.36 211.742Z" fill="#FFA8A7"/>
<path d="M255.18 124.676C250.942 133.934 255.334 166.556 255.334 166.556C255.205 168.057 253.486 171.021 252.848 177.632C252.088 185.447 254.033 205.08 254.033 205.08C254.867 205.564 255.806 205.836 256.769 205.875C257.732 205.913 258.69 205.715 259.559 205.299C259.559 205.299 264.77 175.738 265.749 167.967C266.606 161.182 268.248 146.267 268.248 146.267L272.911 167.928C272.23 170.114 271.736 172.353 271.436 174.623C270.992 179.191 275.423 200.479 275.423 200.479C275.423 200.479 277.31 201.169 280.891 200.64C280.891 200.64 282.457 172.4 282.869 166.891C283.558 157.645 281.104 128.786 279.41 123.31L255.18 124.676Z" fill="#F7444E"/>
<path opacity="0.1" d="M268.248 146.273L269.626 137.671C269.626 137.671 275.423 136.466 278.09 133.979C278.09 133.979 275.32 137.433 271.204 138.56L269.659 145.184L272.357 165.235L268.248 146.273Z" fill="black"/>
<path d="M262.657 92.4918C257.221 92.8655 256.861 95.4943 255.482 98.3679C254.484 100.579 254.392 103.093 255.225 105.372L259.012 116.325C257.468 118.987 256.185 121.792 255.18 124.701C264.686 130.004 276.55 127.214 279.41 123.342C279.532 122.523 278.798 116.099 278.341 111.905C280.015 107.704 280.46 105.043 279.751 102.24C278.463 97.0857 273.356 92.0665 271.101 92.2469L262.657 92.4918Z" fill="#F5F5F5"/>
<path d="M269.118 87.4982H265.111C263.784 87.5042 262.468 87.2483 261.239 86.7454C260.01 86.2424 258.893 85.5022 257.95 84.5669C257.007 83.6317 256.258 82.5198 255.745 81.2948C255.232 80.0698 254.966 78.7557 254.961 77.4276C254.947 74.2144 256.209 71.1272 258.47 68.8449C260.731 66.5625 263.806 65.2718 267.018 65.2565C268.609 65.2497 270.186 65.5564 271.658 66.1593C273.131 66.7621 274.47 67.6491 275.6 68.7697C276.73 69.8903 277.628 71.2226 278.243 72.6904C278.858 74.1583 279.178 75.7329 279.185 77.3245C279.193 78.6542 278.939 79.9726 278.438 81.204C277.936 82.4355 277.196 83.5558 276.261 84.5009C275.326 85.4459 274.214 86.1971 272.988 86.7115C271.762 87.2258 270.447 87.4932 269.118 87.4982Z" fill="#263238"/>
<path d="M263.881 62.428C265.614 65.0053 263.778 66.7192 261.228 68.4524C258.677 70.1856 256.391 71.2423 254.658 68.6972C252.925 66.1522 253.879 63.3043 256.429 61.6097C258.98 59.9152 262.155 59.883 263.881 62.428Z" fill="#263238"/>
<path d="M257.646 70.3144L255.07 72.2087C254.938 72.0462 254.841 71.8588 254.783 71.6577C254.726 71.4565 254.709 71.2458 254.735 71.0382C254.761 70.8306 254.829 70.6304 254.934 70.4495C255.039 70.2687 255.179 70.111 255.347 69.9858C255.697 69.7293 256.134 69.6201 256.564 69.6815C256.993 69.7429 257.382 69.9701 257.646 70.3144Z" fill="#263238"/>
<path d="M274.509 70.675C275.797 71.4225 277.388 74.6376 277.259 81.39C277.149 87.1115 275.327 88.529 274.373 88.9414C273.42 89.3538 271.649 89.1154 269.903 88.8319L270.006 92.3047C270.006 92.3047 272.943 94.7145 272.802 96.2866C272.66 97.8587 268.725 98.5868 266.458 97.0598C264.98 96.0318 263.612 94.8552 262.374 93.5483C262.315 93.4827 262.283 93.3978 262.284 93.3099V84.6503C262.284 84.6503 261.26 85.6554 259.514 84.1348C258.072 82.8848 257.582 80.765 258.69 79.6246C258.979 79.3521 259.329 79.1525 259.71 79.0421C260.091 78.9318 260.494 78.914 260.883 78.9902C261.273 79.0665 261.639 79.2345 261.951 79.4804C262.263 79.7263 262.512 80.0429 262.677 80.4042C262.677 80.4042 265.466 80.4944 269.163 78.4391C270.601 77.6568 271.835 76.546 272.764 75.197C273.693 73.8479 274.291 72.2986 274.509 70.675Z" fill="#FFA8A7"/>
<path d="M270.87 79.9793C270.873 80.1208 270.833 80.26 270.757 80.3793C270.681 80.4987 270.571 80.593 270.442 80.6505C270.312 80.708 270.169 80.7262 270.029 80.7028C269.89 80.6795 269.76 80.6155 269.656 80.519C269.553 80.4224 269.48 80.2976 269.447 80.1599C269.414 80.0223 269.422 79.8779 269.47 79.7448C269.519 79.6118 269.605 79.4958 269.719 79.4115C269.832 79.3272 269.968 79.2781 270.11 79.2705C270.304 79.2653 270.493 79.3366 270.635 79.4692C270.777 79.6018 270.862 79.785 270.87 79.9793Z" fill="#263238"/>
<path d="M271.082 84.8245L272.758 85.3528C272.727 85.4649 272.675 85.5697 272.603 85.6612C272.531 85.7527 272.442 85.8289 272.341 85.8853C272.239 85.9418 272.127 85.9773 272.012 85.9899C271.897 86.0024 271.78 85.9918 271.668 85.9585C271.444 85.8804 271.258 85.7193 271.149 85.5083C271.04 85.2974 271.016 85.0526 271.082 84.8245Z" fill="#F28F8F"/>
<path d="M276.757 77.7435L275.294 76.7448C275.355 76.6456 275.434 76.5598 275.529 76.4927C275.624 76.4255 275.731 76.3785 275.844 76.3543C275.958 76.3302 276.075 76.3295 276.189 76.3523C276.303 76.3752 276.411 76.421 276.506 76.4871C276.7 76.625 276.834 76.8319 276.881 77.0654C276.928 77.2989 276.883 77.5415 276.757 77.7435Z" fill="#263238"/>
<path d="M276.429 79.4379C276.43 79.5792 276.389 79.7177 276.312 79.8362C276.235 79.9547 276.125 80.0481 275.996 80.1046C275.866 80.1612 275.723 80.1784 275.584 80.1543C275.444 80.1302 275.315 80.0657 275.212 79.9689C275.109 79.8721 275.037 79.7472 275.005 79.6097C274.972 79.4722 274.981 79.3281 275.029 79.1954C275.078 79.0627 275.164 78.9472 275.278 78.8631C275.391 78.7791 275.527 78.7303 275.668 78.7227C275.864 78.7175 276.053 78.7897 276.196 78.9237C276.338 79.0576 276.422 79.2425 276.429 79.4379Z" fill="#263238"/>
<path d="M273.188 78.6777L273.169 83.3684L275.443 82.6532L273.188 78.6777Z" fill="#F28F8F"/>
<path d="M269.903 88.845C268.061 88.6066 264.274 87.5564 263.682 86.0422C263.915 86.8093 264.381 87.4848 265.015 87.9752C266.148 88.9352 269.936 90.0241 269.936 90.0241L269.903 88.845Z" fill="#F28F8F"/>
<path d="M265.086 125.7C264.342 125.529 263.639 125.21 263.02 124.764C262.4 124.318 261.876 123.752 261.478 123.1C261.079 122.449 260.815 121.724 260.7 120.969C260.585 120.214 260.622 119.443 260.809 118.703C260.835 118.6 260.868 118.499 260.905 118.4C261.035 117.998 261.296 117.653 261.647 117.419C261.998 117.185 262.418 117.076 262.838 117.111C262.262 116.67 261.781 116.118 261.42 115.489C261.06 114.86 260.828 114.165 260.738 113.445L259.308 106.699C259.17 105.581 259.269 104.446 259.598 103.368L255.779 98.948L255.077 99.4377C254.496 101.378 254.55 103.452 255.231 105.359L259.018 116.312C257.452 118.963 256.167 121.77 255.186 124.688C258.278 126.352 261.691 127.332 265.195 127.563C268.698 127.794 272.21 127.271 275.494 126.029C272.035 126.581 268.503 126.47 265.086 125.7Z" fill="#E0E0E0"/>
<path d="M263.018 141.872L249.196 133.947C249.196 133.947 242.472 143.187 247.051 145.796C251.631 148.405 256.171 151.066 260.732 153.702C265.897 151.704 263.018 141.872 263.018 141.872Z" fill="#37474F"/>
<path d="M260.732 143.186L249.917 136.93V137.529L260.732 143.85V143.186Z" fill="#F7444E"/>
<path d="M263.018 141.872C262.129 144.771 259.456 152.987 260.738 153.727C262.02 154.468 265.981 151.917 265.891 150.377C265.665 146.041 263.018 141.872 263.018 141.872Z" fill="#455A64"/>
<path d="M259.199 92.466C259.764 92.4098 260.333 92.535 260.823 92.8234C261.312 93.1118 261.698 93.5485 261.923 94.0704C264.132 98.2713 262.612 141.647 262.612 141.647L261.118 140.79C261.118 140.79 261.64 126.808 261.588 114.076C261.55 104.727 261.202 95.9002 260.802 94.9402C260.612 94.3875 260.239 93.9162 259.745 93.6036C259.251 93.291 258.665 93.1557 258.084 93.2198C258.204 93.0204 258.366 92.8496 258.558 92.7193C258.751 92.5891 258.969 92.5026 259.199 92.466Z" fill="#263238"/>
<path d="M245.454 119.772C249.679 102.492 252.958 95.0756 257.582 93.3553C257.928 93.2208 258.3 93.1657 258.671 93.194C259.041 93.2222 259.4 93.3331 259.722 93.5185C260.044 93.7039 260.32 93.9592 260.531 94.2654C260.741 94.5716 260.88 94.9212 260.938 95.2882C261.337 98.7755 260.475 102.29 258.51 105.198C258.51 105.198 252.346 118.213 251.36 122.839C250.497 126.885 249.525 131.976 249.576 135.468C249.589 136.097 249.832 136.7 250.259 137.162C251.392 138.387 251.392 139.372 252.127 140.725C252.693 141.782 253.318 142.182 253.144 142.413C252.91 142.667 252.589 142.823 252.245 142.849C251.901 142.876 251.559 142.771 251.289 142.555C250.764 142.173 250.294 141.719 249.892 141.209C250.083 142.502 250.456 143.763 251 144.952C252.288 147.806 251.959 149.263 248.108 148.245C245.692 147.6 244.179 145.596 243.818 139.791C243.638 137.648 243.617 135.494 243.754 133.348C244.288 127.865 244.655 123.026 245.454 119.772Z" fill="#FFA8A7"/>
<path d="M242.626 95.2881C243.013 91.5124 243.013 89.9145 242.897 89.4441C242.369 87.2986 240.875 85.5782 239.303 83.001C236.611 78.5359 232.54 71.5644 230.666 68.8711C229.184 66.7578 227.587 65.5207 225.146 65.6496C223.446 65.7462 224.766 72.4793 226.434 77.331L235.419 89.7341C235.715 90.1392 235.85 90.6396 235.799 91.1387L234.923 99.9787L237.789 103.812C237.789 103.812 242.13 100.101 242.626 95.2881Z" fill="#FFA8A7"/>
<path d="M242.678 94.7469C242.549 94.1026 242.098 93.5292 240.92 93.5743C239.741 93.6194 238.82 95.14 238.82 95.14L242.143 96.6154C242.317 96.1773 242.485 95.7263 242.626 95.2753C242.646 95.0949 242.665 94.9209 242.678 94.7469Z" fill="#F28F8F"/>
<path d="M224.161 65.5852C224.161 65.5852 227.851 65.1213 229.899 67.3507C231.948 69.58 232.946 71.4421 234.93 74.7345C237.319 78.7035 238.356 80.7395 238.356 80.7395C238.356 80.7395 234.621 85.733 229.114 85.0822L224.161 65.5852Z" fill="#37474F"/>
<path d="M230.541 53.6603C233.522 50.6786 233.522 45.8443 230.541 42.8626C227.56 39.8809 222.728 39.8809 219.747 42.8626C216.767 45.8443 216.767 50.6786 219.747 53.6603C222.728 56.642 227.56 56.642 230.541 53.6603Z" fill="#263238"/>
<path d="M206.873 186.633H212.251V177.425H206.873V186.633Z" fill="#FFA8A7"/>
<path d="M225.513 180.19L230.885 180.377L231.155 170.635L225.784 170.454L225.513 180.19Z" fill="#FFA8A7"/>
<path d="M207.228 104.456C207.228 109.611 206.584 140.712 206.584 140.712C206.455 142.188 205.076 144.913 205.373 150.589C205.778 158.321 206.448 178.334 206.448 178.334C206.448 178.334 208.967 180.834 212.522 178.334C212.522 178.334 217.391 150.628 218.357 142.974C219.195 136.305 220.625 118.193 220.625 118.193L223.6 143.322C223.6 143.322 222.724 148.334 222.531 151.872C222.338 155.409 225.449 173.36 225.449 173.36C226.319 173.905 227.317 174.212 228.343 174.252C229.369 174.291 230.387 174.062 231.297 173.585C231.297 173.585 233.616 146.208 234.17 143.012C234.724 139.817 232.386 104.444 232.386 104.444L207.228 104.456Z" fill="#EBEBEB"/>
<path d="M212.393 67.3118C211.249 67.5129 210.19 68.0487 209.35 68.8514C208.509 69.6541 207.926 70.6878 207.672 71.822C207.375 73.1633 207.226 74.5331 207.228 75.907V104.45C210.996 108.554 224.135 110.468 232.347 104.45C232.347 104.45 232.186 79.2381 231.574 75.0951C230.498 67.8981 227.065 65.3337 223.6 65.5979L215.298 66.7899L212.393 67.3118Z" fill="#F7444E"/>
<path d="M211.955 53.6846C211.955 53.6846 213.192 59.4834 213.688 60.4563C214.019 61.0444 214.563 61.4828 215.208 61.6805L215.124 57.5891L211.955 53.6846Z" fill="#263238"/>
<path d="M213.507 45.36C213.075 45.3107 212.637 45.3605 212.226 45.5057C211.815 45.6508 211.443 45.8874 211.137 46.1976C210.12 47.2349 210.693 50.4952 211.955 53.6845L214.287 53.9551L213.507 45.36Z" fill="#263238"/>
<path d="M214.982 53.9551C214.519 54.2386 213.855 53.3107 213.276 52.7373C212.696 52.1639 210.822 51.3069 209.881 53.285C208.941 55.263 210.712 57.9627 212.187 58.4395C214.763 59.2449 215.124 57.6019 215.124 57.6019L215.317 66.8092C215.882 68.044 216.743 69.1198 217.824 69.9406C218.905 70.7613 220.173 71.3014 221.513 71.5127C226.022 72.1248 225.107 68.3942 223.62 66.5643V63.768C224.757 63.9482 225.91 64.0065 227.059 63.9419C228.933 63.652 230.112 62.1701 230.685 60.1405C231.6 56.8738 231.973 54.2386 231.168 47.8212C230.318 40.7917 222.151 40.7337 217.726 43.4978C213.301 46.2619 214.982 53.9551 214.982 53.9551Z" fill="#FFA8A7"/>
<path d="M214.982 54.7412C214.751 54.7412 213.855 53.2657 213.276 52.7373C212.471 52.0028 213.507 45.3599 213.507 45.3599C213.297 44.7852 213.258 44.1615 213.396 43.5652C213.535 42.9689 213.844 42.426 214.287 42.0031C215.388 40.7853 217.237 40.65 220.386 40.1603C222.035 39.8961 224.541 39.4387 226.183 39.1294C228.154 38.7621 229.783 38.3756 231.175 39.5869C231.721 40.0585 232.107 40.6881 232.28 41.3886C232.453 42.0891 232.404 42.8261 232.141 43.4979C232 43.8051 231.811 44.0879 231.58 44.3355C231.205 44.7822 230.715 45.1185 230.163 45.3084C230.163 45.3084 229.307 46.0751 226.299 46.4359C223.539 46.6435 220.766 46.5917 218.016 46.2813C217.153 46.1653 216.966 47.0029 216.502 49.2967C216.116 51.3134 215.775 54.7283 214.982 54.7412Z" fill="#263238"/>
<path d="M213.514 45.8756L210.693 44.3872C210.782 44.1966 210.909 44.0261 211.066 43.8862C211.223 43.7463 211.407 43.6399 211.606 43.5735C211.806 43.5072 212.017 43.4823 212.226 43.5003C212.436 43.5184 212.639 43.579 212.825 43.6785C213.197 43.8883 213.476 44.2323 213.604 44.6405C213.732 45.0487 213.7 45.4904 213.514 45.8756Z" fill="#263238"/>
<path d="M223.613 63.7552C223.613 63.7552 219.427 62.9111 217.958 62.1315C217.098 61.6819 216.393 60.9837 215.936 60.1277C216.159 60.9849 216.551 61.7889 217.089 62.4923C218.158 63.8583 223.613 64.8698 223.613 64.8698V63.7552Z" fill="#F28F8F"/>
<path d="M222.609 52.9113C222.619 53.0279 222.605 53.1454 222.568 53.2562C222.53 53.3671 222.47 53.4689 222.391 53.5552C222.312 53.6415 222.215 53.7104 222.108 53.7576C222.001 53.8047 221.885 53.8291 221.768 53.8291C221.651 53.8291 221.535 53.8047 221.428 53.7576C221.321 53.7104 221.225 53.6415 221.146 53.5552C221.067 53.4689 221.006 53.3671 220.969 53.2562C220.931 53.1454 220.917 53.0279 220.927 52.9113C220.925 52.7991 220.944 52.6875 220.985 52.5829C221.026 52.4783 221.087 52.3828 221.165 52.302C221.243 52.2211 221.336 52.1565 221.439 52.1118C221.542 52.0671 221.653 52.0432 221.765 52.0415C221.992 52.0466 222.207 52.1407 222.365 52.3034C222.523 52.4662 222.611 52.6845 222.609 52.9113Z" fill="#263238"/>
<path d="M221.714 49.7414L219.923 50.7336C219.793 50.4876 219.764 50.2006 219.842 49.9335C219.92 49.6664 220.099 49.4403 220.341 49.3033C220.46 49.2382 220.59 49.1979 220.724 49.1849C220.858 49.1718 220.994 49.1862 221.122 49.2272C221.25 49.2682 221.369 49.3349 221.471 49.4233C221.573 49.5117 221.655 49.62 221.714 49.7414Z" fill="#263238"/>
<path d="M223.233 58.7102L225.165 59.4254C225.125 59.5539 225.06 59.673 224.973 59.7755C224.886 59.8781 224.779 59.9619 224.658 60.0221C224.538 60.0823 224.407 60.1175 224.273 60.1257C224.138 60.1339 224.004 60.1148 223.877 60.0697C223.612 59.9736 223.396 59.7769 223.276 59.5224C223.155 59.2678 223.14 58.976 223.233 58.7102Z" fill="#F28F8F"/>
<path d="M230.093 50.4374L228.45 49.1487C228.527 49.0384 228.626 48.9449 228.741 48.8741C228.856 48.8032 228.983 48.7564 229.117 48.7365C229.25 48.7166 229.386 48.724 229.516 48.7583C229.646 48.7927 229.768 48.8531 229.874 48.9361C230.099 49.1087 230.248 49.362 230.288 49.6423C230.329 49.9226 230.259 50.2078 230.093 50.4374Z" fill="#263238"/>
<path d="M229.585 52.6729C229.577 52.8367 229.522 52.9947 229.425 53.1273C229.328 53.2598 229.195 53.3611 229.042 53.4186C228.888 53.4762 228.721 53.4873 228.561 53.4508C228.401 53.4142 228.255 53.3315 228.142 53.213C228.029 53.0945 227.953 52.9453 227.923 52.784C227.894 52.6226 227.913 52.4562 227.977 52.3054C228.042 52.1546 228.149 52.026 228.286 51.9355C228.423 51.8451 228.583 51.7968 228.747 51.7966C228.859 51.7991 228.97 51.8238 229.073 51.8692C229.176 51.9146 229.27 51.9799 229.347 52.0612C229.425 52.1426 229.486 52.2385 229.527 52.3435C229.568 52.4484 229.587 52.5604 229.585 52.6729Z" fill="#263238"/>
<path d="M225.307 51.874L225.584 56.9255L228.218 56.0234L225.307 51.874Z" fill="#F28F8F"/>
<path d="M212.252 183.978V183.211C212.767 183.437 213.959 187.992 216.116 189.938C217.817 191.484 220.129 193.276 220.715 194.996C221.301 196.716 217.495 197.786 215.91 197.502C214.068 197.174 210.88 195.879 210.113 194.68C209.347 193.482 208.935 191.703 208.284 190.814C207.634 189.925 206.133 188.952 205.779 187.934C205.585 187.374 205.817 186.149 206.088 185.112C206.358 184.075 206.61 183.115 206.932 183.179V183.765C207.698 184.364 208.645 184.684 209.617 184.674C210.352 184.732 212.258 184.577 212.252 183.978Z" fill="#263238"/>
<path d="M230.943 178.72C231.22 178.72 231.445 179.12 232.064 179.79C232.982 180.721 234.051 181.49 235.226 182.064C237.236 183.076 241.152 184.642 242.955 185.421C244.063 185.917 244.005 187.258 242.865 187.999C241.725 188.74 238.962 189.287 235.645 188.566C233.835 188.16 231.484 186.491 229.996 186.581C228.508 186.671 225.726 186.652 224.624 185.892C223.523 185.131 223.98 183.521 224.277 182.129C224.618 180.615 225.101 178.263 225.603 178.392V178.875C226.247 179.848 229.539 180.247 230.956 179.519L230.943 178.72Z" fill="#263238"/>
<path d="M220.605 118.193C223.383 117.327 225.938 115.862 228.09 113.902C228.09 113.902 226.64 116.608 222.351 119.121L223.581 143.335L220.605 118.193Z" fill="#E0E0E0"/>
<path d="M198.906 112.543C199.078 114.983 199.401 117.41 199.872 119.811C201.482 126.022 203.543 127.884 206.313 128.064C210.699 128.361 210.725 126.718 208.76 123.889C207.903 122.655 207.251 121.291 206.828 119.849C207.472 120.387 208.179 120.843 208.934 121.209C209.271 121.384 209.661 121.426 210.027 121.327C210.393 121.228 210.709 120.995 210.912 120.674C211.053 120.378 210.268 120.081 209.45 119.057C208.38 117.768 207.833 116.705 206.352 115.616C205.858 115.131 205.545 114.492 205.463 113.806C205.244 112.923 205.089 98.8381 205.888 95.9257L209.656 82.3951C212.728 80.2882 215.994 69.8632 211.33 67.6467C206.951 68.1429 203.756 73.8708 198.983 91.5637C198.094 94.6758 198.41 107.723 198.906 112.543Z" fill="#FFA8A7"/>
<path d="M212.251 67.3698C212.852 67.9029 213.331 68.558 213.657 69.2914C213.984 70.0248 214.15 70.8195 214.145 71.6223C214.267 74.5732 212.857 78.8257 212.052 81.4868C211.247 84.1478 209.475 88.9608 209.475 88.9608C209.475 88.9608 202.268 88.1361 200.626 83.9029C200.626 83.9029 204.007 72.9496 207.253 69.4187C207.873 68.7158 208.646 68.1653 209.513 67.8099C210.38 67.4546 211.317 67.304 212.251 67.3698Z" fill="#37474F"/>
<path d="M241.763 90.6424L241.19 90.1528C241.105 90.0961 241.007 90.0607 240.905 90.0495C240.803 90.0383 240.7 90.0516 240.604 90.0883L234.447 91.7635C234.136 91.8656 233.852 92.0336 233.613 92.256C233.374 92.4785 233.186 92.7501 233.062 93.0522L228.624 105.848C228.572 105.952 228.552 106.068 228.567 106.183C228.582 106.298 228.631 106.406 228.708 106.493L229.294 107.002V106.576H229.339L235.503 104.901C235.813 104.799 236.097 104.631 236.336 104.409C236.575 104.186 236.763 103.915 236.888 103.613C237.757 101.093 240.449 93.3035 241.325 90.81C241.349 90.7368 241.364 90.6611 241.37 90.5845L241.763 90.6424Z" fill="#455A64"/>
<path d="M229.171 106.357L233.603 93.5548C233.728 93.2532 233.916 92.982 234.155 92.7596C234.394 92.5373 234.678 92.369 234.988 92.2662L241.151 90.591C241.725 90.4363 242.027 90.7649 241.834 91.319C240.965 93.8383 238.272 101.628 237.403 104.122C237.277 104.423 237.088 104.693 236.849 104.915C236.611 105.138 236.327 105.306 236.018 105.41L229.854 107.085C229.281 107.24 228.978 106.886 229.171 106.357Z" fill="#263238"/>
<path d="M240.031 96.4737C239.599 97.7623 238.047 98.645 235.522 99.2507C232.997 99.8563 231.567 102.556 231.98 103.381C232.392 104.205 236.488 104.966 238.144 104.734C239.799 104.502 241.448 102.118 241.944 101.383C242.44 100.649 243.026 95.5008 242.498 94.7984C242.286 94.5824 242.028 94.4165 241.744 94.3128C241.46 94.2091 241.156 94.1703 240.855 94.1992L240.031 96.4737Z" fill="#FFA8A7"/>
<path d="M192.768 77.8916L176.93 68.8325C176.93 68.8325 169.201 79.4315 174.469 82.4276C179.738 85.4236 184.929 88.4648 190.153 91.4867C196.078 89.1607 192.768 77.8916 192.768 77.8916Z" fill="#F7444E"/>
<path opacity="0.2" d="M192.768 77.8916L176.93 68.8325C176.93 68.8325 169.201 79.4315 174.469 82.4276C179.738 85.4236 184.929 88.4648 190.153 91.4867C196.078 89.1607 192.768 77.8916 192.768 77.8916Z" fill="black"/>
<path d="M190.153 79.3991L179.699 73.3555V74.0449L190.153 80.153V79.3991Z" fill="#263238"/>
<path d="M192.768 77.8914C191.75 81.2225 188.684 90.6359 190.153 91.4864C191.621 92.3369 196.169 89.4117 196.078 87.6205C195.814 82.6657 192.768 77.8914 192.768 77.8914Z" fill="#F7444E"/>
<path d="M169.42 10H171.462C174.502 10 177.418 11.2083 179.568 13.3591C181.718 15.51 182.926 18.4271 182.926 21.4688V45.8368H157.955V21.4688C157.955 18.4271 159.163 15.51 161.313 13.3591C163.463 11.2083 166.379 10 169.42 10Z" fill="#263238"/>
<path d="M192.922 65.7204C194.417 64.3287 193.805 62.705 191.731 58.2528C189.657 53.8006 184.723 43.5044 183.487 41.2944C181.329 37.4285 178.798 37.2352 174.991 37.2481C173.458 37.2481 177.342 41.6423 179.094 45.9012C180.672 49.7671 186.823 62.3635 186.823 62.3635L192.922 65.7204Z" fill="#B16668"/>
<path d="M168.595 165.519C168.048 165.029 167.494 164.546 166.992 164.088C165.433 162.671 164.248 160.261 163.565 158.618C163.178 157.68 162.978 156.675 162.979 155.661V152.439H157.388V157.645V157.787H157.421C157.691 158.953 160.267 162.059 161.729 164.082C162.708 165.441 164.576 167.168 166.805 167.464C168.885 167.754 169.967 167.084 168.595 165.519Z" fill="#B16668"/>
<path d="M184.82 156.943C184.976 156.851 185.112 156.728 185.219 156.582C185.657 155.983 185.309 155.654 184.994 155.177C184.607 154.509 184.284 153.805 184.028 153.077C183.77 152.432 183.429 151.298 183.429 151.298C183.429 151.298 183.429 150.454 183.429 150.119V146.898H177.812V152.252C178.102 153.495 179.236 154.707 179.983 155.699C180.556 156.466 182.044 156.859 182.939 157.052C183.335 157.152 183.745 157.178 184.15 157.129C184.384 157.114 184.612 157.05 184.82 156.943Z" fill="#B16668"/>
<path d="M158.483 70.5463C154.129 80.0564 158.638 113.561 158.638 113.561C158.509 115.101 156.744 118.142 156.062 124.933C155.282 132.961 157.279 153.109 157.279 153.109C158.135 153.606 159.099 153.887 160.088 153.926C161.077 153.965 162.061 153.762 162.953 153.334C162.953 153.334 168.338 122.994 169.336 115.004C170.212 108.039 171.913 92.73 171.913 92.73L175.262 114.998C174.562 117.239 174.055 119.537 173.748 121.866C173.291 126.563 177.838 148.418 177.838 148.418C177.838 148.418 179.77 149.127 183.454 148.586C183.454 148.586 185.058 119.592 185.483 113.928C186.198 104.431 185.116 74.7794 183.371 69.1545L158.483 70.5463Z" fill="#37474F"/>
<path d="M171.9 92.7108L173.31 83.8772C173.31 83.8772 179.294 82.6401 182.005 80.0886C182.005 80.0886 179.158 83.6259 174.92 84.7857L173.336 91.5897L174.753 111.757L171.9 92.7108Z" fill="#263238"/>
<path d="M162.992 156.794V155.982C163.533 156.214 164.789 161.002 167.024 163.038C168.801 164.655 171.223 166.53 171.835 168.334C172.447 170.138 168.467 171.246 166.805 170.956C164.873 170.615 161.536 169.255 160.699 167.999C159.862 166.742 159.469 164.88 158.767 163.959C158.065 163.038 156.519 162.026 156.145 160.944C155.946 160.357 156.184 159.069 156.467 157.986C156.751 156.904 157.015 155.892 157.356 155.989V156.633C158.156 157.262 159.147 157.598 160.164 157.587C161.002 157.587 162.998 157.419 162.992 156.794Z" fill="#263238"/>
<path d="M183.429 151.298C183.719 151.298 184.034 151.749 184.678 152.445C185.642 153.418 186.761 154.224 187.989 154.829C190.095 155.886 194.191 157.51 196.046 158.347C197.206 158.869 197.154 160.28 195.956 161.06C194.758 161.839 191.866 162.432 188.395 161.659C186.501 161.234 184.041 159.488 182.482 159.578C180.923 159.668 178.012 159.655 176.859 158.856C175.706 158.057 176.17 156.369 176.492 154.92C176.846 153.328 177.291 150.854 177.819 150.957V151.505C178.463 152.529 181.986 152.948 183.474 152.194L183.429 151.298Z" fill="#263238"/>
<path d="M166.161 37.5057C160.577 37.8923 160.19 40.5856 158.792 43.5365C157.73 45.7787 158.078 48.4591 158.889 50.8044L162.419 61.9833C162.419 61.9833 160.609 66.3904 158.483 70.5462C168.241 75.9971 180.427 73.1235 183.358 69.1545C183.487 68.3105 182.714 61.7191 182.263 57.4151C183.983 53.0982 184.44 50.3663 183.712 47.5119C182.366 42.2221 177.142 37.0676 174.83 37.2544L166.161 37.5057Z" fill="#F7444E"/>
<path d="M157.35 15.1545L159.037 17.8736C158.864 17.9928 158.669 18.0759 158.463 18.1178C158.258 18.1597 158.045 18.1596 157.84 18.1175C157.634 18.0754 157.439 17.9921 157.266 17.8727C157.093 17.7533 156.946 17.6001 156.834 17.4225C156.613 17.0505 156.543 16.6077 156.639 16.1856C156.735 15.7635 156.989 15.3944 157.35 15.1545Z" fill="#263238"/>
<path d="M178.83 15.0515C180.118 15.8311 181.78 19.1494 181.619 26.108C181.477 32.0035 179.571 33.4338 178.643 33.8849C177.716 34.3359 175.835 34.0459 174.031 33.7496V37.2997C174.031 37.2997 176.518 40.1863 176.363 41.8099C176.208 43.4336 172.775 43.8138 170.444 42.2287C168.937 41.1442 167.644 39.7897 166.631 38.234V29.6646C166.631 29.6646 165.414 31.2883 163.41 29.9674C161.407 28.6466 161.349 25.3799 162.502 24.2072C163.655 23.0346 166.135 23.4083 166.599 25.0577C166.599 25.0577 169.465 25.1673 173.284 23.0668C174.774 22.2617 176.053 21.1162 177.016 19.7234C177.98 18.3306 178.601 16.7299 178.83 15.0515Z" fill="#B16668"/>
<path d="M174.374 24.6261C174.381 24.7253 174.369 24.8251 174.338 24.9196C174.307 25.0142 174.257 25.1015 174.192 25.1765C174.126 25.2515 174.047 25.3127 173.957 25.3565C173.868 25.4003 173.771 25.4258 173.671 25.4315C173.476 25.4264 173.291 25.3479 173.151 25.2118C173.012 25.0757 172.929 24.8919 172.919 24.6973C172.909 24.5027 172.973 24.3116 173.098 24.1622C173.224 24.0128 173.401 23.9161 173.594 23.8916C173.693 23.8881 173.793 23.9044 173.886 23.9396C173.979 23.9747 174.064 24.028 174.137 24.0963C174.209 24.1646 174.268 24.2466 174.308 24.3375C174.349 24.4284 174.371 24.5265 174.374 24.6261Z" fill="#263238"/>
<path d="M175.229 29.6257L176.956 30.1734C176.929 30.2916 176.878 30.4029 176.805 30.5004C176.733 30.5979 176.641 30.6794 176.536 30.7398C176.431 30.8003 176.314 30.8384 176.194 30.8518C176.073 30.8652 175.951 30.8536 175.835 30.8177C175.597 30.7396 175.4 30.5703 175.286 30.3468C175.173 30.1234 175.152 29.8641 175.229 29.6257Z" fill="#9A4A4D"/>
<path d="M180.454 22.3516L178.952 21.3078C179.015 21.2074 179.098 21.1209 179.196 21.0535C179.294 20.9862 179.404 20.9393 179.52 20.9158C179.637 20.8923 179.756 20.8927 179.873 20.9168C179.989 20.941 180.099 20.9885 180.196 21.0565C180.398 21.1974 180.537 21.4108 180.585 21.6522C180.633 21.8936 180.586 22.1442 180.454 22.3516Z" fill="#263238"/>
<path d="M180.106 24.0912C180.114 24.1904 180.102 24.2902 180.071 24.3847C180.039 24.4792 179.99 24.5666 179.924 24.6416C179.859 24.7166 179.779 24.7778 179.69 24.8216C179.6 24.8654 179.503 24.8909 179.403 24.8966C179.209 24.8915 179.023 24.813 178.883 24.6769C178.744 24.5408 178.661 24.357 178.651 24.1624C178.642 23.9678 178.706 23.7767 178.831 23.6273C178.956 23.4779 179.133 23.3812 179.326 23.3567C179.426 23.3532 179.525 23.3695 179.618 23.4047C179.711 23.4398 179.797 23.4931 179.869 23.5614C179.942 23.6297 180 23.7116 180.041 23.8026C180.081 23.8935 180.103 23.9916 180.106 24.0912Z" fill="#263238"/>
<path d="M176.485 23.666L176.601 28.1311L178.952 27.403L176.485 23.666Z" fill="#9A4A4D"/>
<path d="M173.999 33.7495C172.106 33.4982 168.203 32.3771 167.597 30.8372C167.847 31.615 168.33 32.2968 168.982 32.7894C170.148 33.7881 174.019 34.9157 174.019 34.9157L173.999 33.7495Z" fill="#9A4A4D"/>
<path opacity="0.1" d="M168.653 71.6031C166 70.9588 163.301 68.0658 164.518 65.2308C164.863 64.4322 165.46 63.7689 166.219 63.343C166.496 63.1838 166.817 63.1162 167.135 63.1497C167.453 63.1833 167.752 63.3163 167.99 63.5299C166.702 62.6922 164.518 58.6137 164.222 57.1254L162.715 52.119C162.574 50.9704 162.675 49.8049 163.011 48.6977L159.089 44.1875L158.367 44.6901C157.723 46.623 158.206 48.8781 158.889 50.8433L162.419 62.0222C162.419 62.0222 160.609 66.3906 158.483 70.5465C161.658 72.2538 165.161 73.2608 168.758 73.4998C172.354 73.7387 175.96 73.2041 179.332 71.9317C175.784 72.497 172.16 72.3856 168.653 71.6031Z" fill="black"/>
<path d="M149.595 64.2384C153.82 46.9643 156.847 40.8562 160.19 38.8395C161.435 38.121 162.849 37.7474 164.287 37.757C164.743 38.3319 165.019 39.0292 165.079 39.7608C165.48 43.2414 164.625 46.7509 162.67 49.6575C162.67 49.6575 156.506 62.6727 155.521 67.2989C154.657 71.3452 153.685 76.4353 153.736 79.9275C153.75 80.5568 153.992 81.1595 154.419 81.622C155.553 82.8462 155.553 83.832 156.287 85.1851C156.854 86.2418 157.479 86.6348 157.305 86.8732C157.071 87.1274 156.748 87.2829 156.404 87.308C156.059 87.3331 155.718 87.226 155.45 87.0085C154.923 86.6303 154.452 86.1791 154.052 85.6683C154.243 86.9622 154.616 88.2225 155.16 89.4118C156.448 92.2661 156.12 93.7223 152.268 92.7043C149.853 92.0599 148.339 90.0561 147.978 84.2508C147.799 82.1076 147.777 79.9541 147.914 77.8077C148.429 72.3246 148.796 67.4857 149.595 64.2384Z" fill="#B16668"/>
<path d="M173.619 62.8531C174.779 63.1881 175.906 63.0399 177.484 63.6391C178.669 64.143 179.925 64.4624 181.207 64.5863C182.598 64.7023 183.963 63.2332 187.525 61.2101C190.906 59.2771 195.074 63.259 192.91 65.7203C192.147 66.454 191.253 67.0376 190.275 67.4406C188.659 68.0849 187.055 68.4264 182.913 69.6828C182.216 69.9211 181.54 70.2164 180.891 70.5655C180.087 70.9292 179.259 71.235 178.411 71.4805C176.477 72.1161 174.412 72.2425 172.415 71.8477C171.179 71.6455 170.039 71.0541 169.162 70.1596C168.421 69.322 167.752 67.7305 168.003 66.6094C168.069 66.2701 168.248 65.9633 168.512 65.7396C169.156 65.2306 170.154 65.5528 170.882 65.6687C171.73 65.8441 172.593 65.9347 173.458 65.9393C174.849 65.8814 175.822 65.6494 175.629 65.4432C175.436 65.237 174.624 65.3337 173.523 64.7989C172.421 64.2641 171.738 63.2074 172.054 62.6405C172.37 62.0735 172.46 62.518 173.619 62.8531Z" fill="#B16668"/>
<path d="M186.462 61.7836C186.462 61.7836 188.356 61.4679 189.586 63.6199C190.816 65.7719 191.46 77.1505 191.46 77.1505L190.172 76.3967C190.172 76.3967 189.734 67.2925 188.639 64.6959C188.357 64.0361 187.872 63.4832 187.255 63.1172C186.638 62.7512 185.92 62.591 185.206 62.6599C185.341 62.4322 185.522 62.2362 185.739 62.085C185.956 61.9338 186.202 61.831 186.462 61.7836Z" fill="#263238"/>
<path d="M109.7 226.88C109.7 222.355 108.359 217.931 105.846 214.169C103.333 210.406 99.7614 207.473 95.5828 205.742C91.4042 204.01 86.8061 203.557 82.3701 204.44C77.9341 205.322 73.8594 207.502 70.6612 210.701C67.463 213.901 65.285 217.978 64.4026 222.417C63.5202 226.855 63.9731 231.455 65.704 235.636C67.4348 239.817 70.3659 243.39 74.1266 245.904C77.8872 248.419 82.3086 249.76 86.8315 249.76C92.8944 249.753 98.707 247.341 102.994 243.051C107.281 238.762 109.693 232.946 109.7 226.88ZM69.7557 226.88C69.7557 223.501 70.7572 220.198 72.6335 217.388C74.5098 214.579 77.1767 212.389 80.2969 211.096C83.4171 209.803 86.8504 209.465 90.1628 210.124C93.4752 210.783 96.5178 212.41 98.9059 214.8C101.294 217.189 102.92 220.233 103.579 223.547C104.238 226.861 103.9 230.296 102.607 233.418C101.315 236.54 99.1264 239.208 96.3183 241.086C93.5102 242.963 90.2088 243.965 86.8315 243.965C82.3043 243.96 77.964 242.158 74.7628 238.955C71.5616 235.752 69.7609 231.41 69.7557 226.88Z" fill="#012C3D"/>
<path d="M128.123 289.034C128.113 280.353 124.662 272.03 118.527 265.892C112.392 259.754 104.074 256.301 95.3977 256.291H78.2662C69.5898 256.301 61.2717 259.754 55.1367 265.892C49.0017 272.03 45.5508 280.353 45.5411 289.034C45.5411 289.802 45.8463 290.54 46.3894 291.083C46.9326 291.626 47.6692 291.932 48.4374 291.932C49.2055 291.932 49.9422 291.626 50.4853 291.083C51.0285 290.54 51.3336 289.802 51.3336 289.034C51.3416 281.89 54.1817 275.04 59.2308 269.988C64.2798 264.936 71.1256 262.095 78.2662 262.086H95.3977C102.538 262.095 109.384 264.936 114.433 269.988C119.482 275.04 122.322 281.89 122.33 289.034C122.33 289.802 122.635 290.54 123.179 291.083C123.722 291.626 124.458 291.932 125.227 291.932C125.995 291.932 126.731 291.626 127.275 291.083C127.818 290.54 128.123 289.802 128.123 289.034Z" fill="#012C3D"/>
<path d="M28.1749 244.935C28.1749 245.315 28.2497 245.692 28.3953 246.044C28.5408 246.395 28.7541 246.715 29.0231 246.984C29.292 247.253 29.6113 247.466 29.9627 247.612C30.3142 247.758 30.6908 247.833 31.0712 247.833H40.4048V257.171C40.4048 257.94 40.7099 258.677 41.2531 259.22C41.7962 259.764 42.5329 260.069 43.301 260.069C44.0692 260.069 44.8059 259.764 45.349 259.22C45.8922 258.677 46.1973 257.94 46.1973 257.171V247.833H55.5309C56.2991 247.833 57.0357 247.527 57.5789 246.984C58.122 246.44 58.4272 245.703 58.4272 244.935C58.4272 244.166 58.122 243.429 57.5789 242.886C57.0357 242.342 56.2991 242.037 55.5309 242.037H46.1973V232.699C46.1973 231.93 45.8922 231.193 45.349 230.65C44.8059 230.106 44.0692 229.801 43.301 229.801C42.5329 229.801 41.7962 230.106 41.2531 230.65C40.7099 231.193 40.4048 231.93 40.4048 232.699V242.037H31.0712C30.6908 242.037 30.3142 242.112 29.9627 242.257C29.6113 242.403 29.292 242.617 29.0231 242.886C28.7541 243.155 28.5408 243.474 28.3953 243.826C28.2497 244.177 28.1749 244.554 28.1749 244.935Z" fill="#012C3D"/>
<defs>
<filter id="filter0_d_446_657" x="0" y="0.937012" width="530" height="318" filterUnits="userSpaceOnUse" color-interpolation-filters="sRGB">
<feFlood flood-opacity="0" result="BackgroundImageFix"/>
<feColorMatrix in="SourceAlpha" type="matrix" values="0 0 0 0 0 0 0 0 0 0 0 0 0 0 0 0 0 0 127 0" result="hardAlpha"/>
<feMorphology radius="3" operator="dilate" in="SourceAlpha" result="effect1_dropShadow_446_657"/>
<feOffset/>
<feGaussianBlur stdDeviation="10"/>
<feComposite in2="hardAlpha" operator="out"/>
<feColorMatrix type="matrix" values="0 0 0 0 0 0 0 0 0 0 0 0 0 0 0 0 0 0 0.25 0"/>
<feBlend mode="normal" in2="BackgroundImageFix" result="effect1_dropShadow_446_657"/>
<feBlend mode="normal" in="SourceGraphic" in2="effect1_dropShadow_446_657" result="shape"/>
</filter>
</defs>
</svg>
