<svg width="530" height="319" viewBox="0 0 530 319" fill="none" xmlns="http://www.w3.org/2000/svg">
<g filter="url(#filter0_d_368_338)">
<rect x="23" y="23.937" width="484" height="272" rx="10" fill="#218994"/>
</g>
<path d="M34 276.2V226.7C34 221.232 38.4324 216.8 43.9 216.8H46.375C49.4911 216.8 52.4253 215.333 54.295 212.84L65.284 198.188C65.8449 197.44 66.7252 197 67.66 197H99.34C100.275 197 101.155 197.44 101.716 198.188L112.705 212.84C114.575 215.333 117.509 216.8 120.625 216.8H123.1C128.568 216.8 133 221.232 133 226.7V276.2C133 281.668 128.568 286.1 123.1 286.1H43.9C38.4324 286.1 34 281.668 34 276.2Z" stroke="#012C3D" stroke-width="8" stroke-linecap="round" stroke-linejoin="round"/>
<path d="M83.5 266.3C94.4351 266.3 103.3 257.435 103.3 246.5C103.3 235.565 94.4351 226.7 83.5 226.7C72.5648 226.7 63.7 235.565 63.7 246.5C63.7 257.435 72.5648 266.3 83.5 266.3Z" stroke="#012C3D" stroke-width="8" stroke-linecap="round" stroke-linejoin="round"/>
<path d="M478.755 221.369C501.194 168.214 504.045 93.0878 465.35 46.4269C444.006 20.6875 410.426 12.1077 378.371 10.2202C349.642 8.50421 318.887 9.1906 292.791 22.7599C248.572 45.8065 247.456 100.598 214.312 132.931C187.602 159.02 176.515 196.164 199.324 245.056C222.133 293.948 264.497 305.015 306.202 289.374C347.906 273.732 366.808 270.472 416.993 278.293C440.053 281.89 456.79 264.578 466.908 245.953C471.244 237.928 475.224 229.731 478.755 221.369Z" fill="#F7444E"/>
<path opacity="0.7" d="M478.755 221.369C501.194 168.214 504.045 93.0878 465.35 46.4269C444.006 20.6875 410.426 12.1077 378.371 10.2202C349.642 8.50421 318.887 9.1906 292.791 22.7599C248.572 45.8065 247.456 100.598 214.312 132.931C187.602 159.02 176.515 196.164 199.324 245.056C222.133 293.948 264.497 305.015 306.202 289.374C347.906 273.732 366.808 270.472 416.993 278.293C440.053 281.89 456.79 264.578 466.908 245.953C471.244 237.928 475.224 229.731 478.755 221.369Z" fill="white"/>
<path d="M351.734 22.0798C351.596 21.6574 351.457 21.235 351.305 20.8126C345.689 5.19077 319.553 4.11499 319.553 23.3139C319.553 27.0099 310.683 23.3139 307.35 28.1186C304.017 32.9233 307.72 35.8801 303.285 37.3584C298.85 38.8368 298.48 35.1409 292.936 35.5105C287.392 35.88 288.125 41.0609 286.277 42.5393C284.429 44.0177 284.429 43.2785 280.337 43.6481C276.245 44.0177 275.532 46.948 275.532 46.948H372.794C372.794 46.948 376.49 35.8537 369.838 31.7683C363.185 27.683 363.158 33.2929 358.004 31.0754C353.727 29.2406 352.929 25.7625 351.734 22.0798Z" stroke="#B2B2B2" stroke-linecap="round" stroke-linejoin="round"/>
<path d="M355.093 42.928C355.093 42.928 357.106 36.7043 352.163 32.124C347.22 27.5437 342.092 30.1111 340.627 32.124C339.161 34.137 339.161 37.9847 336.785 38.3543C334.409 38.7239 334.951 34.3218 329.823 35.424C324.695 36.5261 326.714 41.6476 324.332 42.7432C321.949 43.8388 321.949 39.7997 318.656 41.1196C315.362 42.4396 315.541 44.7825 315.541 44.7825" stroke="#B2B2B2" stroke-linecap="round" stroke-linejoin="round"/>
<path d="M328.793 30.4875C327.444 29.5275 325.864 28.9459 324.214 28.8031C322.565 28.6604 320.908 28.9617 319.415 29.6758C314.135 32.1177 316.563 37.2194 314.135 38.4404C311.706 39.6613 310.465 38.2358 307.409 39.6613C304.354 41.0869 304.532 43.0999 304.532 43.0999" stroke="#B2B2B2" stroke-linecap="round" stroke-linejoin="round"/>
<path d="M236.903 154.499C236.831 154.268 236.752 154.043 236.672 153.839C233.636 145.397 219.513 144.817 219.513 155.192C219.513 157.172 214.715 155.192 212.913 157.785C211.111 160.379 213.111 161.983 210.715 162.781C208.319 163.58 208.115 161.58 205.118 161.785C202.122 161.989 202.518 164.781 201.522 165.58C200.525 166.378 200.525 165.976 198.327 166.18C196.129 166.385 195.727 167.975 195.727 167.975H248.321C248.321 167.975 250.301 161.983 246.717 159.785C243.134 157.587 243.127 160.584 240.329 159.382C237.986 158.366 237.55 156.485 236.903 154.499Z" stroke="#B2B2B2" stroke-linecap="round" stroke-linejoin="round"/>
<path d="M238.718 165.765C239.011 164.739 239.018 163.653 238.74 162.622C238.462 161.592 237.91 160.657 237.141 159.917C234.501 157.442 231.696 158.828 230.904 159.917C230.112 161.006 230.112 163.085 228.825 163.283C227.538 163.481 227.835 161.105 225.063 161.699C222.291 162.293 223.387 165.065 222.1 165.659C220.813 166.253 220.78 164.075 219.031 164.768C217.282 165.461 217.348 166.748 217.348 166.748" stroke="#B2B2B2" stroke-linecap="round" stroke-linejoin="round"/>
<path d="M224.509 159.04C223.78 158.521 222.926 158.206 222.035 158.128C221.144 158.051 220.248 158.213 219.44 158.598C216.576 159.918 217.902 162.676 216.576 163.336C215.249 163.996 214.596 163.231 212.939 163.996C211.283 164.762 211.402 165.857 211.402 165.857" stroke="#B2B2B2" stroke-linecap="round" stroke-linejoin="round"/>
<path d="M430.84 102.638C430.576 101.819 430.299 100.994 430.002 100.169C419.039 69.6911 368.056 67.5923 368.056 105.046C368.056 112.26 350.744 105.046 344.25 114.418C337.756 123.79 344.976 129.598 336.33 132.456C327.684 135.313 326.952 128.126 316.135 128.845C305.317 129.565 306.756 139.669 303.146 142.553C299.536 145.438 299.543 143.999 291.61 144.718C283.677 145.438 282.231 151.212 282.231 151.212H471.931C471.931 151.212 479.144 129.558 466.162 121.638C453.18 113.719 453.174 124.529 443.063 120.2C434.734 116.616 433.176 109.831 430.84 102.638Z" stroke="#B2B2B2" stroke-linecap="round" stroke-linejoin="round"/>
<path d="M360.228 146.889C360.228 146.889 359.872 142.269 366.307 139.748C372.741 137.227 372.735 145.107 377.381 142.962C382.027 140.817 378.094 130.812 388.099 128.667C398.105 126.522 397.029 135.102 401.675 134.389C406.321 133.676 406.295 126.166 409.179 122.239C412.063 118.312 422.036 113.309 431.685 122.239C441.334 131.168 437.4 143.319 437.4 143.319" stroke="#B2B2B2" stroke-linecap="round" stroke-linejoin="round"/>
<path d="M386.086 119.045C383.455 117.169 380.369 116.033 377.149 115.753C373.93 115.473 370.694 116.061 367.778 117.455C357.43 122.226 362.208 132.172 357.43 134.561C352.651 136.95 350.275 134.165 344.309 136.944C338.343 139.722 338.739 143.709 338.739 143.709" stroke="#B2B2B2" stroke-linecap="round" stroke-linejoin="round"/>
<path d="M487.612 294.125L480.517 215.884H300.975L300.136 294.125H487.612Z" fill="#F7444E" stroke="#263238" stroke-linecap="round" stroke-linejoin="round"/>
<path d="M482.761 240.614H300.711L300.909 221.851H481.058L482.761 240.614Z" fill="#F7444E" stroke="#263238" stroke-linecap="round" stroke-linejoin="round"/>
<path d="M482.206 234.482H300.77L300.974 215.884H480.517L482.206 234.482Z" fill="#263238" stroke="#263238" stroke-linecap="round" stroke-linejoin="round"/>
<path d="M303.331 294.125L305.165 77.3926H275.638L268.503 294.125H303.331Z" fill="#F7444E" stroke="#263238" stroke-linecap="round" stroke-linejoin="round"/>
<path d="M304.73 128.7H273.948L275.327 86.8574H305.086L304.73 128.7Z" fill="#F7444E" stroke="#263238" stroke-linecap="round" stroke-linejoin="round"/>
<path d="M304.756 126.153H274.034L275.327 86.8574H305.086L304.756 126.153Z" fill="#F7444E" stroke="#263238" stroke-linecap="round" stroke-linejoin="round"/>
<path d="M307.403 118.457H271.704L272.813 86.8574H307.601L307.403 118.457Z" fill="#F7444E" stroke="#263238" stroke-linecap="round" stroke-linejoin="round"/>
<path d="M302.803 118.457H276.304L277.294 86.8574H303.119L302.803 118.457Z" fill="#F7444E" stroke="#263238" stroke-linecap="round" stroke-linejoin="round"/>
<path d="M301.397 91.4507H278.99L278.344 113.303H301.146L301.397 91.4507Z" fill="white" stroke="#263238" stroke-linecap="round" stroke-linejoin="round"/>
<path d="M300.288 102.453C300.286 101.125 300.019 99.8109 299.503 98.5874C298.987 97.3639 298.232 96.2555 297.282 95.327C296.333 94.3985 295.208 93.6686 293.973 93.1799C292.739 92.6911 291.419 92.4534 290.091 92.4806C284.396 92.4806 279.644 96.9289 279.485 102.453C279.463 103.795 279.711 105.128 280.216 106.371C280.721 107.615 281.472 108.744 282.423 109.69C283.375 110.637 284.507 111.382 285.754 111.88C287 112.378 288.334 112.62 289.676 112.59C295.464 112.59 300.216 108.03 300.288 102.453Z" fill="white" stroke="#263238" stroke-linecap="round" stroke-linejoin="round"/>
<path d="M296.5 102.453C296.501 101.611 296.334 100.777 296.008 100C295.683 99.2236 295.205 98.5199 294.604 97.9303C294.003 97.3407 293.29 96.8772 292.507 96.5669C291.724 96.2566 290.887 96.1059 290.045 96.1234C288.318 96.0924 286.647 96.7364 285.387 97.9184C284.128 99.1004 283.379 100.727 283.3 102.453C283.288 103.3 283.448 104.141 283.768 104.926C284.089 105.711 284.564 106.423 285.166 107.02C285.768 107.617 286.484 108.086 287.271 108.4C288.058 108.714 288.901 108.867 289.748 108.848C291.487 108.88 293.17 108.228 294.433 107.032C295.695 105.836 296.438 104.191 296.5 102.453Z" stroke="#0B0B0B" stroke-width="0.5" stroke-linejoin="round"/>
<path d="M290.091 92.48L290.012 96.1231" stroke="#0B0B0B" stroke-width="0.5" stroke-linejoin="round"/>
<path d="M289.755 108.848L289.676 112.59" stroke="#0B0B0B" stroke-width="0.5" stroke-linejoin="round"/>
<path d="M300.288 102.452H296.467" stroke="#0B0B0B" stroke-width="0.5" stroke-linejoin="round"/>
<path d="M283.307 102.452H279.485" stroke="#0B0B0B" stroke-width="0.5" stroke-linejoin="round"/>
<path d="M295.899 94.2158L293.695 97.232" stroke="#0B0B0B" stroke-width="0.5" stroke-linejoin="round"/>
<path d="M286.039 107.719L283.788 110.801" stroke="#0B0B0B" stroke-width="0.5" stroke-linejoin="round"/>
<path d="M299.061 97.6216L295.695 99.3903" stroke="#0B0B0B" stroke-width="0.5" stroke-linejoin="round"/>
<path d="M284.046 105.528L280.64 107.323" stroke="#0B0B0B" stroke-width="0.5" stroke-linejoin="round"/>
<path d="M299.437 106.333L295.919 104.908" stroke="#0B0B0B" stroke-width="0.5" stroke-linejoin="round"/>
<path d="M283.874 100.01L280.396 98.5913" stroke="#0B0B0B" stroke-width="0.5" stroke-linejoin="round"/>
<path d="M295.899 110.616L293.682 107.606" stroke="#0B0B0B" stroke-width="0.5" stroke-linejoin="round"/>
<path d="M286.118 97.3442L283.947 94.394" stroke="#0B0B0B" stroke-width="0.5" stroke-linejoin="round"/>
<path d="M291.695 103.68L282.191 97.2324" stroke="#0B0B0B" stroke-width="0.5" stroke-linejoin="round"/>
<path d="M289.2 104.044L291.774 99.3906" stroke="#0B0B0B" stroke-width="0.5" stroke-linejoin="round"/>
<path d="M307.693 73.0171H273.295L273.143 77.3928H307.667L307.693 73.0171Z" fill="#F7444E" stroke="#263238" stroke-linecap="round" stroke-linejoin="round"/>
<path d="M299.179 58.1543H282.739C281.941 61.1176 278.489 68.8988 276.139 73.0172H305.179V72.8852C302.968 68.7801 299.853 61.0846 299.179 58.1543Z" fill="#C4C4C4" stroke="#263238" stroke-linecap="round" stroke-linejoin="round"/>
<path d="M299.536 55.792H282.422L282.356 58.1547H299.503L299.536 55.792Z" fill="white" stroke="#263238" stroke-linecap="round" stroke-linejoin="round"/>
<path d="M299.727 41.6152H282.818L282.759 43.8196H299.694L299.727 41.6152Z" fill="#F7444E" stroke="#263238" stroke-linecap="round" stroke-linejoin="round"/>
<path d="M298.889 43.8193H283.346L283.016 55.7915H298.724L298.889 43.8193Z" fill="#F7444E" stroke="#263238" stroke-linecap="round" stroke-linejoin="round"/>
<path d="M292.012 15.6641H291.616C289.852 24.5606 287.098 33.2317 283.406 41.5157H298.922C295.656 33.1848 293.339 24.5131 292.012 15.6641Z" fill="#C4C4C4" stroke="#263238" stroke-linecap="round" stroke-linejoin="round"/>
<path d="M287.313 65.2493H285.273L285.366 61.6128L286.402 60.8472L287.399 61.6128L287.313 65.2493Z" fill="white" stroke="#263238" stroke-linecap="round" stroke-linejoin="round"/>
<path d="M291.807 65.2493H289.761L289.841 61.6128L290.877 60.8472L291.88 61.6128L291.807 65.2493Z" fill="white" stroke="#263238" stroke-linecap="round" stroke-linejoin="round"/>
<path d="M296.295 65.2493H294.256L294.322 61.6128L295.351 60.8472L296.355 61.6128L296.295 65.2493Z" fill="white" stroke="#263238" stroke-linecap="round" stroke-linejoin="round"/>
<path d="M288.085 54.8543H286.435L286.587 48.525L287.438 47.2051L288.23 48.525L288.085 54.8543Z" fill="#263238" stroke="#263238" stroke-linecap="round" stroke-linejoin="round"/>
<path d="M291.715 54.8543H290.065L290.197 48.525L291.048 47.2051L291.84 48.525L291.715 54.8543Z" fill="#263238" stroke="#263238" stroke-linecap="round" stroke-linejoin="round"/>
<path d="M295.345 54.8543H293.695L293.807 48.525L294.652 47.2051L295.45 48.525L295.345 54.8543Z" fill="#263238" stroke="#263238" stroke-linecap="round" stroke-linejoin="round"/>
<path d="M284.95 71.3477H282.898L282.997 67.6716L284.039 66.8994L285.043 67.6716L284.95 71.3477Z" fill="white" stroke="#263238" stroke-linecap="round" stroke-linejoin="round"/>
<path d="M289.465 71.3477H287.412L287.498 67.6716L288.541 66.8994L289.544 67.6716L289.465 71.3477Z" fill="white" stroke="#263238" stroke-linecap="round" stroke-linejoin="round"/>
<path d="M293.985 71.3477H291.933L292.005 67.6716L293.041 66.8994L294.045 67.6716L293.985 71.3477Z" fill="white" stroke="#263238" stroke-linecap="round" stroke-linejoin="round"/>
<path d="M298.42 71.3477H296.368L296.427 67.6716L297.463 66.8994L298.473 67.6716L298.42 71.3477Z" fill="white" stroke="#263238" stroke-linecap="round" stroke-linejoin="round"/>
<path d="M280.33 85.5172H278.099L278.317 78.4092H280.535L280.33 85.5172Z" fill="#263238" stroke="#263238" stroke-linecap="round" stroke-linejoin="round"/>
<path d="M284.739 85.5172H282.508L282.7 78.4092H284.917L284.739 85.5172Z" fill="#263238" stroke="#263238" stroke-linecap="round" stroke-linejoin="round"/>
<path d="M289.148 85.5172H286.917L287.082 78.4092H289.299L289.148 85.5172Z" fill="#263238" stroke="#263238" stroke-linecap="round" stroke-linejoin="round"/>
<path d="M293.556 85.5172H291.326L291.464 78.4092H293.682L293.556 85.5172Z" fill="#263238" stroke="#263238" stroke-linecap="round" stroke-linejoin="round"/>
<path d="M297.965 85.5172H295.734L295.847 78.4092H298.064L297.965 85.5172Z" fill="#263238" stroke="#263238" stroke-linecap="round" stroke-linejoin="round"/>
<path d="M302.367 85.5172H300.136L300.229 78.4092H302.446L302.367 85.5172Z" fill="#263238" stroke="#263238" stroke-linecap="round" stroke-linejoin="round"/>
<path d="M279.162 126.04H276.859L277.09 118.457H279.38L279.162 126.04Z" fill="#263238" stroke="#263238" stroke-linecap="round" stroke-linejoin="round"/>
<path d="M283.716 126.04H281.413L281.617 118.457H283.907L283.716 126.04Z" fill="#263238" stroke="#263238" stroke-linecap="round" stroke-linejoin="round"/>
<path d="M288.27 126.04H285.966L286.145 118.457H288.435L288.27 126.04Z" fill="#263238" stroke="#263238" stroke-linecap="round" stroke-linejoin="round"/>
<path d="M292.824 126.04H290.52L290.672 118.457H292.962L292.824 126.04Z" fill="#263238" stroke="#263238" stroke-linecap="round" stroke-linejoin="round"/>
<path d="M297.384 126.04H295.074L295.2 118.457H297.49L297.384 126.04Z" fill="#263238" stroke="#263238" stroke-linecap="round" stroke-linejoin="round"/>
<path d="M301.938 126.04H299.628L299.727 118.457H302.017L301.938 126.04Z" fill="#263238" stroke="#263238" stroke-linecap="round" stroke-linejoin="round"/>
<path d="M278.41 152.097H276.06L276.727 130.337H279.037L278.41 152.097Z" fill="#F7444E" stroke="#263238" stroke-linecap="round" stroke-linejoin="round"/>
<path d="M283.063 152.097H280.706L281.294 130.337H283.61L283.063 152.097Z" fill="#F7444E" stroke="#263238" stroke-linecap="round" stroke-linejoin="round"/>
<path d="M287.709 152.097H285.359L285.867 130.337H288.177L287.709 152.097Z" fill="#F7444E" stroke="#263238" stroke-linecap="round" stroke-linejoin="round"/>
<path d="M292.355 152.097H290.006L290.435 130.337H292.751L292.355 152.097Z" fill="#F7444E" stroke="#263238" stroke-linecap="round" stroke-linejoin="round"/>
<path d="M297.008 152.097H294.652L295.008 130.337H297.318L297.008 152.097Z" fill="#F7444E" stroke="#263238" stroke-linecap="round" stroke-linejoin="round"/>
<path d="M301.654 152.097H299.305L299.575 130.337H301.892L301.654 152.097Z" fill="#F7444E" stroke="#263238" stroke-linecap="round" stroke-linejoin="round"/>
<path d="M278.212 159.026H275.849L276.021 153.37H278.377L278.212 159.026Z" fill="#F7444E" stroke="#263238" stroke-linecap="round" stroke-linejoin="round"/>
<path d="M282.884 159.026H280.522L280.673 153.37H283.029L282.884 159.026Z" fill="#F7444E" stroke="#263238" stroke-linecap="round" stroke-linejoin="round"/>
<path d="M287.557 159.026H285.194L285.326 153.37H287.682L287.557 159.026Z" fill="#F7444E" stroke="#263238" stroke-linecap="round" stroke-linejoin="round"/>
<path d="M292.236 159.026H289.867L289.979 153.37H292.335L292.236 159.026Z" fill="#F7444E" stroke="#263238" stroke-linecap="round" stroke-linejoin="round"/>
<path d="M296.909 159.026H294.54L294.632 153.37H296.988L296.909 159.026Z" fill="#F7444E" stroke="#263238" stroke-linecap="round" stroke-linejoin="round"/>
<path d="M301.582 159.026H299.219L299.285 153.37H301.641L301.582 159.026Z" fill="#F7444E" stroke="#263238" stroke-linecap="round" stroke-linejoin="round"/>
<path d="M277.281 191.3H274.859L275.037 185.354H277.453L277.281 191.3Z" fill="#F7444E" stroke="#263238" stroke-linecap="round" stroke-linejoin="round"/>
<path d="M282.073 191.3H279.65L279.809 185.354H282.224L282.073 191.3Z" fill="#F7444E" stroke="#263238" stroke-linecap="round" stroke-linejoin="round"/>
<path d="M286.864 191.3H284.435L284.581 185.354H286.99L286.864 191.3Z" fill="#F7444E" stroke="#263238" stroke-linecap="round" stroke-linejoin="round"/>
<path d="M291.656 191.3H289.227L289.346 185.354H291.761L291.656 191.3Z" fill="#F7444E" stroke="#263238" stroke-linecap="round" stroke-linejoin="round"/>
<path d="M296.447 191.3H294.018L294.117 185.354H296.533L296.447 191.3Z" fill="#F7444E" stroke="#263238" stroke-linecap="round" stroke-linejoin="round"/>
<path d="M301.238 191.3H298.81L298.889 185.354H301.298L301.238 191.3Z" fill="#F7444E" stroke="#263238" stroke-linecap="round" stroke-linejoin="round"/>
<path d="M277.492 184.014H275.077L275.809 160.313H278.172L277.492 184.014Z" fill="#F7444E" stroke="#263238" stroke-linecap="round" stroke-linejoin="round"/>
<path d="M282.257 184.014H279.842L280.489 160.313H282.851L282.257 184.014Z" fill="#F7444E" stroke="#263238" stroke-linecap="round" stroke-linejoin="round"/>
<path d="M287.022 184.014H284.607L285.161 160.313H287.531L287.022 184.014Z" fill="#F7444E" stroke="#263238" stroke-linecap="round" stroke-linejoin="round"/>
<path d="M291.788 184.014H289.372L289.841 160.313H292.21L291.788 184.014Z" fill="#F7444E" stroke="#263238" stroke-linecap="round" stroke-linejoin="round"/>
<path d="M296.546 184.014H294.137L294.52 160.313H296.889L296.546 184.014Z" fill="#F7444E" stroke="#263238" stroke-linecap="round" stroke-linejoin="round"/>
<path d="M301.311 184.014H298.902L299.199 160.313H301.569L301.311 184.014Z" fill="#F7444E" stroke="#263238" stroke-linecap="round" stroke-linejoin="round"/>
<path d="M276.522 217.56H274.054L274.813 192.652H277.242L276.522 217.56Z" fill="#F7444E" stroke="#263238" stroke-linecap="round" stroke-linejoin="round"/>
<path d="M281.413 217.56H278.938L279.611 192.652H282.04L281.413 217.56Z" fill="#F7444E" stroke="#263238" stroke-linecap="round" stroke-linejoin="round"/>
<path d="M286.296 217.56H283.822L284.409 192.652H286.831L286.296 217.56Z" fill="#F7444E" stroke="#263238" stroke-linecap="round" stroke-linejoin="round"/>
<path d="M291.18 217.56H288.712L289.2 192.652H291.629L291.18 217.56Z" fill="#F7444E" stroke="#263238" stroke-linecap="round" stroke-linejoin="round"/>
<path d="M296.071 217.56H293.596L293.998 192.652H296.427L296.071 217.56Z" fill="#F7444E" stroke="#263238" stroke-linecap="round" stroke-linejoin="round"/>
<path d="M300.955 217.56H298.48L298.797 192.652H301.219L300.955 217.56Z" fill="#F7444E" stroke="#263238" stroke-linecap="round" stroke-linejoin="round"/>
<path d="M275.275 260.875H272.721L272.925 254.289H275.466L275.275 260.875Z" fill="#F7444E" stroke="#263238" stroke-linecap="round" stroke-linejoin="round"/>
<path d="M280.317 260.875H277.77L277.941 254.289H280.482L280.317 260.875Z" fill="#F7444E" stroke="#263238" stroke-linecap="round" stroke-linejoin="round"/>
<path d="M285.359 260.875H282.812L282.963 254.289H285.504L285.359 260.875Z" fill="#F7444E" stroke="#263238" stroke-linecap="round" stroke-linejoin="round"/>
<path d="M290.401 260.875H287.854L287.979 254.289H290.52L290.401 260.875Z" fill="#F7444E" stroke="#263238" stroke-linecap="round" stroke-linejoin="round"/>
<path d="M295.45 260.875H292.896L293.002 254.289H295.543L295.45 260.875Z" fill="#F7444E" stroke="#263238" stroke-linecap="round" stroke-linejoin="round"/>
<path d="M300.493 260.875H297.939L298.018 254.289H300.559L300.493 260.875Z" fill="#F7444E" stroke="#263238" stroke-linecap="round" stroke-linejoin="round"/>
<path d="M274.437 290H271.83L272.681 262.373H275.235L274.437 290Z" fill="#F7444E" stroke="#263238" stroke-linecap="round" stroke-linejoin="round"/>
<path d="M279.584 290H276.977L277.723 262.373H280.284L279.584 290Z" fill="#F7444E" stroke="#263238" stroke-linecap="round" stroke-linejoin="round"/>
<path d="M284.732 290H282.125L282.772 262.373H285.326L284.732 290Z" fill="#F7444E" stroke="#263238" stroke-linecap="round" stroke-linejoin="round"/>
<path d="M289.88 290H287.273L287.821 262.373H290.375L289.88 290Z" fill="#F7444E" stroke="#263238" stroke-linecap="round" stroke-linejoin="round"/>
<path d="M295.028 290H292.421L292.87 262.373H295.424L295.028 290Z" fill="#F7444E" stroke="#263238" stroke-linecap="round" stroke-linejoin="round"/>
<path d="M300.176 290H297.569L297.919 262.373H300.473L300.176 290Z" fill="#F7444E" stroke="#263238" stroke-linecap="round" stroke-linejoin="round"/>
<path d="M276.205 228.641H273.711L274.008 218.986H276.483L276.205 228.641Z" fill="#F7444E" stroke="#263238" stroke-linecap="round" stroke-linejoin="round"/>
<path d="M281.129 228.641H278.641L278.898 218.986H281.373L281.129 228.641Z" fill="#F7444E" stroke="#263238" stroke-linecap="round" stroke-linejoin="round"/>
<path d="M286.059 228.641H283.564L283.788 218.986H286.263L286.059 228.641Z" fill="#F7444E" stroke="#263238" stroke-linecap="round" stroke-linejoin="round"/>
<path d="M290.982 228.641H288.488L288.679 218.986H291.154L290.982 228.641Z" fill="#F7444E" stroke="#263238" stroke-linecap="round" stroke-linejoin="round"/>
<path d="M295.906 228.641H293.418L293.569 218.986H296.044L295.906 228.641Z" fill="#F7444E" stroke="#263238" stroke-linecap="round" stroke-linejoin="round"/>
<path d="M300.836 228.641H298.341L298.46 218.986H300.942L300.836 228.641Z" fill="#F7444E" stroke="#263238" stroke-linecap="round" stroke-linejoin="round"/>
<path d="M275.506 252.883H272.965L273.671 230.074H276.166L275.506 252.883Z" fill="#F7444E" stroke="#263238" stroke-linecap="round" stroke-linejoin="round"/>
<path d="M280.522 252.883H277.981L278.601 230.074H281.096L280.522 252.883Z" fill="#F7444E" stroke="#263238" stroke-linecap="round" stroke-linejoin="round"/>
<path d="M285.531 252.883H282.997L283.531 230.074H286.026L285.531 252.883Z" fill="#F7444E" stroke="#263238" stroke-linecap="round" stroke-linejoin="round"/>
<path d="M290.547 252.883H288.013L288.461 230.074H290.956L290.547 252.883Z" fill="#F7444E" stroke="#263238" stroke-linecap="round" stroke-linejoin="round"/>
<path d="M295.563 252.883H293.022L293.391 230.074H295.886L295.563 252.883Z" fill="#F7444E" stroke="#263238" stroke-linecap="round" stroke-linejoin="round"/>
<path d="M300.579 252.883H298.038L298.322 230.074H300.823L300.579 252.883Z" fill="#F7444E" stroke="#263238" stroke-linecap="round" stroke-linejoin="round"/>
<path d="M292.197 9.98193H291.722L291.596 16.3046H292.065L292.197 9.98193Z" fill="#625D40"/>
<path d="M294.48 13.3477L294.487 12.9253H289.313L289.306 13.3477H294.48Z" fill="#625D40"/>
<path d="M292.071 25.8354H291.035L291.075 24.0468L291.596 23.6772L292.104 24.0468L292.071 25.8354Z" fill="white" stroke="#263238" stroke-linecap="round" stroke-linejoin="round"/>
<path d="M291.807 38.8171H290.765L290.798 36.9956L291.332 36.6128L291.84 36.9956L291.807 38.8171Z" fill="white" stroke="#263238" stroke-linecap="round" stroke-linejoin="round"/>
<path d="M288.422 38.8171H287.379L287.418 36.9956L287.953 36.6128L288.461 36.9956L288.422 38.8171Z" fill="white" stroke="#263238" stroke-linecap="round" stroke-linejoin="round"/>
<path d="M295.173 38.8171H294.13L294.163 36.9956L294.691 36.6128L295.206 36.9956L295.173 38.8171Z" fill="white" stroke="#263238" stroke-linecap="round" stroke-linejoin="round"/>
<path d="M290.19 33.0356H289.148L289.194 31.2273L289.715 30.8511L290.23 31.2273L290.19 33.0356Z" fill="white" stroke="#263238" stroke-linecap="round" stroke-linejoin="round"/>
<path d="M293.655 33.0356H292.619L292.652 31.2273L293.18 30.8511L293.688 31.2273L293.655 33.0356Z" fill="white" stroke="#263238" stroke-linecap="round" stroke-linejoin="round"/>
<path d="M324.582 294.126L324.12 222.563H320.226L320.484 294.126H324.582Z" fill="#F7444E" stroke="#263238" stroke-linecap="round" stroke-linejoin="round"/>
<path d="M323.129 218.029H321.216L321.229 219.77H323.142L323.129 218.029Z" fill="#F7444E" stroke="#263238" stroke-linecap="round" stroke-linejoin="round"/>
<path d="M323.07 211.891H321.17L321.724 213.619H322.47L323.07 211.891Z" fill="#F7444E" stroke="#263238" stroke-linecap="round" stroke-linejoin="round"/>
<path d="M323.539 219.421H320.827L320.833 221.17H323.546L323.539 219.421Z" fill="#F7444E" stroke="#263238" stroke-linecap="round" stroke-linejoin="round"/>
<path d="M324.14 220.609H320.24V222.081H324.153L324.14 220.609Z" fill="#F7444E" stroke="#263238" stroke-linecap="round" stroke-linejoin="round"/>
<path d="M324.615 222.009H319.777L319.784 223.342H324.622L324.615 222.009Z" fill="#F7444E" stroke="#263238" stroke-linecap="round" stroke-linejoin="round"/>
<path d="M322.318 208.624H321.889L321.936 218.009H322.371L322.318 208.624Z" fill="#F7444E" stroke="#263238" stroke-linecap="round" stroke-linejoin="round"/>
<path d="M347.378 294.126L345.774 222.563H341.88L343.28 294.126H347.378Z" fill="#F7444E" stroke="#263238" stroke-linecap="round" stroke-linejoin="round"/>
<path d="M344.712 218.029H342.798L342.831 219.771H344.751L344.712 218.029Z" fill="#F7444E" stroke="#263238" stroke-linecap="round" stroke-linejoin="round"/>
<path d="M344.552 211.891H342.646L343.233 213.619H343.978L344.552 211.891Z" fill="#F7444E" stroke="#263238" stroke-linecap="round" stroke-linejoin="round"/>
<path d="M345.141 219.421H342.428L342.468 221.17H345.18L345.141 219.421Z" fill="#F7444E" stroke="#263238" stroke-linecap="round" stroke-linejoin="round"/>
<path d="M345.761 220.609H341.861L341.887 222.081H345.794L345.761 220.609Z" fill="#F7444E" stroke="#263238" stroke-linecap="round" stroke-linejoin="round"/>
<path d="M346.256 222.009H341.418L341.445 223.342H346.289L346.256 222.009Z" fill="#F7444E" stroke="#263238" stroke-linecap="round" stroke-linejoin="round"/>
<path d="M343.748 208.624H343.319L343.51 218.009H343.946L343.748 208.624Z" fill="#F7444E" stroke="#263238" stroke-linecap="round" stroke-linejoin="round"/>
<path d="M370.174 294.126L367.422 222.563H363.528L366.075 294.126H370.174Z" fill="#F7444E" stroke="#263238" stroke-linecap="round" stroke-linejoin="round"/>
<path d="M366.293 218.029H364.379L364.439 219.771H366.359L366.293 218.029Z" fill="#F7444E" stroke="#263238" stroke-linecap="round" stroke-linejoin="round"/>
<path d="M366.035 211.891H364.129L364.735 213.619H365.487L366.035 211.891Z" fill="#F7444E" stroke="#263238" stroke-linecap="round" stroke-linejoin="round"/>
<path d="M366.742 219.421H364.029L364.095 221.17H366.808L366.742 219.421Z" fill="#F7444E" stroke="#263238" stroke-linecap="round" stroke-linejoin="round"/>
<path d="M367.382 220.609H363.482L363.528 222.081H367.442L367.382 220.609Z" fill="#F7444E" stroke="#263238" stroke-linecap="round" stroke-linejoin="round"/>
<path d="M367.897 222.009H363.066L363.112 223.342H367.95L367.897 222.009Z" fill="#F7444E" stroke="#263238" stroke-linecap="round" stroke-linejoin="round"/>
<path d="M365.178 208.624H364.742L365.092 218.009H365.528L365.178 208.624Z" fill="#F7444E" stroke="#263238" stroke-linecap="round" stroke-linejoin="round"/>
<path d="M392.97 294.126L389.076 222.563H385.182L388.871 294.126H392.97Z" fill="#F7444E" stroke="#263238" stroke-linecap="round" stroke-linejoin="round"/>
<path d="M387.868 218.029H385.954L386.046 219.771H387.967L387.868 218.029Z" fill="#F7444E" stroke="#263238" stroke-linecap="round" stroke-linejoin="round"/>
<path d="M387.517 211.891H385.611L386.244 213.619H386.996L387.517 211.891Z" fill="#F7444E" stroke="#263238" stroke-linecap="round" stroke-linejoin="round"/>
<path d="M388.343 219.421H385.631L385.723 221.17H388.436L388.343 219.421Z" fill="#F7444E" stroke="#263238" stroke-linecap="round" stroke-linejoin="round"/>
<path d="M389.003 220.609H385.096L385.175 222.081H389.083L389.003 220.609Z" fill="#F7444E" stroke="#263238" stroke-linecap="round" stroke-linejoin="round"/>
<path d="M389.544 222.009H384.707L384.773 223.342H389.617L389.544 222.009Z" fill="#F7444E" stroke="#263238" stroke-linecap="round" stroke-linejoin="round"/>
<path d="M386.608 208.624H386.172L386.674 218.009H387.109L386.608 208.624Z" fill="#F7444E" stroke="#263238" stroke-linecap="round" stroke-linejoin="round"/>
<path d="M415.766 294.126L410.723 222.563H406.836L411.667 294.126H415.766Z" fill="#F7444E" stroke="#263238" stroke-linecap="round" stroke-linejoin="round"/>
<path d="M409.45 218.029H407.536L407.654 219.771H409.568L409.45 218.029Z" fill="#F7444E" stroke="#263238" stroke-linecap="round" stroke-linejoin="round"/>
<path d="M409 211.891H407.094L407.753 213.619H408.505L409 211.891Z" fill="#F7444E" stroke="#263238" stroke-linecap="round" stroke-linejoin="round"/>
<path d="M409.945 219.421H407.232L407.351 221.17H410.063L409.945 219.421Z" fill="#F7444E" stroke="#263238" stroke-linecap="round" stroke-linejoin="round"/>
<path d="M410.624 220.609H406.717L406.816 222.081H410.723L410.624 220.609Z" fill="#F7444E" stroke="#263238" stroke-linecap="round" stroke-linejoin="round"/>
<path d="M411.185 222.009H406.348L406.44 223.342H411.278L411.185 222.009Z" fill="#F7444E" stroke="#263238" stroke-linecap="round" stroke-linejoin="round"/>
<path d="M408.037 208.624H407.602L408.248 218.009H408.684L408.037 208.624Z" fill="#F7444E" stroke="#263238" stroke-linecap="round" stroke-linejoin="round"/>
<path d="M438.561 294.126L432.377 222.563H428.484L434.463 294.126H438.561Z" fill="#F7444E" stroke="#263238" stroke-linecap="round" stroke-linejoin="round"/>
<path d="M431.031 218.029H429.117L429.262 219.771H431.176L431.031 218.029Z" fill="#F7444E" stroke="#263238" stroke-linecap="round" stroke-linejoin="round"/>
<path d="M430.476 211.891H428.576L429.262 213.619H430.014L430.476 211.891Z" fill="#F7444E" stroke="#263238" stroke-linecap="round" stroke-linejoin="round"/>
<path d="M431.546 219.421H428.833L428.985 221.17H431.698L431.546 219.421Z" fill="#F7444E" stroke="#263238" stroke-linecap="round" stroke-linejoin="round"/>
<path d="M432.245 220.609H428.338L428.464 222.081H432.371L432.245 220.609Z" fill="#F7444E" stroke="#263238" stroke-linecap="round" stroke-linejoin="round"/>
<path d="M432.826 222.009H427.995L428.101 223.342H432.945L432.826 222.009Z" fill="#F7444E" stroke="#263238" stroke-linecap="round" stroke-linejoin="round"/>
<path d="M429.467 208.624H429.031L429.83 218.009H430.265L429.467 208.624Z" fill="#F7444E" stroke="#263238" stroke-linecap="round" stroke-linejoin="round"/>
<path d="M314.227 228.582H307.66L307.627 234.502H314.22L314.227 228.582Z" fill="#F7444E" stroke="#263238" stroke-linecap="round" stroke-linejoin="round"/>
<path d="M310.967 222.2L310.063 228.417H311.825L310.967 222.2Z" fill="#F7444E" stroke="#263238" stroke-linecap="round" stroke-linejoin="round"/>
<path d="M335.861 228.582H329.301L329.36 234.502H335.954L335.861 228.582Z" fill="#F7444E" stroke="#263238" stroke-linecap="round" stroke-linejoin="round"/>
<path d="M332.502 222.2L331.697 228.417H333.459L332.502 222.2Z" fill="#F7444E" stroke="#263238" stroke-linecap="round" stroke-linejoin="round"/>
<path d="M357.502 228.582H350.935L351.094 234.502H357.68L357.502 228.582Z" fill="#F7444E" stroke="#263238" stroke-linecap="round" stroke-linejoin="round"/>
<path d="M354.037 222.2L353.331 228.417H355.093L354.037 222.2Z" fill="#F7444E" stroke="#263238" stroke-linecap="round" stroke-linejoin="round"/>
<path d="M379.136 228.582H372.576L372.82 234.502H379.414L379.136 228.582Z" fill="#F7444E" stroke="#263238" stroke-linecap="round" stroke-linejoin="round"/>
<path d="M375.573 222.2L374.965 228.417H376.728L375.573 222.2Z" fill="#F7444E" stroke="#263238" stroke-linecap="round" stroke-linejoin="round"/>
<path d="M400.771 228.582H394.211L394.554 234.502H401.147L400.771 228.582Z" fill="#F7444E" stroke="#263238" stroke-linecap="round" stroke-linejoin="round"/>
<path d="M397.108 222.2L396.6 228.417H398.362L397.108 222.2Z" fill="#F7444E" stroke="#263238" stroke-linecap="round" stroke-linejoin="round"/>
<path d="M422.412 228.582H415.845L416.287 234.502H422.874L422.412 228.582Z" fill="#F7444E" stroke="#263238" stroke-linecap="round" stroke-linejoin="round"/>
<path d="M418.643 222.2L418.234 228.417H419.996L418.643 222.2Z" fill="#F7444E" stroke="#263238" stroke-linecap="round" stroke-linejoin="round"/>
<path d="M315.494 255.404H306.518L306.604 241.979H315.494V255.404Z" fill="#F7444E" stroke="#263238" stroke-linecap="round" stroke-linejoin="round"/>
<path d="M337.67 255.404H328.694L328.569 241.979H337.459L337.67 255.404Z" fill="#F7444E" stroke="#263238" stroke-linecap="round" stroke-linejoin="round"/>
<path d="M359.845 255.404H350.869L350.526 241.979H359.416L359.845 255.404Z" fill="#F7444E" stroke="#263238" stroke-linecap="round" stroke-linejoin="round"/>
<path d="M382.027 255.404H373.051L372.49 241.979H381.38L382.027 255.404Z" fill="#F7444E" stroke="#263238" stroke-linecap="round" stroke-linejoin="round"/>
<path d="M404.203 255.404H395.227L394.455 241.979H403.345L404.203 255.404Z" fill="#F7444E" stroke="#263238" stroke-linecap="round" stroke-linejoin="round"/>
<path d="M426.378 255.404H417.402L416.412 241.979H425.302L426.378 255.404Z" fill="#F7444E" stroke="#263238" stroke-linecap="round" stroke-linejoin="round"/>
<path d="M315.494 272.966H306.406L306.492 259.206H315.494V272.966Z" fill="#F7444E" stroke="#263238" stroke-linecap="round" stroke-linejoin="round"/>
<path d="M337.954 272.966H328.866L328.734 259.206H337.729L337.954 272.966Z" fill="#F7444E" stroke="#263238" stroke-linecap="round" stroke-linejoin="round"/>
<path d="M360.413 272.966H351.318L350.968 259.206H359.971L360.413 272.966Z" fill="#F7444E" stroke="#263238" stroke-linecap="round" stroke-linejoin="round"/>
<path d="M382.865 272.966H373.777L373.21 259.206H382.205L382.865 272.966Z" fill="#F7444E" stroke="#263238" stroke-linecap="round" stroke-linejoin="round"/>
<path d="M405.325 272.966H396.237L395.445 259.206H404.447L405.325 272.966Z" fill="#F7444E" stroke="#263238" stroke-linecap="round" stroke-linejoin="round"/>
<path d="M427.784 272.966H418.696L417.68 259.206H426.682L427.784 272.966Z" fill="#F7444E" stroke="#263238" stroke-linecap="round" stroke-linejoin="round"/>
<path d="M315.494 290.983H306.287L306.38 276.866H315.494V290.983Z" fill="#F7444E" stroke="#263238" stroke-linecap="round" stroke-linejoin="round"/>
<path d="M338.244 290.983H329.037L328.898 276.866H338.013L338.244 290.983Z" fill="#F7444E" stroke="#263238" stroke-linecap="round" stroke-linejoin="round"/>
<path d="M360.987 290.983H351.78L351.417 276.866H360.538L360.987 290.983Z" fill="#F7444E" stroke="#263238" stroke-linecap="round" stroke-linejoin="round"/>
<path d="M383.737 290.983H374.53L373.942 276.866H383.057L383.737 290.983Z" fill="#F7444E" stroke="#263238" stroke-linecap="round" stroke-linejoin="round"/>
<path d="M406.48 290.983H397.273L396.461 276.866H405.575L406.48 290.983Z" fill="#F7444E" stroke="#263238" stroke-linecap="round" stroke-linejoin="round"/>
<path d="M429.223 290.983H420.016L418.98 276.866H428.094L429.223 290.983Z" fill="#F7444E" stroke="#263238" stroke-linecap="round" stroke-linejoin="round"/>
<path d="M460.81 294.126L454.626 222.563H450.732L456.711 294.126H460.81Z" fill="#F7444E" stroke="#263238" stroke-linecap="round" stroke-linejoin="round"/>
<path d="M453.279 218.029H451.359L451.51 219.771H453.424L453.279 218.029Z" fill="#F7444E" stroke="#263238" stroke-linecap="round" stroke-linejoin="round"/>
<path d="M452.724 211.891H450.817L451.51 213.619H452.262L452.724 211.891Z" fill="#F7444E" stroke="#263238" stroke-linecap="round" stroke-linejoin="round"/>
<path d="M453.794 219.421H451.081L451.227 221.17H453.946L453.794 219.421Z" fill="#F7444E" stroke="#263238" stroke-linecap="round" stroke-linejoin="round"/>
<path d="M454.487 220.609H450.586L450.712 222.081H454.619L454.487 220.609Z" fill="#F7444E" stroke="#263238" stroke-linecap="round" stroke-linejoin="round"/>
<path d="M455.074 222.009H450.237L450.349 223.342H455.193L455.074 222.009Z" fill="#F7444E" stroke="#263238" stroke-linecap="round" stroke-linejoin="round"/>
<path d="M451.715 208.624H451.279L452.078 218.009H452.507L451.715 208.624Z" fill="#F7444E" stroke="#263238" stroke-linecap="round" stroke-linejoin="round"/>
<path d="M448.626 255.404H439.65L438.66 241.979H447.55L448.626 255.404Z" fill="#F7444E" stroke="#263238" stroke-linecap="round" stroke-linejoin="round"/>
<path d="M450.032 272.966H440.937L439.928 259.206H448.93L450.032 272.966Z" fill="#F7444E" stroke="#263238" stroke-linecap="round" stroke-linejoin="round"/>
<path d="M451.471 290.983H442.264L441.228 276.866H450.342L451.471 290.983Z" fill="#F7444E" stroke="#263238" stroke-linecap="round" stroke-linejoin="round"/>
<path d="M483.051 294.126L476.874 222.563H472.98L478.953 294.126H483.051Z" fill="#F7444E" stroke="#263238" stroke-linecap="round" stroke-linejoin="round"/>
<path d="M475.521 218.029H473.607L473.752 219.771H475.672L475.521 218.029Z" fill="#F7444E" stroke="#263238" stroke-linecap="round" stroke-linejoin="round"/>
<path d="M474.972 211.891H473.065L473.758 213.619H474.503L474.972 211.891Z" fill="#F7444E" stroke="#263238" stroke-linecap="round" stroke-linejoin="round"/>
<path d="M476.042 219.421H473.329L473.475 221.17H476.187L476.042 219.421Z" fill="#F7444E" stroke="#263238" stroke-linecap="round" stroke-linejoin="round"/>
<path d="M476.735 220.609H472.835L472.953 222.081H476.867L476.735 220.609Z" fill="#F7444E" stroke="#263238" stroke-linecap="round" stroke-linejoin="round"/>
<path d="M477.322 222.009H472.485L472.597 223.342H477.435L477.322 222.009Z" fill="#F7444E" stroke="#263238" stroke-linecap="round" stroke-linejoin="round"/>
<path d="M473.956 208.624H473.527L474.319 218.009H474.755L473.956 208.624Z" fill="#F7444E" stroke="#263238" stroke-linecap="round" stroke-linejoin="round"/>
<path d="M470.874 255.404H461.899L460.909 241.979H469.799L470.874 255.404Z" fill="#F7444E" stroke="#263238" stroke-linecap="round" stroke-linejoin="round"/>
<path d="M472.273 272.966H463.185L462.176 259.206H471.178L472.273 272.966Z" fill="#F7444E" stroke="#263238" stroke-linecap="round" stroke-linejoin="round"/>
<path d="M473.719 290.983H464.512L463.476 276.866H472.59L473.719 290.983Z" fill="#F7444E" stroke="#263238" stroke-linecap="round" stroke-linejoin="round"/>
<path d="M278.476 256.447L274.371 258.031L282.244 247.227C282.411 246.523 282.563 245.804 282.7 245.069L283.597 235.671C283.597 235.671 279.175 239.413 278.621 239.545C278.066 239.677 282.37 226.847 283.426 223.666C283.313 221.283 283.168 218.762 282.983 216.149L277.565 218.558L281.941 212.618L281.281 200.019L278.489 201.015L280.845 195.075C280.258 190.693 279.578 186.357 278.812 182.239L276.595 175.975L274.998 181.255L275.618 168.491C273.123 160.01 270.067 154.262 266.464 154.037C262.115 153.76 257.554 161.574 253.423 172.616L252.875 179.876L252.215 176.008C250.05 182.239 248.031 189.267 246.275 196.329L246.981 199.095L245.74 198.468C244.665 202.87 243.681 207.259 242.823 211.449L245.707 216.591L242.216 214.485C241.411 218.571 240.738 222.405 240.236 225.857C241.2 230.879 242.394 237.413 242.071 237.288C240.999 236.442 239.999 235.508 239.081 234.496C239.042 234.958 239.002 235.414 238.976 235.816C238.693 240.165 238.984 244.532 239.84 248.805L243.892 256.144L241.543 254.876C244.962 264.242 251.397 270.67 259.118 271.152C266.939 271.64 274.199 265.911 278.753 256.863L278.476 256.447Z" fill="#F7444E"/>
<path d="M256.61 232.457L259.831 237.46L258.3 252.059L254.38 249.029L257.983 255.081L254.571 294.126H258.96L261.521 244.132L273.717 238.37L266.82 240.443L268.431 236.47L264.906 241.017L261.62 242.007L262.22 228.669L274.899 213.839L268.233 219.726L269.566 215.423L266.174 221.541L262.392 224.88L263.329 204.038L260.161 234.325L249.793 221.871L255.376 230.536L249.667 229.54L256.61 232.457Z" fill="#263238"/>
<path d="M275.572 204.87C275.67 206.137 275.265 207.393 274.443 208.363C273.621 209.333 272.449 209.94 271.183 210.051C271.091 208.784 271.499 207.533 272.32 206.564C273.14 205.596 274.308 204.987 275.572 204.87Z" fill="white"/>
<path d="M281.696 214.697C281.792 215.964 281.385 217.217 280.564 218.187C279.742 219.156 278.573 219.763 277.308 219.878C277.216 218.612 277.624 217.36 278.444 216.391C279.265 215.423 280.432 214.814 281.696 214.697Z" fill="white"/>
<path d="M280.548 233.072C280.209 234.296 279.403 235.339 278.304 235.976C277.204 236.613 275.899 236.793 274.668 236.477C275.006 235.252 275.812 234.209 276.912 233.573C278.012 232.936 279.317 232.756 280.548 233.072Z" fill="white"/>
<path d="M243.701 230.767C243.883 232.026 244.553 233.162 245.565 233.932C246.578 234.701 247.852 235.041 249.113 234.879C248.928 233.622 248.258 232.488 247.246 231.719C246.234 230.951 244.962 230.609 243.701 230.767Z" fill="white"/>
<path d="M273.275 224.966C273.369 226.233 272.961 227.486 272.141 228.456C271.32 229.426 270.151 230.036 268.886 230.153C268.789 228.885 269.195 227.63 270.016 226.659C270.838 225.688 272.008 225.08 273.275 224.966Z" fill="white"/>
<path d="M273.433 194.442C273.525 195.708 273.117 196.96 272.297 197.928C271.476 198.897 270.308 199.505 269.045 199.623C268.949 198.356 269.356 197.102 270.177 196.133C270.999 195.164 272.168 194.556 273.433 194.442Z" fill="white"/>
<path d="M268.945 202.012C269.039 203.279 268.632 204.532 267.811 205.502C266.99 206.472 265.822 207.082 264.557 207.199C264.463 205.932 264.87 204.679 265.691 203.709C266.512 202.739 267.68 202.129 268.945 202.012Z" fill="white"/>
<path d="M278.792 196.91C278.888 198.177 278.481 199.431 277.66 200.4C276.838 201.369 275.669 201.977 274.404 202.091C274.312 200.825 274.72 199.573 275.54 198.605C276.361 197.636 277.529 197.028 278.792 196.91Z" fill="white"/>
<path d="M247.951 194.983C247.702 196.228 247.951 197.522 248.644 198.585C249.338 199.649 250.421 200.398 251.661 200.672C251.91 199.427 251.661 198.134 250.968 197.071C250.274 196.007 249.191 195.258 247.951 194.983Z" fill="white"/>
<path d="M274.899 184.931C274.992 186.198 274.585 187.452 273.764 188.422C272.943 189.392 271.775 190.001 270.51 190.119C270.416 188.851 270.823 187.598 271.644 186.628C272.465 185.658 273.633 185.049 274.899 184.931Z" fill="white"/>
<path d="M273.565 174.655C273.976 175.857 273.898 177.173 273.347 178.317C272.796 179.462 271.817 180.344 270.622 180.773C270.214 179.571 270.295 178.257 270.845 177.114C271.395 175.97 272.372 175.087 273.565 174.655Z" fill="white"/>
<path d="M259.653 171.138C260.763 171.755 261.586 172.784 261.944 174.003C262.303 175.222 262.167 176.533 261.567 177.652C260.456 177.035 259.633 176.006 259.275 174.787C258.917 173.569 259.053 172.258 259.653 171.138Z" fill="white"/>
<path d="M265.481 183.678C266.259 184.683 266.61 185.954 266.458 187.217C266.306 188.479 265.663 189.631 264.669 190.423C263.894 189.416 263.545 188.146 263.697 186.884C263.849 185.623 264.489 184.472 265.481 183.678Z" fill="white"/>
<path d="M266.246 165.574C267.019 166.582 267.367 167.852 267.216 169.112C267.064 170.373 266.424 171.524 265.434 172.319C264.656 171.314 264.305 170.043 264.457 168.78C264.609 167.518 265.252 166.366 266.246 165.574Z" fill="white"/>
<path d="M249.1 203.213C248.85 204.459 249.099 205.753 249.792 206.818C250.486 207.883 251.568 208.633 252.809 208.909C253.062 207.663 252.815 206.367 252.121 205.302C251.427 204.236 250.342 203.486 249.1 203.213Z" fill="white"/>
<path d="M244.585 214.103C244.333 215.348 244.58 216.643 245.274 217.708C245.968 218.772 247.053 219.521 248.295 219.792C248.544 218.547 248.295 217.254 247.602 216.19C246.908 215.127 245.825 214.377 244.585 214.103Z" fill="white"/>
<path d="M254.485 218.775C254.233 220.025 254.484 221.323 255.183 222.388C255.883 223.453 256.974 224.199 258.221 224.464C258.47 223.219 258.221 221.926 257.528 220.863C256.834 219.799 255.751 219.05 254.512 218.775H254.485Z" fill="white"/>
<path d="M258.221 203.53C257.623 204.651 257.489 205.961 257.849 207.18C258.208 208.398 259.031 209.427 260.141 210.044C260.741 208.923 260.876 207.612 260.516 206.393C260.157 205.174 259.332 204.146 258.221 203.53Z" fill="white"/>
<path d="M248.473 244.106C249.734 244.249 251 243.893 252.003 243.115C253.005 242.337 253.664 241.198 253.838 239.941C252.576 239.792 251.306 240.144 250.302 240.924C249.298 241.703 248.641 242.846 248.473 244.106Z" fill="white"/>
<path d="M268.332 243.076C268.551 244.33 269.255 245.447 270.291 246.188C271.326 246.929 272.611 247.233 273.869 247.036C273.652 245.78 272.949 244.66 271.913 243.919C270.877 243.178 269.59 242.875 268.332 243.076Z" fill="white"/>
<path d="M253.951 193.221C253.698 194.467 253.945 195.761 254.639 196.826C255.333 197.891 256.418 198.639 257.66 198.91C257.909 197.665 257.66 196.372 256.967 195.308C256.273 194.245 255.19 193.495 253.951 193.221Z" fill="white"/>
<path d="M254.479 184.179C254.229 185.425 254.478 186.719 255.171 187.784C255.865 188.849 256.947 189.599 258.188 189.875C258.439 188.629 258.191 187.334 257.498 186.269C256.804 185.204 255.72 184.453 254.479 184.179Z" fill="white"/>
<path d="M228.521 249.069L226.033 250.026L230.805 243.479C230.911 243.05 231.003 242.608 231.082 242.159L231.63 236.457C230.668 237.296 229.658 238.081 228.607 238.806C228.317 238.879 230.884 231.104 231.524 229.17C231.458 227.725 231.366 226.2 231.254 224.616L227.954 226.075L230.594 222.485L230.191 214.842L228.495 215.449L229.921 211.833C229.564 209.193 229.155 206.553 228.693 204.045L227.373 200.25L226.383 203.477L226.759 195.736C225.248 190.594 223.393 187.103 221.209 186.971C218.569 186.806 215.804 191.545 213.289 198.237L212.952 202.639L212.543 200.289C211.223 204.071 210.002 208.335 208.927 212.618L209.356 214.294L208.603 213.912C207.943 216.584 207.349 219.244 206.828 221.785L208.583 224.907L206.465 223.627C205.976 226.108 205.567 228.444 205.25 230.523C205.838 233.572 206.57 237.532 206.359 237.46C205.73 236.939 205.143 236.37 204.604 235.757C204.604 236.041 204.557 236.318 204.544 236.575C204.38 239.195 204.56 241.824 205.079 244.396L207.541 248.851L206.082 248.112C208.161 253.788 212.061 257.688 216.747 257.979C221.433 258.269 225.895 254.804 228.627 249.313L228.521 249.069Z" fill="#F7444E"/>
<path d="M225.618 238.107L221.433 239.361L222.41 236.952L220.272 239.71L218.279 240.311L218.642 232.22L226.337 223.224L222.291 226.795L223.096 224.188L221.037 227.897L218.747 229.923L219.315 217.284L217.394 235.652L211.105 228.095L214.49 233.355L211.025 232.748L215.243 234.523L217.19 237.552L216.266 246.409L213.89 244.568L216.074 248.244L212.075 293.908L215.526 294.126L218.219 241.598L225.618 238.107Z" fill="#263238"/>
<path d="M226.739 217.786C226.798 218.551 226.555 219.309 226.061 219.896C225.567 220.484 224.863 220.854 224.099 220.928C224.042 220.163 224.286 219.406 224.78 218.819C225.273 218.232 225.976 217.862 226.739 217.786Z" fill="white"/>
<path d="M230.455 223.758C230.514 224.523 230.271 225.28 229.777 225.868C229.283 226.455 228.579 226.826 227.815 226.899C227.758 226.135 228.002 225.378 228.496 224.791C228.989 224.204 229.692 223.833 230.455 223.758Z" fill="white"/>
<path d="M229.756 234.893C229.551 235.636 229.063 236.269 228.396 236.655C227.73 237.041 226.938 237.15 226.192 236.958C226.396 236.215 226.884 235.582 227.551 235.196C228.217 234.809 229.009 234.7 229.756 234.893Z" fill="white"/>
<path d="M207.402 233.493C207.557 234.239 207.954 234.914 208.53 235.413C209.165 235.836 209.921 236.038 210.682 235.988C210.526 235.24 210.127 234.564 209.547 234.067C208.915 233.645 208.161 233.443 207.402 233.493Z" fill="white"/>
<path d="M225.347 229.975C225.406 230.74 225.162 231.498 224.669 232.085C224.175 232.672 223.471 233.043 222.707 233.117C222.653 232.353 222.899 231.598 223.391 231.012C223.884 230.425 224.585 230.054 225.347 229.975Z" fill="white"/>
<path d="M225.446 211.463C225.5 212.227 225.254 212.982 224.762 213.568C224.269 214.154 223.568 214.526 222.806 214.604C222.747 213.839 222.991 213.082 223.484 212.494C223.978 211.907 224.682 211.537 225.446 211.463Z" fill="white"/>
<path d="M222.72 216.05C222.779 216.816 222.536 217.574 222.042 218.162C221.549 218.751 220.845 219.123 220.08 219.198C220.021 218.432 220.265 217.674 220.758 217.085C221.252 216.497 221.956 216.125 222.72 216.05Z" fill="white"/>
<path d="M228.693 212.955C228.752 213.72 228.509 214.479 228.015 215.067C227.522 215.656 226.817 216.027 226.053 216.103C225.994 215.337 226.237 214.579 226.731 213.99C227.224 213.402 227.929 213.03 228.693 212.955Z" fill="white"/>
<path d="M209.989 211.792C209.835 212.547 209.984 213.333 210.406 213.978C210.827 214.623 211.486 215.076 212.24 215.238C212.391 214.483 212.24 213.699 211.819 213.055C211.398 212.411 210.741 211.957 209.989 211.792Z" fill="white"/>
<path d="M226.33 205.695C226.389 206.46 226.146 207.217 225.652 207.805C225.158 208.392 224.454 208.763 223.69 208.836C223.633 208.072 223.877 207.315 224.371 206.728C224.864 206.141 225.567 205.77 226.33 205.695Z" fill="white"/>
<path d="M225.525 199.458C225.775 200.188 225.727 200.987 225.393 201.683C225.058 202.378 224.463 202.914 223.737 203.174C223.49 202.443 223.54 201.646 223.874 200.951C224.208 200.257 224.801 199.721 225.525 199.458Z" fill="white"/>
<path d="M217.084 197.319C217.761 197.693 218.262 198.318 218.48 199.06C218.698 199.802 218.613 200.599 218.246 201.279C217.573 200.902 217.074 200.276 216.857 199.536C216.64 198.796 216.721 198 217.084 197.319Z" fill="white"/>
<path d="M220.602 204.929C221.03 205.562 221.237 206.318 221.189 207.081C221.054 207.83 220.673 208.513 220.107 209.021C219.679 208.391 219.472 207.636 219.519 206.876C219.657 206.126 220.038 205.442 220.602 204.929Z" fill="white"/>
<path d="M221.083 193.953C221.553 194.564 221.764 195.335 221.672 196.1C221.579 196.865 221.19 197.564 220.588 198.045C220.119 197.434 219.908 196.663 220 195.898C220.093 195.133 220.482 194.435 221.083 193.953Z" fill="white"/>
<path d="M210.702 216.782C210.549 217.537 210.698 218.321 211.118 218.967C211.538 219.613 212.194 220.068 212.946 220.234C213.099 219.479 212.95 218.695 212.53 218.049C212.11 217.403 211.454 216.949 210.702 216.782Z" fill="white"/>
<path d="M207.943 223.389C207.792 224.144 207.943 224.927 208.364 225.572C208.785 226.216 209.442 226.669 210.194 226.834C210.348 226.079 210.199 225.294 209.777 224.649C209.356 224.004 208.697 223.551 207.943 223.389Z" fill="white"/>
<path d="M213.949 226.22C213.796 226.975 213.946 227.761 214.367 228.407C214.788 229.052 215.446 229.507 216.2 229.671C216.302 228.917 216.154 228.149 215.777 227.487C215.325 226.873 214.682 226.427 213.949 226.22Z" fill="white"/>
<path d="M216.213 216.973C215.898 217.668 215.819 218.447 215.988 219.191C216.249 219.907 216.739 220.517 217.381 220.927C217.746 220.246 217.829 219.448 217.61 218.707C217.391 217.966 216.889 217.34 216.213 216.967V216.973Z" fill="white"/>
<path d="M210.306 241.584C211.071 241.671 211.839 241.455 212.447 240.982C213.055 240.51 213.454 239.819 213.56 239.056C212.794 238.965 212.023 239.179 211.413 239.652C210.804 240.125 210.406 240.819 210.306 241.584Z" fill="white"/>
<path d="M222.351 240.964C222.485 241.723 222.912 242.4 223.541 242.847C224.169 243.294 224.948 243.476 225.71 243.353C225.573 242.595 225.145 241.921 224.517 241.474C223.889 241.028 223.112 240.845 222.351 240.964Z" fill="white"/>
<path d="M213.626 210.737C213.519 211.491 213.665 212.259 214.041 212.921C214.499 213.532 215.143 213.977 215.876 214.189C216.029 213.433 215.879 212.648 215.458 212.002C215.037 211.356 214.379 210.902 213.626 210.737Z" fill="white"/>
<path d="M213.949 205.24C213.796 205.994 213.945 206.779 214.365 207.425C214.785 208.07 215.441 208.525 216.193 208.691C216.346 207.937 216.197 207.152 215.777 206.507C215.357 205.861 214.701 205.406 213.949 205.24Z" fill="white"/>
<path d="M404.876 234.272L408.216 235.559L401.807 226.761C401.668 226.181 401.543 225.593 401.431 225.006L400.705 217.337C400.705 217.337 404.302 220.386 404.757 220.498C405.213 220.61 401.708 210.15 400.843 207.556C400.936 205.616 401.055 203.563 401.206 201.438L405.615 203.418L402.051 198.593L402.599 188.331L404.876 189.142L402.955 184.285C403.437 180.714 403.992 177.183 404.612 173.824L406.414 168.729L407.734 173.006L407.226 162.611C409.258 155.701 411.746 151.015 414.683 150.837C418.227 150.612 421.943 156.981 425.309 165.97L425.758 171.91L426.306 168.755C428.068 173.837 429.718 179.559 431.17 185.314L430.589 187.565L431.599 187.057C432.477 190.64 433.275 194.211 433.981 197.616L431.625 201.807L434.476 200.091C435.136 203.391 435.671 206.559 436.1 209.331C435.314 213.423 434.338 218.749 434.608 218.644C435.456 217.95 436.246 217.188 436.971 216.367C436.971 216.743 437.03 217.112 437.05 217.462C437.277 220.998 437.042 224.547 436.351 228.022L433.051 233.995L434.971 232.965C432.18 240.595 426.939 245.835 420.65 246.224C414.36 246.614 408.361 241.961 404.652 234.589L404.876 234.272Z" fill="#F7444E"/>
<path d="M418.122 211.641L418.61 222.504L415.931 221.699L413.06 217.997L414.373 221.231L408.75 219.541L418.689 224.24L422.273 294.126H426.906L421.567 233.156L424.504 228.226L421.309 230.695L420.069 218.802L422.689 214.73L428.345 212.347L423.699 213.159L428.239 206.097L419.798 216.248L417.211 191.571L417.983 208.552L414.901 205.833L412.136 200.85L413.218 204.348L407.786 199.557L418.122 211.641Z" fill="#263238"/>
<path d="M407.239 192.257C407.223 193.281 407.548 194.282 408.163 195.101C408.869 195.836 409.796 196.321 410.803 196.481C410.876 195.449 410.543 194.429 409.875 193.64C409.206 192.851 408.255 192.354 407.225 192.257H407.239Z" fill="white"/>
<path d="M402.256 200.27C402.182 201.301 402.514 202.319 403.181 203.109C403.849 203.898 404.798 204.395 405.826 204.494C405.9 203.463 405.568 202.445 404.901 201.655C404.234 200.866 403.284 200.369 402.256 200.27Z" fill="white"/>
<path d="M403.186 215.225C403.465 216.221 404.122 217.069 405.017 217.587C405.913 218.105 406.975 218.252 407.978 217.997C407.7 217 407.042 216.152 406.147 215.634C405.252 215.116 404.189 214.969 403.186 215.225Z" fill="white"/>
<path d="M433.209 213.377C433.057 214.398 432.511 215.32 431.689 215.945C430.866 216.57 429.832 216.849 428.807 216.723C428.959 215.701 429.505 214.779 430.327 214.154C431.15 213.529 432.184 213.25 433.209 213.377Z" fill="white"/>
<path d="M409.113 208.625C409.04 209.656 409.373 210.676 410.041 211.465C410.71 212.255 411.66 212.751 412.69 212.848C412.764 211.817 412.431 210.797 411.762 210.008C411.094 209.218 410.143 208.722 409.113 208.625Z" fill="white"/>
<path d="M408.981 183.757C408.907 184.789 409.241 185.808 409.909 186.598C410.577 187.387 411.528 187.883 412.558 187.981C412.632 186.949 412.299 185.929 411.63 185.14C410.962 184.351 410.011 183.854 408.981 183.757Z" fill="white"/>
<path d="M412.657 189.921C412.584 190.953 412.917 191.972 413.585 192.762C414.254 193.551 415.204 194.047 416.234 194.145C416.249 193.123 415.924 192.125 415.31 191.307C414.602 190.566 413.67 190.079 412.657 189.921Z" fill="white"/>
<path d="M404.619 185.763C404.545 186.794 404.877 187.813 405.544 188.602C406.211 189.391 407.16 189.888 408.189 189.987C408.263 188.956 407.931 187.938 407.263 187.148C406.596 186.359 405.647 185.862 404.619 185.763Z" fill="white"/>
<path d="M429.744 184.199C429.941 185.211 429.735 186.26 429.171 187.122C428.606 187.985 427.728 188.594 426.721 188.819C426.525 187.807 426.73 186.758 427.295 185.895C427.859 185.032 428.738 184.424 429.744 184.199Z" fill="white"/>
<path d="M407.787 176.009C407.713 177.041 408.046 178.06 408.715 178.85C409.383 179.639 410.334 180.135 411.364 180.233C411.437 179.201 411.104 178.181 410.436 177.392C409.767 176.603 408.816 176.106 407.787 176.009Z" fill="white"/>
<path d="M408.876 167.633C408.544 168.613 408.609 169.684 409.057 170.616C409.505 171.549 410.299 172.269 411.271 172.623C411.603 171.643 411.538 170.572 411.09 169.64C410.642 168.708 409.847 167.987 408.876 167.633Z" fill="white"/>
<path d="M420.207 164.756C419.305 165.262 418.637 166.102 418.346 167.095C418.055 168.088 418.164 169.155 418.65 170.069C419.552 169.562 420.22 168.723 420.511 167.73C420.803 166.737 420.693 165.669 420.207 164.756Z" fill="white"/>
<path d="M415.475 174.985C414.847 175.806 414.564 176.839 414.688 177.865C414.811 178.891 415.331 179.828 416.135 180.476C416.763 179.656 417.046 178.623 416.923 177.597C416.799 176.571 416.28 175.634 415.475 174.985Z" fill="white"/>
<path d="M414.842 160.241C414.214 161.062 413.931 162.095 414.054 163.121C414.178 164.147 414.697 165.084 415.502 165.732C416.13 164.912 416.412 163.878 416.289 162.852C416.166 161.827 415.646 160.889 414.842 160.241Z" fill="white"/>
<path d="M428.807 190.938C429.004 191.95 428.798 192.998 428.233 193.861C427.669 194.724 426.79 195.332 425.784 195.557C425.588 194.545 425.793 193.497 426.358 192.634C426.922 191.771 427.801 191.163 428.807 190.938Z" fill="white"/>
<path d="M432.49 199.775C432.686 200.787 432.481 201.836 431.916 202.698C431.352 203.561 430.473 204.17 429.467 204.395C429.27 203.383 429.476 202.334 430.04 201.471C430.605 200.608 431.483 200 432.49 199.775Z" fill="white"/>
<path d="M424.425 203.583C424.621 204.595 424.416 205.643 423.851 206.506C423.287 207.369 422.408 207.977 421.402 208.202C421.205 207.19 421.411 206.142 421.976 205.279C422.54 204.416 423.419 203.808 424.425 203.583Z" fill="white"/>
<path d="M421.375 191.162C421.851 192.073 421.953 193.133 421.661 194.118C421.369 195.104 420.706 195.937 419.811 196.442C419.384 195.513 419.277 194.468 419.508 193.472C419.862 192.519 420.518 191.708 421.375 191.162Z" fill="white"/>
<path d="M429.322 224.214C428.294 224.333 427.26 224.044 426.442 223.41C425.625 222.776 425.087 221.847 424.946 220.822C425.972 220.764 426.988 221.047 427.837 221.627C428.604 222.301 429.126 223.211 429.322 224.214Z" fill="white"/>
<path d="M413.139 223.382C412.955 224.401 412.379 225.307 411.536 225.907C410.692 226.506 409.647 226.751 408.625 226.59C408.809 225.571 409.384 224.665 410.228 224.066C411.072 223.466 412.117 223.221 413.139 223.382Z" fill="white"/>
<path d="M424.854 182.76C425.05 183.771 424.846 184.819 424.282 185.682C423.719 186.544 422.842 187.154 421.837 187.38C421.641 186.369 421.845 185.321 422.408 184.458C422.972 183.596 423.849 182.987 424.854 182.76Z" fill="white"/>
<path d="M424.425 175.395C424.621 176.407 424.416 177.455 423.851 178.318C423.287 179.181 422.408 179.789 421.402 180.014C421.205 179.002 421.411 177.954 421.976 177.091C422.54 176.228 423.419 175.62 424.425 175.395Z" fill="white"/>
<path d="M389.254 187.294H357.852V294.126H389.254V187.294Z" fill="white" stroke="#263238" stroke-linecap="round" stroke-linejoin="round"/>
<path d="M369.66 294.125H344.197C344.164 293.029 344.125 290.515 344.197 286.416C344.323 280.721 346.6 250.731 346.6 250.731L346.349 239.597C346.349 239.597 344.58 242.633 338.251 248.837C331.922 255.041 314.333 267.316 314.333 267.316L313.95 234.41C313.95 234.41 327.368 222.134 327.368 221.758C327.903 217.896 329.331 214.213 331.539 211C334.958 206.189 341.795 203.027 341.795 203.027L356.222 197.457L356.598 198.473C356.598 198.473 361.152 207.581 362.42 212.518C363.687 217.455 365.554 223.243 365.554 223.243C365.554 223.243 364.696 236.185 364.571 251.371C364.479 265.198 368.874 289.842 369.66 294.125Z" fill="#263238" stroke="#263238" stroke-linecap="round" stroke-linejoin="round"/>
<path d="M334.217 227.539L332.575 225.672" stroke="#263238" stroke-linecap="round" stroke-linejoin="round"/>
<path d="M345.484 240.356L336.066 229.651" stroke="#263238" stroke-linecap="round" stroke-linejoin="round"/>
<path d="M343.709 237.314L335.235 223.269" stroke="#263238" stroke-linecap="round" stroke-linejoin="round"/>
<path d="M351.279 198.196C351.279 198.196 340.897 201.615 339.637 205.667C338.376 209.72 339.762 222.114 340.897 228.701C342.033 235.287 344.316 239.96 345.458 240.343C346.6 240.726 347.86 238.442 348.368 235.657C348.877 232.872 351.668 208.195 352.289 204.275C352.909 200.354 352.19 197.833 351.279 198.196Z" fill="#B0B0B0" stroke="#263238" stroke-linecap="round" stroke-linejoin="round"/>
<path d="M348.395 199.477C347.421 208.22 346.914 217.008 346.877 225.804C346.877 239.598 346.619 250.732 346.619 250.732C346.619 250.732 344.217 234.786 343.834 224.662C343.452 214.538 344.092 201.378 344.092 201.378C344.092 201.378 347.378 199.352 348.395 199.477Z" fill="#263238" stroke="#263238" stroke-linecap="round" stroke-linejoin="round"/>
<path d="M419.257 213.31C419.257 213.31 427.52 230.47 431.084 235.657C434.648 240.845 434.16 242.62 432.701 242.297C431.91 242.139 431.145 241.868 430.431 241.492C430.431 241.492 438.535 255.417 439.182 260.631C439.829 265.845 441.123 271.316 432.378 275.851C423.633 280.385 416.182 270.511 414.882 269.053C413.581 267.594 411.971 221.917 412.294 217.059C412.618 212.202 416.967 211.198 419.257 213.31Z" fill="#B0B0B0" stroke="#263238" stroke-linecap="round" stroke-linejoin="round"/>
<path d="M430.404 241.491C429.881 241.14 429.485 240.628 429.276 240.033C428.952 239.063 423.118 232.258 421.501 228.694C419.884 225.13 418.096 223.025 417.449 224.965C416.802 226.906 414.697 228.206 414.532 223.513C414.367 218.821 418.261 212.657 419.231 213.31C420.452 214.183 421.496 215.28 422.306 216.544C423.118 217.864 431.058 232.258 433.163 236.146C435.268 240.033 435.592 242.462 434.622 243.273C433.651 244.085 431.705 242.138 430.404 241.491Z" fill="#B0B0B0" stroke="#263238" stroke-linecap="round" stroke-linejoin="round"/>
<path d="M430.404 251.695C430.404 251.695 432.998 264.492 433.81 267.568C434.621 270.643 436.885 270.967 437.697 270.485" stroke="#263238" stroke-linecap="round" stroke-linejoin="round"/>
<path d="M434.133 246.673C434.133 246.673 428.464 245.353 428.952 247.808C429.44 250.263 429.922 253.477 431.216 253.959C432.509 254.441 436.885 252.507 436.885 252.507C436.885 252.507 435.757 247.808 434.133 246.673Z" fill="#B0B0B0" stroke="#263238" stroke-linecap="round" stroke-linejoin="round"/>
<path d="M419.95 224.094V236.066C419.95 238.119 419.779 242.045 419.779 242.045L427.751 294.125H385.677C385.182 291.439 382.377 276.219 379.599 260.855C376.517 243.926 379.599 237.096 379.599 237.096C379.599 237.096 382.674 216.062 383.189 212.986C383.704 209.911 384.041 197.424 384.041 197.424C384.041 197.424 386.093 184.429 386.265 183.234C386.436 182.04 389.512 183.577 389.512 183.577C389.512 183.577 398.917 183.749 401.141 183.063C403.365 182.376 408.665 178.106 413.113 179.103C417.561 180.099 422.861 183.379 422.861 183.379L433.632 177.908C433.632 177.908 430.385 181.67 430.556 195.688C430.728 209.706 432.774 210.208 436.364 211.251C437.938 211.736 439.538 212.135 441.156 212.445C441.156 212.445 423.673 214.306 421.105 214.993C418.538 215.679 419.95 215.547 419.95 224.094Z" fill="#263238" stroke="#263238" stroke-linecap="round" stroke-linejoin="round"/>
<path d="M420.637 185.28C420.637 185.28 416.189 185.28 412.255 193.655" stroke="#263238" stroke-linecap="round" stroke-linejoin="round"/>
<path d="M409.74 199.793C409.707 200.354 409.694 200.935 409.694 201.522" stroke="#263238" stroke-linecap="round" stroke-linejoin="round"/>
<path d="M412.083 189.722C410.918 192.417 410.174 195.275 409.879 198.196" stroke="#263238" stroke-linecap="round" stroke-linejoin="round"/>
<path d="M416.287 242.171C414.383 238.477 412.81 234.621 411.588 230.648" stroke="#263238" stroke-linecap="round" stroke-linejoin="round"/>
<path d="M383.051 246.718C383.051 246.718 391.498 245.933 394.653 244.653C397.808 243.372 401.913 240.567 403.53 240.112C405.147 239.657 406.17 241.953 406.269 242.706C406.368 243.458 408.803 247.748 408.084 249.114C407.365 250.48 401.048 260.334 398.963 260.954C396.877 261.575 384.41 259.812 383.592 259.403C382.773 258.994 382.153 257.034 382.028 256.024C381.902 255.014 381.638 247.695 381.638 247.695C381.638 247.695 381.163 246.956 383.051 246.718Z" fill="#B0B0B0" stroke="#263238" stroke-linecap="round" stroke-linejoin="round"/>
<path d="M402.678 181.697C401.858 189.649 401.688 197.655 402.17 205.635C403.022 217.772 404.903 222.563 403.88 224.616C402.857 226.669 399.088 226.669 397.036 224.616C394.983 222.563 390.541 220.168 389.512 207.173C388.482 194.178 391.393 183.578 392.079 183.235C392.766 182.892 400.289 180.318 402.678 181.697Z" fill="#B0B0B0" stroke="#263238" stroke-linecap="round" stroke-linejoin="round"/>
<path d="M399.174 181.129C399.174 181.129 396.759 206.387 400.184 218.188C403.609 229.988 427.989 255.213 428.332 256.242C428.675 257.272 425.936 257.094 424.742 256.071C423.547 255.048 408.902 243.967 400.89 231.823C392.878 219.679 393.247 209.489 393.109 199.642C392.989 193.972 393.593 188.31 394.904 182.793C394.904 182.793 395.142 180.417 399.174 181.129Z" fill="#263238" stroke="#263238" stroke-linecap="round" stroke-linejoin="round"/>
<path d="M498.099 165.659L449.517 170.708C449.517 170.708 439.617 170.55 436.885 177.968C434.153 185.386 433.163 194.171 433.968 200.487C434.773 206.803 435.75 207.938 439.155 209.555C442.561 211.172 453.893 210.215 453.893 210.215L495.558 203.806" fill="white"/>
<path d="M498.099 165.659L449.517 170.708C449.517 170.708 439.617 170.55 436.885 177.968C434.153 185.386 433.163 194.171 433.968 200.487C434.773 206.803 435.75 207.938 439.155 209.555C442.561 211.172 453.893 210.215 453.893 210.215L495.558 203.806" stroke="#263238" stroke-linecap="round" stroke-linejoin="round"/>
<path d="M449.517 170.708C449.517 170.708 440.772 170.708 437.05 180.753C433.328 190.798 435.103 199.893 436.238 204.559C437.374 209.225 448.224 210.393 450.329 210.393C451.519 210.399 452.709 210.344 453.893 210.228C453.114 211.655 452.07 212.921 450.817 213.957C449.035 215.277 438.667 214.617 433.81 213.469C428.952 212.32 423.91 204.889 423.441 198.566C422.973 192.244 427.17 180.747 431.539 176.701C435.908 172.655 445.656 169.738 449.517 170.708Z" fill="#8C8C8C" stroke="#263238" stroke-linecap="round" stroke-linejoin="round"/>
<path d="M397.488 258.158C398.29 257.914 398.742 257.066 398.498 256.264C398.254 255.462 397.406 255.01 396.604 255.254C395.802 255.498 395.35 256.346 395.594 257.148C395.838 257.95 396.686 258.402 397.488 258.158Z" fill="white" stroke="#263238" stroke-linecap="round" stroke-linejoin="round"/>
<path d="M396.97 206.908C396.97 206.908 391.591 203.562 390.04 202.486C388.489 201.411 386.694 200.817 386.331 201.054C385.889 201.641 385.53 202.285 385.262 202.968C385.262 202.968 384.305 199.14 384.78 197.471C385.255 195.801 386.931 196.995 388.74 197.946C390.566 199.06 392.183 200.485 393.518 202.156C394.581 203.476 396.97 206.908 396.97 206.908Z" fill="#263238" stroke="#263238" stroke-linecap="round" stroke-linejoin="round"/>
<path d="M378.569 174.337C378.569 174.337 381.48 173.308 383.361 174.509C385.242 175.71 392.422 182.033 392.422 182.033C392.422 182.033 392.079 192.632 393.789 197.932C395.498 203.232 398.164 206.565 396.97 206.908C395.775 207.251 390.37 199.984 388.661 199.298C386.951 198.612 385.413 197.76 385.413 198.638C385.413 199.516 386.78 218.127 386.073 221.546C385.367 224.965 378.913 238.455 378.913 238.455C378.913 238.455 382.503 200.836 383.018 193.827C383.532 186.818 378.569 174.337 378.569 174.337Z" fill="#8C8C8C" stroke="#263238" stroke-linecap="round" stroke-linejoin="round"/>
<path d="M380.384 170.042C380.384 170.042 383.097 183.901 383.097 188.132C383.097 192.362 379.737 201.925 373.322 202.651C363.541 203.74 361.093 196.131 359.331 193.141C357.569 190.151 355.371 182.957 355.371 182.957C355.371 182.957 361.482 185.809 364.743 184.178C368.003 182.548 380.384 170.042 380.384 170.042Z" fill="white" stroke="#263238" stroke-linecap="round" stroke-linejoin="round"/>
<path d="M368.769 188.501L359.331 193.121C357.759 189.83 356.435 186.426 355.371 182.938L368.769 188.501Z" fill="#263238" stroke="#263238" stroke-linecap="round" stroke-linejoin="round"/>
<path d="M365.574 223.237C365.574 223.237 357.826 209.925 356.334 209.654C354.843 209.384 351.055 211.819 351.055 210.875C351.055 209.931 354.024 203.299 354.434 202.757C354.843 202.216 355.516 202.487 356.598 204.249C357.681 206.011 365.574 223.237 365.574 223.237Z" fill="#263238" stroke="#263238" stroke-linecap="round" stroke-linejoin="round"/>
<path d="M365.574 223.236C365.574 223.236 359.931 213.152 357.879 210.241C356.691 208.581 355.661 206.813 354.803 204.961C354.803 204.961 351.385 212.142 349.847 212.142C348.309 212.142 348.309 213 349.504 208.723C350.698 204.446 351.239 195.325 352.949 189.511C354.658 183.697 356.051 180.74 357.245 181.248C358.44 181.756 357.542 184.271 359.76 195.9C361.977 207.529 364.446 213.224 365.132 216.306C365.553 218.591 365.701 220.917 365.574 223.236Z" fill="#8C8C8C" stroke="#263238" stroke-linecap="round" stroke-linejoin="round"/>
<path d="M359.133 192.521C359.133 192.521 357.925 189.61 356.823 188.62C355.721 187.63 354.051 186.409 354.051 186.409L355.371 182.944L357.832 187.294C357.832 187.294 359.463 189.986 359.133 192.521Z" fill="#263238" stroke="#263238" stroke-linecap="round" stroke-linejoin="round"/>
<path d="M339.399 156.347C339.399 156.347 336.759 155.258 336.489 158.412C336.218 161.567 338.31 163.508 339.643 164.478C340.764 165.167 341.994 165.66 343.28 165.936L341.96 158.775L339.399 156.347Z" fill="white" stroke="#263238" stroke-linecap="round" stroke-linejoin="round"/>
<path d="M339.769 139.359C339.769 139.359 342.316 161.798 343.287 167.738C344.257 173.678 357.971 187.538 359.186 188.488C360.4 189.439 365.251 189.34 368.769 188.488C372.286 187.637 378.008 176.721 379.691 174.536C381.374 172.351 382.331 171.018 382.483 168.101C382.635 165.184 383.209 160.584 383.209 160.584C383.209 160.584 386.001 159.851 388.304 155.964C390.607 152.077 390.244 145.774 386.846 144.804C383.447 143.834 382.965 146.5 382.226 149.424C381.486 152.347 380.906 142.388 380.648 141.055C380.391 139.722 380.523 136.323 369.607 134.138C358.691 131.954 352.737 132.924 350.923 133.412C349.108 133.901 340.719 137.419 339.769 139.359Z" fill="white" stroke="#263238" stroke-linecap="round" stroke-linejoin="round"/>
<path d="M380.661 132.079C380.661 132.079 387.09 136.085 386.238 139.484C385.387 142.883 381.75 147.734 382.239 149.43C382.727 151.126 382.602 154.05 381.876 153.436C381.15 152.823 377.989 140.818 377.989 140.818C377.989 140.818 374.108 138.389 364.399 137.056C354.691 135.722 352.751 136.574 352.751 136.574C352.751 136.574 364.525 139.214 362.578 140.21C360.631 141.207 359.186 142.758 349.378 143.51C339.571 144.263 341.379 142.514 341.379 142.514C341.379 142.514 341.623 147.615 341.623 149.556C341.623 151.496 342.231 160.472 342.231 160.472C341.684 160.198 341.19 159.829 340.772 159.383C340.24 158.413 339.798 157.397 339.452 156.347C339.452 156.347 334.113 151.496 333.75 148.216C333.387 144.936 337.875 140.573 337.875 140.573C336.799 138.22 336.5 135.584 337.023 133.049C337.875 128.687 344.184 120.919 350.375 118.616C356.565 116.312 360.519 114.61 371.078 119.46C381.638 124.311 383.942 129.776 382.958 130.865C382.358 131.525 381.545 131.955 380.661 132.079Z" fill="#263238" stroke="#263238" stroke-linecap="round" stroke-linejoin="round"/>
<path d="M365.231 153.978C366.061 153.153 367.121 152.599 368.271 152.387C369.422 152.175 370.61 152.315 371.679 152.79" fill="white"/>
<path d="M365.231 153.978C366.061 153.153 367.121 152.599 368.271 152.387C369.422 152.175 370.61 152.315 371.679 152.79" stroke="#263238" stroke-linecap="round" stroke-linejoin="round"/>
<path d="M352.143 157.62C352.143 157.62 348.771 156.432 346.791 158.617Z" fill="white"/>
<path d="M352.143 157.62C352.143 157.62 348.771 156.432 346.791 158.617" stroke="#263238" stroke-linecap="round" stroke-linejoin="round"/>
<path d="M368.102 153.555C368.102 153.816 368.179 154.072 368.324 154.289C368.469 154.506 368.675 154.675 368.917 154.775C369.158 154.875 369.423 154.901 369.679 154.85C369.935 154.799 370.171 154.673 370.355 154.489C370.54 154.304 370.665 154.069 370.716 153.813C370.767 153.557 370.741 153.291 370.641 153.05C370.541 152.809 370.372 152.603 370.155 152.458C369.938 152.313 369.683 152.235 369.422 152.235C369.072 152.235 368.736 152.374 368.488 152.622C368.241 152.87 368.102 153.205 368.102 153.555Z" fill="#263238" stroke="#263238" stroke-linecap="round" stroke-linejoin="round"/>
<path d="M349.22 158.465C349.22 158.727 349.297 158.982 349.442 159.199C349.587 159.416 349.793 159.585 350.035 159.685C350.276 159.785 350.541 159.811 350.797 159.76C351.053 159.709 351.289 159.583 351.473 159.399C351.658 159.214 351.783 158.979 351.834 158.723C351.885 158.467 351.859 158.202 351.759 157.96C351.659 157.719 351.49 157.513 351.273 157.368C351.056 157.223 350.801 157.146 350.54 157.146C350.19 157.146 349.854 157.285 349.606 157.532C349.359 157.78 349.22 158.115 349.22 158.465Z" fill="#263238" stroke="#263238" stroke-linecap="round" stroke-linejoin="round"/>
<path d="M374.055 146.915C374.055 146.915 367.614 144.935 362.453 148.4Z" fill="white"/>
<path d="M374.055 146.915C374.055 146.915 367.614 144.935 362.453 148.4" stroke="#263238" stroke-width="3" stroke-linecap="round" stroke-linejoin="round"/>
<path d="M350.956 151.575C350.956 151.575 346.296 150.684 343.518 154.354Z" fill="white"/>
<path d="M350.956 151.575C350.956 151.575 346.296 150.684 343.518 154.354" stroke="#263238" stroke-width="3" stroke-linecap="round" stroke-linejoin="round"/>
<path d="M365.33 167.342C365.33 167.342 362.452 170.411 360.572 170.708C358.691 171.005 356.11 169.388 355.912 169.025" fill="white"/>
<path d="M365.33 167.342C365.33 167.342 362.452 170.411 360.572 170.708C358.691 171.005 356.11 169.388 355.912 169.025" stroke="#263238" stroke-linecap="round" stroke-linejoin="round"/>
<path d="M371.079 168.827C371.079 168.827 366.115 173.784 362.248 174.576C358.38 175.368 352.533 173.586 352.533 173.586C352.533 173.586 359.872 179.935 362.433 180.133C363.401 180.248 364.382 180.085 365.261 179.663C366.139 179.241 366.88 178.577 367.396 177.75C368.439 176.364 371.079 168.827 371.079 168.827Z" fill="white" stroke="#263238" stroke-linecap="round" stroke-linejoin="round"/>
<path d="M376.735 147.906C376.735 147.906 377.923 155.542 376.933 156.433C375.943 157.324 369.297 159.31 366.32 159.409C363.343 159.508 362.452 158.815 362.056 158.32C361.66 157.826 359.978 152.565 360.176 151.872C360.374 151.179 369.693 147.807 376.735 147.906Z" stroke="#263238" stroke-linecap="round" stroke-linejoin="round"/>
<path d="M338.356 156.981C338.356 156.981 340.64 164.366 341.92 164.729C343.201 165.092 350.045 163.963 352.757 162.749C355.47 161.534 355.971 160.518 356.11 159.898C356.249 159.277 355.45 153.813 354.975 153.298C354.5 152.783 344.639 153.799 338.356 156.981Z" stroke="#263238" stroke-linecap="round" stroke-linejoin="round"/>
<path d="M376.734 147.905L381.856 147.925" stroke="#263238" stroke-linecap="round" stroke-linejoin="round"/>
<path d="M360.176 151.872C360.176 151.872 356.988 151.542 354.975 153.278" stroke="#263238" stroke-linecap="round" stroke-linejoin="round"/>
<path d="M360.334 153.225C360.334 153.225 357.437 152.789 355.476 154.591" stroke="#263238" stroke-linecap="round" stroke-linejoin="round"/>
<path d="M316.755 246.052C316.755 246.052 321.817 249.59 322.2 252.758C322.583 255.926 323.843 263.892 322.068 266.677C320.293 269.462 314.353 274.755 301.694 273.382C289.036 272.009 288.785 261.997 289.293 258.321C289.801 254.645 290.686 248.831 292.837 247.438C294.989 246.046 305.489 241.241 316.755 246.052Z" fill="#8C8C8C" stroke="#263238" stroke-linecap="round" stroke-linejoin="round"/>
<path d="M318.161 174.76C318.161 174.76 321.725 169.25 321.725 165.521C321.725 161.792 321.89 159.528 323.83 160.175C325.77 160.822 327.717 165.356 327.559 168.596C327.37 170.906 326.927 173.188 326.239 175.401C326.239 175.401 325.579 174.912 322.84 174.741C321.282 174.646 319.719 174.653 318.161 174.76Z" fill="white" stroke="#263238" stroke-linecap="round" stroke-linejoin="round"/>
<path d="M321.58 172.655C321.58 172.655 336.964 175.407 338.079 176.543C338.599 176.994 338.981 177.582 339.182 178.241C339.383 178.899 339.394 179.6 339.214 180.265C338.992 181.175 338.537 182.012 337.895 182.694C338.256 184.432 338.088 186.239 337.413 187.881C336.278 190.31 336.436 189.498 336.436 189.498C336.436 189.498 336.278 194.356 334.661 194.844C333.044 195.332 332.225 195.649 332.225 195.649C332.225 195.649 332.225 199.213 330.608 199.701C328.991 200.19 324.939 199.536 324.939 199.536C324.939 199.536 322.187 203.1 319.917 203.265C318.345 203.337 316.771 203.229 315.224 202.942C315.224 202.942 317.811 241.327 318.458 245.214C319.105 249.101 321.052 260.605 316.029 264.354C311.007 268.102 303.562 268.241 298.87 265.324C294.177 262.407 292.877 259.331 292.712 253.338C292.547 247.346 301.78 204.401 303.589 200.672C305.397 196.943 315.25 177.995 317.032 175.407C317.548 174.649 318.221 174.01 319.006 173.535C319.791 173.06 320.668 172.76 321.58 172.655Z" fill="white" stroke="#263238" stroke-linecap="round" stroke-linejoin="round"/>
<path d="M337.921 182.694C337.921 182.694 328.364 181.558 326.912 181.235C325.46 180.912 319.784 180.106 319.784 180.106" fill="white"/>
<path d="M337.921 182.694C337.921 182.694 328.364 181.558 326.912 181.235C325.46 180.912 319.784 180.106 319.784 180.106" stroke="#263238" stroke-linecap="round" stroke-linejoin="round"/>
<path d="M336.462 189.498C336.462 189.498 327.718 188.527 324.8 188.039L318.973 187.069" fill="white"/>
<path d="M336.462 189.498C336.462 189.498 327.718 188.527 324.8 188.039L318.973 187.069" stroke="#263238" stroke-linecap="round" stroke-linejoin="round"/>
<path d="M332.252 195.649C332.252 195.649 322.213 194.329 318.808 193.544Z" fill="white"/>
<path d="M332.252 195.649C332.252 195.649 322.213 194.329 318.808 193.544" stroke="#263238" stroke-linecap="round" stroke-linejoin="round"/>
<path d="M316.141 206.208C316.141 206.208 313.898 207.753 309.581 207.311C303.826 206.723 301.807 203.912 301.807 203.912L300.83 209.257C300.83 209.257 304.341 212.769 309.258 212.98C311.719 213.033 314.149 212.429 316.3 211.231L316.141 206.208Z" fill="#263238" stroke="#263238" stroke-linecap="round" stroke-linejoin="round"/>
<path d="M346.494 249.213C346.494 249.213 356.031 249.128 357.173 249.081C358.314 249.035 359.014 248.547 358.988 250.091C358.961 251.636 360.671 258.671 360.123 259.265C359.575 259.859 352.817 263.436 352.104 263.799C351.391 264.162 349.18 263.093 349.18 263.093C349.18 263.093 346.25 261.489 346.052 261.007C345.854 260.526 346.494 249.213 346.494 249.213Z" fill="#B0B0B0" stroke="#263238" stroke-linecap="round" stroke-linejoin="round"/>
<path d="M348.903 259.575C348.948 259.872 349.08 260.148 349.283 260.37C349.485 260.592 349.749 260.748 350.04 260.82C350.331 260.892 350.638 260.876 350.92 260.774C351.202 260.672 351.448 260.489 351.626 260.247C351.804 260.005 351.906 259.716 351.92 259.416C351.934 259.116 351.858 258.819 351.703 258.562C351.548 258.305 351.321 258.1 351.049 257.972C350.777 257.845 350.474 257.801 350.177 257.846C349.98 257.875 349.79 257.944 349.619 258.047C349.449 258.15 349.3 258.286 349.182 258.446C349.063 258.607 348.978 258.789 348.93 258.983C348.882 259.176 348.873 259.378 348.903 259.575Z" fill="white" stroke="#263238" stroke-linecap="round" stroke-linejoin="round"/>
<path d="M361.43 224.913C361.454 225.156 361.548 225.388 361.701 225.579C361.855 225.77 362.06 225.913 362.292 225.99C362.525 226.067 362.775 226.075 363.012 226.013C363.249 225.951 363.463 225.821 363.628 225.64C363.793 225.459 363.902 225.234 363.941 224.992C363.981 224.75 363.949 224.502 363.851 224.278C363.752 224.053 363.591 223.862 363.386 223.728C363.181 223.593 362.942 223.521 362.697 223.52C362.522 223.527 362.35 223.568 362.191 223.642C362.032 223.716 361.889 223.821 361.771 223.951C361.653 224.08 361.562 224.232 361.504 224.397C361.445 224.562 361.42 224.738 361.43 224.913Z" fill="white" stroke="#263238" stroke-linecap="round" stroke-linejoin="round"/>
<path d="M361.047 244.785C361.07 245.03 361.164 245.264 361.317 245.458C361.471 245.651 361.677 245.796 361.911 245.874C362.145 245.952 362.397 245.961 362.636 245.898C362.875 245.836 363.091 245.706 363.257 245.523C363.423 245.341 363.533 245.114 363.572 244.87C363.612 244.626 363.58 244.376 363.48 244.15C363.38 243.925 363.216 243.733 363.009 243.598C362.802 243.463 362.561 243.392 362.314 243.392C362.139 243.399 361.967 243.44 361.808 243.514C361.649 243.588 361.506 243.693 361.388 243.823C361.27 243.952 361.179 244.104 361.121 244.269C361.062 244.434 361.037 244.61 361.047 244.785Z" fill="white" stroke="#263238" stroke-linecap="round" stroke-linejoin="round"/>
<path d="M361.555 264.525C361.579 264.769 361.674 265 361.827 265.191C361.98 265.383 362.185 265.525 362.418 265.602C362.65 265.679 362.9 265.687 363.137 265.625C363.374 265.563 363.588 265.434 363.753 265.252C363.918 265.071 364.027 264.846 364.066 264.604C364.106 264.362 364.075 264.114 363.976 263.89C363.878 263.666 363.716 263.475 363.511 263.34C363.307 263.206 363.067 263.134 362.822 263.132C362.647 263.139 362.475 263.181 362.316 263.255C362.157 263.328 362.015 263.433 361.897 263.563C361.779 263.693 361.688 263.844 361.629 264.01C361.57 264.175 361.545 264.35 361.555 264.525Z" fill="white" stroke="#263238" stroke-linecap="round" stroke-linejoin="round"/>
<path d="M365.099 287.559C365.123 287.802 365.218 288.034 365.371 288.225C365.524 288.416 365.729 288.559 365.962 288.636C366.195 288.713 366.444 288.721 366.681 288.659C366.918 288.597 367.132 288.467 367.297 288.286C367.462 288.105 367.571 287.88 367.611 287.638C367.65 287.396 367.619 287.148 367.52 286.924C367.422 286.699 367.26 286.508 367.055 286.374C366.851 286.239 366.611 286.167 366.366 286.166C366.191 286.173 366.019 286.214 365.86 286.288C365.701 286.362 365.559 286.467 365.441 286.597C365.323 286.726 365.232 286.878 365.173 287.043C365.115 287.208 365.089 287.384 365.099 287.559Z" fill="white" stroke="#263238" stroke-linecap="round" stroke-linejoin="round"/>
<path d="M187.754 294.126H501.28" stroke="#263238" stroke-linecap="round" stroke-linejoin="round"/>
<defs>
<filter id="filter0_d_368_338" x="0" y="0.937012" width="530" height="318" filterUnits="userSpaceOnUse" color-interpolation-filters="sRGB">
<feFlood flood-opacity="0" result="BackgroundImageFix"/>
<feColorMatrix in="SourceAlpha" type="matrix" values="0 0 0 0 0 0 0 0 0 0 0 0 0 0 0 0 0 0 127 0" result="hardAlpha"/>
<feMorphology radius="3" operator="dilate" in="SourceAlpha" result="effect1_dropShadow_368_338"/>
<feOffset/>
<feGaussianBlur stdDeviation="10"/>
<feComposite in2="hardAlpha" operator="out"/>
<feColorMatrix type="matrix" values="0 0 0 0 0 0 0 0 0 0 0 0 0 0 0 0 0 0 0.25 0"/>
<feBlend mode="normal" in2="BackgroundImageFix" result="effect1_dropShadow_368_338"/>
<feBlend mode="normal" in="SourceGraphic" in2="effect1_dropShadow_368_338" result="shape"/>
</filter>
</defs>
</svg>
